<svg width="24" height="24" viewBox="0 0 24 24" fill="none" xmlns="http://www.w3.org/2000/svg">
    <path d="M2.14709 2.26456C1.74092 2.18333 1.3458 2.44674 1.26456 2.85291C1.18333 3.25908 1.44674 3.6542 1.85291 3.73544L2.14709 2.26456ZM4.8 6.5L4.05372 6.57463L4.05446 6.582L4.05534 6.58936L4.8 6.5ZM21.2855 9.35783L20.5579 9.17593L21.2855 9.35783ZM20.1628 13.8489L19.4352 13.667L20.1628 13.8489ZM4.6472 4.97203L3.90092 5.04665L4.6472 4.97203ZM1.85291 3.73544L2.90227 3.94531L3.19645 2.47444L2.14709 2.26456L1.85291 3.73544ZM7.77435 17.25H16.7673V15.75H7.77435V17.25ZM20.8904 14.0308L22.0131 9.53973L20.5579 9.17593L19.4352 13.667L20.8904 14.0308ZM3.90092 5.04665L4.05372 6.57463L5.54628 6.42537L5.39348 4.8974L3.90092 5.04665ZM4.05534 6.58936L5.04394 14.8277L6.53325 14.6489L5.54466 6.41064L4.05534 6.58936ZM19.0542 5.75H4.8V7.25H19.0542V5.75ZM22.0131 9.53973C22.4944 7.61473 21.0385 5.75 19.0542 5.75V7.25C20.0626 7.25 20.8025 8.19765 20.5579 9.17593L22.0131 9.53973ZM16.7673 17.25C18.7175 17.25 20.4174 15.9227 20.8904 14.0308L19.4352 13.667C19.1291 14.8912 18.0292 15.75 16.7673 15.75V17.25ZM7.77435 15.75C7.1416 15.75 6.60864 15.2772 6.53325 14.6489L5.04394 14.8277C5.20979 16.2098 6.3823 17.25 7.77435 17.25V15.75ZM2.90227 3.94531C3.44102 4.05306 3.84626 4.49996 3.90092 5.04665L5.39348 4.8974C5.27321 3.69468 4.3817 2.71149 3.19645 2.47444L2.90227 3.94531Z"
          fill="#2C2C2C"/>
    <path d="M13 13.5H9" stroke="#2C2C2C" stroke-width="1.5" stroke-linecap="round" stroke-linejoin="round"/>
    <circle cx="8.5" cy="20" r="1.5" fill="#2C2C2C"/>
    <circle cx="17.5" cy="20" r="1.5" fill="#2C2C2C"/>
</svg>
