<svg width="20" height="20" viewBox="0 0 20 20" fill="none" xmlns="http://www.w3.org/2000/svg">
<path d="M15.5303 14.4688C15.8232 14.7617 15.8232 15.2366 15.5304 15.5295C15.2375 15.8224 14.7626 15.8224 14.4697 15.5295L15.5303 14.4688ZM4.46969 5.53035C4.17679 5.23747 4.17677 4.7626 4.46965 4.46969C4.76253 4.17679 5.2374 4.17677 5.53031 4.46965L4.46969 5.53035ZM14.4697 4.47046C14.7626 4.17758 15.2375 4.1776 15.5304 4.4705C15.8232 4.76341 15.8232 5.23828 15.5303 5.53117L14.4697 4.47046ZM5.53031 15.5304C5.2374 15.8232 4.76253 15.8232 4.46965 15.5303C4.17677 15.2374 4.17679 14.7625 4.46969 14.4696L5.53031 15.5304ZM14.4697 15.5295L4.46969 5.53035L5.53031 4.46965L15.5303 14.4688L14.4697 15.5295ZM15.5303 5.53117L5.53031 15.5304L4.46969 14.4696L14.4697 4.47046L15.5303 5.53117Z" fill="#2C2C2C"/>
</svg>
