<svg width="24" height="24" viewBox="0 0 24 24" fill="none" xmlns="http://www.w3.org/2000/svg">
    <path d="M5 5.33333C5 3.49238 6.49239 2 8.33333 2H11.6667V8.66667H8.33333C6.49238 8.66667 5 7.17428 5 5.33333V5.33333Z"
          stroke="#151515" stroke-width="1.5"/>
    <path d="M18.3359 5.33333C18.3359 3.49238 16.8436 2 15.0026 2H11.6693V8.66667H15.0026C16.8436 8.66667 18.3359 7.17428 18.3359 5.33333V5.33333Z"
          stroke="#151515" stroke-width="1.5"/>
    <path d="M18.3359 11.9993C18.3359 10.1584 16.8436 8.66602 15.0026 8.66602V8.66602C13.1617 8.66602 11.6693 10.1584 11.6693 11.9993V11.9993C11.6693 13.8403 13.1617 15.3327 15.0026 15.3327V15.3327C16.8436 15.3327 18.3359 13.8403 18.3359 11.9993V11.9993Z"
          stroke="#151515" stroke-width="1.5"/>
    <path d="M5 11.9993C5 10.1584 6.49239 8.66602 8.33333 8.66602H11.6667V15.3327H8.33333C6.49238 15.3327 5 13.8403 5 11.9993V11.9993Z"
          stroke="#151515" stroke-width="1.5"/>
    <path d="M5 18.6673C5 16.8264 6.49239 15.334 8.33333 15.334H11.6667V18.6673C11.6667 20.5083 10.1743 22.0007 8.33333 22.0007V22.0007C6.49238 22.0007 5 20.5083 5 18.6673V18.6673Z"
          stroke="#151515" stroke-width="1.5"/>
</svg>
