<svg width="24" height="24" viewBox="0 0 24 24" fill="none" xmlns="http://www.w3.org/2000/svg">
<path fill-rule="evenodd" clip-rule="evenodd" d="M1.25 12C1.25 6.06294 6.06294 1.25 12 1.25C17.9371 1.25 22.75 6.06294 22.75 12C22.75 17.9371 17.9371 22.75 12 22.75C6.06294 22.75 1.25 17.9371 1.25 12ZM12 2.75C6.89137 2.75 2.75 6.89137 2.75 12C2.75 17.1086 6.89137 21.25 12 21.25C17.1086 21.25 21.25 17.1086 21.25 12C21.25 6.89137 17.1086 2.75 12 2.75ZM13.8496 8.28966C14.1314 8.59319 14.1139 9.06774 13.8103 9.3496L11.0995 11.8668C10.993 11.9657 10.993 12.1343 11.0995 12.2332L13.8103 14.7504C14.1139 15.0323 14.1314 15.5068 13.8496 15.8103C13.5677 16.1139 13.0932 16.1314 12.7896 15.8496L10.0788 13.3324C9.3332 12.64 9.3332 11.46 10.0788 10.7676L12.7896 8.25041C13.0932 7.96855 13.5677 7.98613 13.8496 8.28966Z" fill="#222222"/>
</svg>
