<svg width="24" height="24" viewBox="0 0 24 24" fill="none" xmlns="http://www.w3.org/2000/svg">
    <path d="M8.00288 2.82971L7.70298 2.14228L8.00288 2.82971ZM8.0029 21.1699L8.3028 20.4825L8.0029 21.1699ZM15.9928 21.1699L15.6929 20.4825L15.9928 21.1699ZM21.3069 15.6598L20.609 15.3852L21.3069 15.6598ZM21.3069 8.33986L20.609 8.61447L21.3069 8.33986ZM15.6578 21.3089L15.9324 22.0068L15.6578 21.3089ZM16.2928 2.14229C16.1738 2.09037 16.0536 2.04054 15.9324 1.99285L15.3832 3.38869C15.4874 3.42968 15.5906 3.47251 15.693 3.51715L16.2928 2.14229ZM22.0048 8.06525C21.9571 7.94386 21.9071 7.82355 21.8551 7.70436L20.4803 8.30424C20.525 8.40671 20.5679 8.51013 20.609 8.61447L22.0048 8.06525ZM21.8556 16.2943C21.9074 16.1754 21.9572 16.0554 22.0048 15.9344L20.609 15.3852C20.568 15.4892 20.5253 15.5924 20.4807 15.6946L21.8556 16.2943ZM15.9324 22.0068C16.0536 21.9591 16.1737 21.9093 16.2927 21.8574L15.6929 20.4825C15.5906 20.5271 15.4874 20.57 15.3832 20.6109L15.9324 22.0068ZM7.703 21.8574C7.82199 21.9093 7.94211 21.9591 8.06331 22.0068L8.61253 20.6109C8.50835 20.57 8.40509 20.5271 8.3028 20.4825L7.703 21.8574ZM1.9909 15.9344C2.03858 16.0556 2.0884 16.1757 2.1403 16.2946L3.51516 15.6949C3.47054 15.5926 3.42772 15.4893 3.38673 15.3852L1.9909 15.9344ZM2.14044 7.70467C2.08848 7.82375 2.03862 7.94395 1.9909 8.06524L3.38673 8.61447C3.42776 8.51021 3.47062 8.40688 3.51528 8.30451L2.14044 7.70467ZM8.06328 1.99286C7.94208 2.04055 7.82197 2.09037 7.70298 2.14228L8.30278 3.51714C8.40507 3.47251 8.50833 3.42968 8.6125 3.38869L8.06328 1.99286ZM6.51778 6.51951C6.81905 6.21824 7.02641 5.85664 7.18447 5.52522C7.33783 5.20367 7.47751 4.83529 7.59283 4.55723C7.86227 3.9075 8.0584 3.62375 8.30278 3.51714L7.70298 2.14228C6.83739 2.5199 6.45395 3.38773 6.20725 3.98261C6.06449 4.32685 5.96195 4.60403 5.83057 4.8795C5.7039 5.1451 5.58399 5.33197 5.45712 5.45885L6.51778 6.51951ZM3.51528 8.30451C3.62191 8.06012 3.90568 7.864 4.55543 7.59456C4.83351 7.47925 5.20189 7.33957 5.52345 7.18621C5.85488 7.02815 6.2165 6.82079 6.51778 6.51951L5.45712 5.45885C5.33024 5.58573 5.14336 5.70563 4.87775 5.8323C4.60228 5.96368 4.32509 6.06622 3.98085 6.20897C3.38595 6.45566 2.51809 6.83908 2.14044 7.70467L3.51528 8.30451ZM4.24786 11.9998C4.24786 11.5736 4.13868 11.1711 4.016 10.8249C3.89698 10.489 3.73512 10.1296 3.61999 9.85146C3.35093 9.20138 3.2892 8.86236 3.38673 8.61447L1.9909 8.06524C1.64487 8.94465 1.98766 9.8299 2.23401 10.4251C2.37659 10.7696 2.50016 11.0381 2.60214 11.3259C2.70046 11.6034 2.74786 11.8203 2.74786 11.9998H4.24786ZM3.38673 15.3852C3.28919 15.1373 3.35093 14.7982 3.61999 14.1482C3.73512 13.87 3.89698 13.5106 4.016 13.1747C4.13868 12.8285 4.24786 12.4261 4.24786 11.9998H2.74786C2.74786 12.1793 2.70046 12.3963 2.60214 12.6737C2.50016 12.9615 2.37659 13.23 2.23401 13.5745C1.98766 14.1697 1.64487 15.055 1.9909 15.9344L3.38673 15.3852ZM6.51777 17.4799C6.21648 17.1786 5.85485 16.9712 5.52341 16.8132C5.20183 16.6598 4.83343 16.5201 4.55534 16.4048C3.90555 16.1354 3.62178 15.9392 3.51516 15.6949L2.1403 16.2946C2.51794 17.1603 3.38585 17.5437 3.98077 17.7904C4.32503 17.9332 4.60224 18.0357 4.87772 18.1671C5.14334 18.2938 5.33023 18.4137 5.45711 18.5405L6.51777 17.4799ZM8.3028 20.4825C8.05841 20.3759 7.86228 20.0921 7.59284 19.4423C7.47752 19.1642 7.33785 18.7958 7.18449 18.4742C7.02642 18.1428 6.81906 17.7812 6.51777 17.4799L5.45711 18.5405C5.58399 18.6674 5.7039 18.8543 5.83057 19.1199C5.96195 19.3954 6.06449 19.6726 6.20724 20.0169C6.45394 20.6118 6.83737 21.4797 7.703 21.8574L8.3028 20.4825ZM17.4779 17.4796C17.1766 17.7809 16.9693 18.1426 16.8112 18.4741C16.6578 18.7957 16.5182 19.1641 16.4028 19.4422C16.1334 20.0921 15.9373 20.3759 15.6929 20.4825L16.2927 21.8574C17.1584 21.4797 17.5418 20.6117 17.7885 20.0167C17.9312 19.6725 18.0337 19.3952 18.1651 19.1197C18.2918 18.8541 18.4117 18.6672 18.5386 18.5403L17.4779 17.4796ZM20.4807 15.6946C20.3741 15.9389 20.0903 16.1351 19.4405 16.4045C19.1624 16.5198 18.7939 16.6595 18.4723 16.8129C18.1409 16.971 17.7792 17.1783 17.4779 17.4796L18.5386 18.5403C18.6655 18.4134 18.8524 18.2935 19.118 18.1668C19.3935 18.0354 19.6707 17.9329 20.015 17.7901C20.61 17.5434 21.4779 17.16 21.8556 16.2943L20.4807 15.6946ZM19.7479 11.9998C19.7479 12.4261 19.857 12.8285 19.9797 13.1747C20.0987 13.5106 20.2606 13.87 20.3757 14.1482C20.6448 14.7982 20.7065 15.1373 20.609 15.3852L22.0048 15.9344C22.3508 15.055 22.0081 14.1697 21.7617 13.5745C21.6191 13.23 21.4956 12.9615 21.3936 12.6737C21.2953 12.3963 21.2479 12.1793 21.2479 11.9998H19.7479ZM17.4779 6.51929C17.7792 6.82056 18.1408 7.02792 18.4722 7.18598C18.7938 7.33933 19.1621 7.479 19.4402 7.59431C20.0899 7.86374 20.3737 8.05986 20.4803 8.30424L21.8551 7.70436C21.4775 6.83882 20.6097 6.45541 20.0148 6.20873C19.6706 6.06598 19.3934 5.96344 19.1179 5.83207C18.8523 5.7054 18.6655 5.5855 18.5386 5.45863L17.4779 6.51929ZM11.9979 19.7498C11.5716 19.7498 11.1692 19.859 10.823 19.9817C10.4871 20.1007 10.1277 20.2626 9.84953 20.3777C9.19944 20.6467 8.86042 20.7085 8.61253 20.6109L8.06331 22.0068C8.94272 22.3528 9.82796 22.01 10.4232 21.7637C10.7677 21.6211 11.0362 21.4975 11.324 21.3955C11.6014 21.2972 11.8184 21.2498 11.9979 21.2498V19.7498ZM15.693 3.51715C15.9373 3.62376 16.1335 3.90749 16.4029 4.55715C16.5182 4.83519 16.6579 5.20354 16.8113 5.52507C16.9693 5.85646 17.1767 6.21803 17.4779 6.51929L18.5386 5.45863C18.4117 5.33176 18.2918 5.14489 18.1651 4.87931C18.0338 4.60386 17.9312 4.3267 17.7885 3.98249C17.5417 3.38765 17.1583 2.51989 16.2928 2.14229L15.693 3.51715ZM11.9978 4.24981C12.4241 4.24981 12.8266 4.14063 13.1728 4.01795C13.5086 3.89893 13.868 3.73707 14.1462 3.62194C14.7963 3.35288 15.1353 3.29115 15.3832 3.38869L15.9324 1.99285C15.053 1.64683 14.1678 1.98962 13.5726 2.23596C13.2281 2.37854 12.9595 2.50211 12.6718 2.6041C12.3943 2.70242 12.1773 2.74981 11.9978 2.74981V4.24981ZM20.609 8.61447C20.7065 8.86236 20.6448 9.20138 20.3757 9.85147C20.2606 10.1296 20.0987 10.489 19.9797 10.8249C19.857 11.1711 19.7479 11.5736 19.7479 11.9998H21.2479C21.2479 11.8203 21.2953 11.6034 21.3936 11.3259C21.4956 11.0381 21.6191 10.7696 21.7617 10.4251C22.0081 9.8299 22.3508 8.94466 22.0048 8.06525L20.609 8.61447ZM15.3832 20.6109C15.1353 20.7085 14.7963 20.6467 14.1462 20.3777C13.868 20.2626 13.5087 20.1007 13.1728 19.9817C12.8266 19.859 12.4241 19.7498 11.9979 19.7498V21.2498C12.1773 21.2498 12.3943 21.2972 12.6718 21.3955C12.9596 21.4975 13.2281 21.6211 13.5726 21.7637C14.1678 22.01 15.053 22.3528 15.9324 22.0068L15.3832 20.6109ZM11.9978 2.74981C11.8184 2.74981 11.6014 2.70242 11.3239 2.6041C11.0361 2.50211 10.7676 2.37854 10.4231 2.23597C9.82793 1.98962 8.94269 1.64683 8.06328 1.99286L8.6125 3.38869C8.86039 3.29115 9.19941 3.35289 9.8495 3.62195C10.1277 3.73708 10.4871 3.89893 10.8229 4.01795C11.1691 4.14063 11.5716 4.24981 11.9978 4.24981V2.74981Z"
          fill="#151515"/>
    <circle cx="9.79688" cy="9.79811" r="0.791538" transform="rotate(45 9.79688 9.79811)" fill="#151515"/>
    <circle cx="14.2031" cy="14.2014" r="0.791538" transform="rotate(45 14.2031 14.2014)" fill="#151515"/>
    <path d="M9.75676 14.2384L14.2344 9.76074" stroke="#151515" stroke-width="1.5" stroke-linecap="round"
          stroke-linejoin="round"/>
</svg>
