<svg width="18" height="17" viewBox="0 0 18 17" fill="none" xmlns="http://www.w3.org/2000/svg">
<path fill-rule="evenodd" clip-rule="evenodd" d="M9.804 0.892293L11.7549 5.03038C11.8505 5.23838 12.0387 5.38377 12.2578 5.41883L16.6245 6.08472C16.8016 6.11022 16.9616 6.20831 17.069 6.35718C17.1763 6.50605 17.222 6.69336 17.196 6.87746C17.174 7.0288 17.1043 7.16825 16.9978 7.27383L13.8352 10.5082C13.6754 10.6676 13.6038 10.9002 13.6447 11.1266L14.4069 15.6848C14.462 16.0604 14.2181 16.4128 13.8582 16.4776C13.7098 16.5018 13.5578 16.4768 13.4238 16.4062L9.52965 14.2579C9.33512 14.1464 9.0993 14.1464 8.90477 14.2579L4.9878 16.422C4.65916 16.5975 4.25601 16.4671 4.08094 16.1287C4.01268 15.9923 3.98863 15.8366 4.01236 15.6848L4.77442 11.1266C4.81127 10.9005 4.74022 10.6699 4.5839 10.5082L1.3985 7.27383C1.138 6.99911 1.138 6.55764 1.3985 6.28291C1.50482 6.18052 1.63699 6.11177 1.77953 6.08472L6.14612 5.41883C6.36414 5.38121 6.55138 5.2366 6.64908 5.03038L8.59995 0.892293C8.67703 0.724508 8.81598 0.596209 8.98529 0.536512C9.15459 0.476806 9.33989 0.490756 9.49917 0.575199C9.63058 0.644522 9.73735 0.755595 9.804 0.892293Z" fill="#222222" stroke="#222222" stroke-width="0.511626" stroke-linecap="round" stroke-linejoin="round"/>
</svg>
