<svg width="24" height="24" viewBox="0 0 24 24" fill="none" xmlns="http://www.w3.org/2000/svg">
<path d="M5.07435 8C5.81204 6.72229 6.8887 5.67345 8.18528 4.96946C9.48187 4.26547 10.9479 3.93375 12.4212 4.01097C13.8946 4.08818 15.3179 4.57133 16.5338 5.40699C17.7497 6.24266 18.7108 7.39828 19.3109 8.74611M3.23438 5.51537L3.96379 8.6749C4.08802 9.21303 4.62497 9.54856 5.1631 9.42433L8.32264 8.69492M18.9308 15.9999C18.1931 17.2776 17.1165 18.3264 15.8199 19.0304C14.5233 19.7344 13.0573 20.0661 11.5839 19.9889C10.1105 19.9117 8.68724 19.4286 7.47134 18.5929C6.25545 17.7572 5.29432 16.6016 4.69423 15.2538M20.7708 18.4845L20.0414 15.325C19.9171 14.7869 19.3802 14.4513 18.842 14.5756L15.6825 15.305" stroke="#2C2C2C" stroke-width="1.5" stroke-linecap="round"/>
</svg>
