<svg width="16" height="14" viewBox="0 0 16 14" fill="none" xmlns="http://www.w3.org/2000/svg">
<path fill-rule="evenodd" clip-rule="evenodd" d="M1.17369 6.08865C5.42113 4.23811 8.25343 3.01812 9.67057 2.42868C13.7168 0.745709 14.5576 0.45336 15.1056 0.443706C15.2261 0.441583 15.4956 0.471454 15.6702 0.613102C15.8176 0.732707 15.8581 0.894276 15.8775 1.00767C15.8969 1.12107 15.9211 1.3794 15.9019 1.58125C15.6826 3.8851 14.7339 9.47595 14.2512 12.0563C14.047 13.1482 13.6448 13.5142 13.2555 13.5501C12.4094 13.6279 11.7669 12.9909 10.9474 12.4537C9.66503 11.6131 8.94058 11.0899 7.69584 10.2696C6.25733 9.32163 7.18986 8.80061 8.00966 7.94913C8.22421 7.72629 11.9522 4.33543 12.0243 4.02782C12.0333 3.98935 12.0417 3.84595 11.9565 3.77023C11.8713 3.69451 11.7456 3.7204 11.6549 3.741C11.5263 3.77019 9.47768 5.12421 5.50916 7.80307C4.92768 8.20236 4.401 8.39691 3.92911 8.38671C3.40888 8.37547 2.40818 8.09257 1.66426 7.85075C0.751817 7.55415 0.0266226 7.39734 0.0897708 6.89362C0.122662 6.63125 0.483967 6.36293 1.17369 6.08865Z" fill="#222222"/>
</svg>
