<svg width="24" height="24" viewBox="0 0 24 24" fill="none" xmlns="http://www.w3.org/2000/svg">
    <circle r="3.40426" transform="matrix(-1 0 0 1 12.2129 8.40426)" stroke="black" stroke-width="1.5"/>
    <path d="M6.25781 16.8594C6.25781 16.1272 6.71811 15.474 7.40768 15.2277V15.2277C10.5166 14.1174 13.9139 14.1174 17.0228 15.2277V15.2277C17.7124 15.474 18.1727 16.1272 18.1727 16.8594V17.979C18.1727 18.9896 17.2776 19.7659 16.2772 19.6229L15.9437 19.5753C13.4706 19.222 10.9599 19.222 8.48686 19.5753L8.15331 19.6229C7.15288 19.7659 6.25781 18.9896 6.25781 17.979V16.8594Z"
          stroke="black" stroke-width="1.5"/>
    <path d="M17.3174 11.9023C18.7947 11.9023 19.9922 10.7047 19.9922 9.22751C19.9922 7.75027 18.7947 6.55273 17.3174 6.55273"
          stroke="black" stroke-width="1.5" stroke-linecap="round"/>
    <path d="M20.2471 18.0046L20.5092 18.042C21.2952 18.1543 21.9985 17.5444 21.9985 16.7503V15.8707C21.9985 15.2953 21.6368 14.7821 21.095 14.5886C20.5546 14.3956 20.003 14.2453 19.4453 14.1377"
          stroke="black" stroke-width="1.5" stroke-linecap="round"/>
    <path d="M6.68258 11.9023C5.20535 11.9023 4.00781 10.7047 4.00781 9.22751C4.00781 7.75027 5.20535 6.55273 6.68258 6.55273"
          stroke="black" stroke-width="1.5" stroke-linecap="round"/>
    <path d="M3.75289 18.0046L3.49082 18.042C2.70476 18.1543 2.0015 17.5444 2.0015 16.7503V15.8707C2.0015 15.2953 2.36316 14.7821 2.90496 14.5886C3.44541 14.3956 3.99696 14.2453 4.55469 14.1377"
          stroke="black" stroke-width="1.5" stroke-linecap="round"/>
</svg>
