<svg id="Layer_1" data-name="Layer 1" xmlns="http://www.w3.org/2000/svg" viewBox="0 0 360 96"><path d="M50.15,51.1,32.45,2.6A48.21,48.21,0,0,0,7,23.4l38.2,37a2,2,0,0,0,3.2-.7l1.7-4.3A5.8,5.8,0,0,0,50.15,51.1Z"/><path d="M89,31.5l-20.2,4.8a5,5,0,0,0-3.5,3L54.45,66a4.22,4.22,0,0,0,.9,4.4l15.7,15.2A44.11,44.11,0,0,0,92.15,48,43.31,43.31,0,0,0,89,31.5Z"/><path d="M4.25,51.4a43.92,43.92,0,0,0,59.1,37.9L6.45,34.1A44.8,44.8,0,0,0,4.25,51.4Z"/><path d="M67.35,12.9A40,40,0,0,0,48.15,8a29.22,29.22,0,0,0-5.1.4l10.6,29a2,2,0,0,0,3.7.1Z"/><path d="M74.05,17.6l-3.3,8.1a1.16,1.16,0,0,0,1.4,1.6L81,25.2A35.46,35.46,0,0,0,74.05,17.6Z"/><path d="M157.45,37.83q0-8.89-6-13.82-5.72-4.53-14.46-4.53H114.16V77.39h12V56.58h8.66l11,20.81h13l-12.24-23Q157.45,50,157.45,37.83Zm-14.86,5.8a11.22,11.22,0,0,1-6.51,1.91h-10V30.84H136a12,12,0,0,1,6.63,1.71c1.78,1.14,2.66,3,2.66,5.52A6.14,6.14,0,0,1,142.59,43.63Z"/><rect x="168.17" y="19.48" width="11.99" height="57.9"/><path d="M232.74,61a18.26,18.26,0,0,1-3.09,2.78A16,16,0,0,1,220,66.66a17.37,17.37,0,0,1-15.32-9.17,19.47,19.47,0,0,1,.07-18.23,15.87,15.87,0,0,1,6.28-6.51,17.84,17.84,0,0,1,18.59.31,16,16,0,0,1,4.13,4.06,12.08,12.08,0,0,1,2,4.13l11.36-3.9a24,24,0,0,0-5.72-10A21.43,21.43,0,0,0,236.16,23a28.29,28.29,0,0,0-16-4.37,31.37,31.37,0,0,0-11.43,2.22,29.37,29.37,0,0,0-9.61,6.2,31.87,31.87,0,0,0-6.6,9.45,30.86,30.86,0,0,0,0,24.15,28.94,28.94,0,0,0,6.52,9.45,29.55,29.55,0,0,0,20.81,8.1,32.5,32.5,0,0,0,9.29-1.27,27.24,27.24,0,0,0,7.39-3.42,30.79,30.79,0,0,0,5.4-4.68A22,22,0,0,0,247.44,59l-11.44-4A14.78,14.78,0,0,1,232.74,61Z"/><polygon points="292.31 42.36 268.01 42.36 268.01 19.48 256.09 19.48 256.09 77.39 268.01 77.39 268.01 53.95 292.31 53.95 292.31 77.39 304.23 77.39 304.23 19.48 292.31 19.48 292.31 42.36"/><polygon points="329.56 66.19 329.56 53.72 352.92 53.72 352.92 42.52 329.56 42.52 329.56 30.68 355.62 30.68 355.62 19.48 317.73 19.48 317.73 77.39 355.86 77.39 355.86 66.19 329.56 66.19"/></svg>