<svg id="Layer_1" data-name="Layer 1" xmlns="http://www.w3.org/2000/svg" viewBox="0 0 420 96"><defs><style>.cls-1{fill:#32b75f;}</style></defs><path class="cls-1" d="M50.68,51.1,33,2.6A48.21,48.21,0,0,0,7.48,23.4l38.2,37a2,2,0,0,0,3.2-.7l1.7-4.3A5.8,5.8,0,0,0,50.68,51.1Z"/><path class="cls-1" d="M89.48,31.5l-20.2,4.8a5,5,0,0,0-3.5,3L55,66a4.22,4.22,0,0,0,.9,4.4l15.7,15.2A44.11,44.11,0,0,0,92.68,48,43.31,43.31,0,0,0,89.48,31.5Z"/><path class="cls-1" d="M4.78,51.4a43.92,43.92,0,0,0,59.1,37.9L7,34.1A44.8,44.8,0,0,0,4.78,51.4Z"/><path class="cls-1" d="M67.88,12.9A40,40,0,0,0,48.68,8a29.22,29.22,0,0,0-5.1.4l10.6,29a2,2,0,0,0,3.7.1Z"/><path class="cls-1" d="M74.58,17.6l-3.3,8.1a1.16,1.16,0,0,0,1.4,1.6l8.8-2.1A35.46,35.46,0,0,0,74.58,17.6Z"/><path d="M179.58,35.2q0-10.79-7.22-16.75Q165.43,13,154.84,13H127.12V83.13h14.54V57.91h10.49l13.38,25.22h15.78L166.49,55.22Q179.57,49.93,179.58,35.2Zm-18,7a13.7,13.7,0,0,1-7.89,2.31H141.56V26.73h12a14.6,14.6,0,0,1,8,2.07q3.23,2.07,3.22,6.69C164.85,38.57,163.76,40.81,161.58,42.23Z"/><rect x="192.57" y="12.97" width="14.53" height="70.16"/><path d="M270.82,63.3a22.64,22.64,0,0,1-3.75,3.37,19.41,19.41,0,0,1-11.65,3.47A21.09,21.09,0,0,1,236.84,59a23.12,23.12,0,0,1-2.69-11,22.7,22.7,0,0,1,2.79-11.07,19.18,19.18,0,0,1,7.6-7.89,21.62,21.62,0,0,1,22.53.38,19.33,19.33,0,0,1,5,4.91,14.69,14.69,0,0,1,2.41,5l13.76-4.72a29.29,29.29,0,0,0-6.93-12.13A25.82,25.82,0,0,0,275,17.2q-8-5.29-19.35-5.29a38.13,38.13,0,0,0-13.86,2.69,35.71,35.71,0,0,0-11.64,7.51,38.38,38.38,0,0,0-8,11.45,37.29,37.29,0,0,0,0,29.26A35,35,0,0,0,230,74.28a35.83,35.83,0,0,0,25.22,9.81,39.4,39.4,0,0,0,11.26-1.54,32.92,32.92,0,0,0,8.95-4.14A36.82,36.82,0,0,0,282,72.74a26.73,26.73,0,0,0,6.65-11.84l-13.86-4.82A18,18,0,0,1,270.82,63.3Z"/><polygon points="343 40.69 313.55 40.69 313.55 12.97 299.11 12.97 299.11 83.13 313.55 83.13 313.55 54.74 343 54.74 343 83.13 357.44 83.13 357.44 12.97 343 12.97 343 40.69"/><polygon points="388.14 69.56 388.14 54.45 416.44 54.45 416.44 40.88 388.14 40.88 388.14 26.54 419.71 26.54 419.71 12.97 373.8 12.97 373.8 83.13 420 83.13 420 69.56 388.14 69.56"/></svg>