<svg width="21" height="21" viewBox="0 0 21 21" xmlns="http://www.w3.org/2000/svg" fill="#64e77e">
    <path d="M15.5391 5.88182L18.9391 5.02049C18.3409 4.13001 17.6154 3.33197 16.7857 2.65182L15.5391 5.88182Z"/>
    <path d="M12.3215 9.66699L15.1888 1.97166C15.1947 1.96132 15.1979 1.94959 15.1979 1.93766C15.1979 1.92573 15.1947 1.914 15.1888 1.90366C13.2884 0.884497 11.116 0.488057 8.97812 0.770326L12.2421 9.65566"/>
    <path d="M20.8749 10.484C20.9147 9.33406 20.7653 8.18543 20.4329 7.08395C20.392 6.94305 20.3074 6.81878 20.1913 6.72913C20.0751 6.63948 19.9336 6.58911 19.7868 6.58529H19.6395L15.2876 7.53729C15.1835 7.55981 15.0864 7.60641 15.0037 7.67333C14.9211 7.74025 14.8552 7.82564 14.8115 7.92262L11.8649 14.9946C11.8132 15.1136 11.7986 15.2453 11.8229 15.3725C11.8471 15.4999 11.9092 15.617 12.0009 15.7086L15.1629 18.9612C15.2628 19.0669 15.3948 19.1363 15.5383 19.1589C15.6817 19.1814 15.8287 19.1558 15.9562 19.0859C17.4054 18.1622 18.6097 16.9015 19.4662 15.4115C20.3226 13.9216 20.806 12.2466 20.8749 10.5293"/>
    <path d="M11.0716 11.4353L6.90095 0.068C6.89226 0.0480779 6.87802 0.0310753 6.85994 0.0190187C6.84185 0.00696216 6.82068 0.000360264 6.79895 0C4.32476 0.833817 2.24342 2.5481 0.95095 4.81667C0.937165 4.83452 0.929688 4.85645 0.929688 4.879C0.929688 4.90155 0.937165 4.92348 0.95095 4.94133L10.1196 13.6C10.1289 13.6141 10.1416 13.6255 10.1564 13.6335C10.1712 13.6415 10.1878 13.6457 10.2046 13.6457C10.2214 13.6457 10.238 13.6415 10.2528 13.6335C10.2677 13.6255 10.2803 13.6141 10.2896 13.6L11.0716 11.492C11.0776 11.4817 11.0807 11.4699 11.0807 11.458C11.0807 11.4461 11.0776 11.4343 11.0716 11.424"/>
    <path d="M8.43301 20.7165C10.3983 21.1385 12.4433 20.989 14.3264 20.2859L0.499676 7.11654C0.0496298 8.53049 -0.0987685 10.0231 0.0640707 11.498C0.22691 12.9729 0.697364 14.3973 1.44503 15.679C2.19271 16.9607 3.20096 18.0713 4.40464 18.939C5.60833 19.8067 6.98068 20.4123 8.43301 20.7165Z"/>
</svg>
