<svg width="119" height="21" viewBox="0 0 119 21" xmlns="http://www.w3.org/2000/svg">
    <g>
        <path d="M15.5391 5.88182L18.9391 5.02049C18.3409 4.13001 17.6154 3.33197 16.7857 2.65182L15.5391 5.88182Z"/>
        <path d="M12.3215 9.66699L15.1888 1.97166C15.1947 1.96132 15.1979 1.94959 15.1979 1.93766C15.1979 1.92573 15.1947 1.914 15.1888 1.90366C13.2884 0.884497 11.116 0.488057 8.97812 0.770326L12.2421 9.65566"/>
        <path d="M20.8749 10.484C20.9147 9.33406 20.7653 8.18543 20.4329 7.08395C20.392 6.94305 20.3074 6.81878 20.1913 6.72913C20.0751 6.63948 19.9336 6.58911 19.7868 6.58529H19.6395L15.2876 7.53729C15.1835 7.55981 15.0864 7.60641 15.0037 7.67333C14.9211 7.74025 14.8552 7.82564 14.8115 7.92262L11.8649 14.9946C11.8132 15.1136 11.7986 15.2453 11.8229 15.3725C11.8471 15.4999 11.9092 15.617 12.0009 15.7086L15.1629 18.9612C15.2628 19.0669 15.3948 19.1363 15.5383 19.1589C15.6817 19.1814 15.8287 19.1558 15.9562 19.0859C17.4054 18.1622 18.6097 16.9015 19.4662 15.4115C20.3226 13.9216 20.806 12.2466 20.8749 10.5293"/>
        <path d="M11.0716 11.4353L6.90095 0.068C6.89226 0.0480779 6.87802 0.0310753 6.85994 0.0190187C6.84185 0.00696216 6.82068 0.000360264 6.79895 0C4.32476 0.833817 2.24342 2.5481 0.95095 4.81667C0.937165 4.83452 0.929688 4.85645 0.929688 4.879C0.929688 4.90155 0.937165 4.92348 0.95095 4.94133L10.1196 13.6C10.1289 13.6141 10.1416 13.6255 10.1564 13.6335C10.1712 13.6415 10.1878 13.6457 10.2046 13.6457C10.2214 13.6457 10.238 13.6415 10.2528 13.6335C10.2677 13.6255 10.2803 13.6141 10.2896 13.6L11.0716 11.492C11.0776 11.4817 11.0807 11.4699 11.0807 11.458C11.0807 11.4461 11.0776 11.4343 11.0716 11.424"/>
        <path d="M8.43301 20.7165C10.3983 21.1385 12.4433 20.989 14.3264 20.2859L0.499676 7.11654C0.0496298 8.53049 -0.0987685 10.0231 0.0640708 11.498C0.22691 12.9729 0.697364 14.3973 1.44503 15.679C2.19271 16.9607 3.20096 18.0713 4.40464 18.939C5.60833 19.8067 6.98068 20.4123 8.43301 20.7165Z"/>
    </g>
    <g>
        <path d="M35.8155 9.97359H31.6108V4.39759H35.8155C36.2 4.36434 36.5873 4.41197 36.9523 4.53741C37.3174 4.66286 37.6521 4.86333 37.935 5.12595C38.2179 5.38857 38.4426 5.7075 38.5948 6.06223C38.7471 6.41695 38.8233 6.79961 38.8188 7.18559C38.8233 7.57156 38.7471 7.95423 38.5948 8.30895C38.4426 8.66367 38.2179 8.9826 37.935 9.24522C37.6521 9.50784 37.3174 9.70832 36.9523 9.83376C36.5873 9.95921 36.2 10.0068 35.8155 9.97359ZM42.1055 19.2669L37.8215 12.3762C39.0304 12.1787 40.1221 11.5372 40.883 10.5771C41.644 9.61712 42.0192 8.40771 41.9355 7.18559C41.9607 6.44236 41.8301 5.70207 41.5519 5.01238C41.2738 4.32269 40.8544 3.69887 40.3206 3.18109C39.7868 2.66331 39.1505 2.26304 38.4526 2.00604C37.7548 1.74905 37.0109 1.64103 36.2688 1.68892H28.5281V19.2669H31.6108V12.6822H34.6595L38.5355 19.2669H42.1055Z"/>
        <path d="M50.4923 1.68893H47.4096V19.2442H50.4923V1.68893Z"/>
        <path d="M64.0241 19.5492C65.4446 19.5834 66.8483 19.2354 68.0882 18.5416C69.3283 17.8478 70.3592 16.8336 71.0734 15.6052L68.4441 14.2679C67.991 15.0391 67.3455 15.6794 66.5707 16.1264C65.796 16.5734 64.9184 16.8116 64.0241 16.8179C63.2024 16.8238 62.3884 16.6614 61.632 16.3406C60.8755 16.0199 60.1928 15.5477 59.6258 14.9531C59.0588 14.3585 58.6196 13.6541 58.3351 12.8833C58.0508 12.1125 57.9271 11.2916 57.9721 10.4712C57.9271 9.65137 58.0507 8.83101 58.3352 8.06081C58.6198 7.29061 59.0592 6.58691 59.6263 5.99319C60.1936 5.39947 60.8764 4.92834 61.6328 4.60889C62.3892 4.28944 63.203 4.12846 64.0241 4.13589C64.9176 4.1465 65.7934 4.3866 66.5674 4.83314C67.3414 5.27969 67.9876 5.91768 68.4441 6.68589L71.0734 5.33723C70.3592 4.10877 69.3283 3.09466 68.0882 2.40086C66.8483 1.70708 65.4446 1.35907 64.0241 1.39323C62.8131 1.34318 61.6049 1.54234 60.4742 1.97835C59.3434 2.41435 58.3143 3.07792 57.4504 3.92793C56.5866 4.77795 55.9065 5.7963 55.4524 6.91989C54.9981 8.04348 54.7795 9.24836 54.8101 10.4599C54.7795 11.6714 54.9981 12.8763 55.4524 13.9998C55.9065 15.1234 56.5866 16.1418 57.4504 16.9918C58.3143 17.8418 59.3434 18.5054 60.4742 18.9414C61.6049 19.3774 62.8131 19.5766 64.0241 19.5265"/>
        <path d="M90.4296 19.2329V1.68893H87.3582V8.87427H78.2235V1.68893H75.1409V19.2329H78.2235V11.5829H87.3582V19.2329H90.4296Z"/>
        <path d="M107.544 19.2329V16.5242H98.6015V11.6622H107.362V8.9536H98.6015V4.3976H107.544V1.68893H95.5188V19.2329H107.544Z"/>
        <path d="M115.397 1.68893H116.054L116.791 2.82227L117.505 1.68893H118.151V4.44293H117.562V2.58427L116.802 3.79693L116.043 2.58427V4.44293H115.454L115.397 1.68893ZM113.334 2.26693H112.541V1.68893H114.808V2.26693H113.98V4.44293H113.334V2.26693Z"/>
    </g>
</svg>
