<svg id="Layer_1" data-name="Layer 1" xmlns="http://www.w3.org/2000/svg" viewBox="0 0 96 96">
    <path d="M50,51.1,32.3,2.6A48.21,48.21,0,0,0,6.8,23.4L45,60.4a2,2,0,0,0,3.2-.7l1.7-4.3A5.8,5.8,0,0,0,50,51.1Z"/>
    <path d="M88.8,31.5,68.6,36.3a5,5,0,0,0-3.5,3L54.3,66a4.22,4.22,0,0,0,.9,4.4L70.9,85.6A44.11,44.11,0,0,0,92,48,43.31,43.31,0,0,0,88.8,31.5Z"/>
    <path d="M4.1,51.4A43.92,43.92,0,0,0,63.2,89.3L6.3,34.1A44.8,44.8,0,0,0,4.1,51.4Z"/>
    <path d="M67.2,12.9A40,40,0,0,0,48,8a29.22,29.22,0,0,0-5.1.4l10.6,29a2,2,0,0,0,3.7.1Z"/>
    <path d="M73.9,17.6l-3.3,8.1A1.16,1.16,0,0,0,72,27.3l8.8-2.1A35.46,35.46,0,0,0,73.9,17.6Z"/>
</svg>
