<svg width="205" height="24" viewBox="0 0 205 24" fill="none" xmlns="http://www.w3.org/2000/svg">
<g clip-path="url(#clip0_2975_10728)">
<path d="M130.83 3.17022H132.69V9.31022C132.727 9.80112 132.656 10.2941 132.483 10.7551C132.311 11.2161 132.04 11.6341 131.69 11.9802C130.992 12.5977 130.081 12.9204 129.15 12.8802C128.327 12.9186 127.518 12.6595 126.87 12.1502C126.343 11.7658 125.985 11.1925 125.87 10.5502L127.61 10.0402C127.674 10.3679 127.843 10.666 128.09 10.8902C128.368 11.1261 128.726 11.2476 129.09 11.2302C129.539 11.2417 129.976 11.0888 130.32 10.8002C130.493 10.637 130.627 10.4375 130.713 10.2162C130.8 9.99494 130.836 9.75725 130.82 9.52022V8.78022C130.602 9.06245 130.319 9.28797 129.995 9.43767C129.671 9.58737 129.316 9.65685 128.96 9.64022C128.388 9.64865 127.824 9.49992 127.33 9.21022C126.844 8.92233 126.448 8.50289 126.19 8.00022C125.926 7.48707 125.792 6.91711 125.8 6.34022C125.798 5.51197 126.093 4.71035 126.63 4.08022C126.902 3.75543 127.244 3.49574 127.63 3.32022C128.019 3.1312 128.447 3.03534 128.88 3.04022C129.175 3.05177 129.467 3.09878 129.75 3.18022C130.175 3.31547 130.551 3.57284 130.83 3.92022V3.17022ZM130.4 7.54022C130.554 7.38815 130.675 7.20547 130.754 7.00395C130.833 6.80243 130.869 6.58655 130.86 6.37022C130.868 6.15877 130.833 5.94791 130.757 5.75028C130.682 5.55266 130.567 5.37236 130.42 5.22022C130.273 5.06788 130.095 4.94821 129.899 4.86896C129.703 4.78971 129.492 4.75266 129.28 4.76022C129.074 4.75389 128.87 4.79168 128.68 4.87102C128.49 4.95037 128.32 5.06944 128.18 5.22022C128.028 5.36962 127.909 5.54898 127.829 5.74693C127.75 5.94489 127.713 6.15713 127.72 6.37022C127.711 6.58562 127.747 6.80054 127.824 7.00176C127.901 7.20297 128.019 7.38622 128.17 7.54022C128.466 7.83516 128.867 8.00077 129.285 8.00077C129.703 8.00077 130.104 7.83516 130.4 7.54022Z" fill="black"/>
<path d="M138.44 3.17022V5.00022C138.24 4.98699 138.04 4.98699 137.84 5.00022C137.629 4.99065 137.419 5.02886 137.225 5.11198C137.031 5.1951 136.858 5.32098 136.72 5.48022C136.424 5.86547 136.278 6.34535 136.31 6.83022V9.64022H134.45V3.17022H136.24V4.11022C136.383 3.7926 136.619 3.52638 136.918 3.34755C137.216 3.16871 137.563 3.08586 137.91 3.11022C138.088 3.11126 138.266 3.13138 138.44 3.17022Z" fill="black"/>
<path d="M145.48 6.93022H140.8C140.848 7.29783 141.038 7.63194 141.33 7.86022C141.616 8.08298 141.967 8.20591 142.33 8.21022C142.634 8.22669 142.937 8.15369 143.2 8.00022C143.453 7.86758 143.649 7.64707 143.75 7.38022L145.31 7.91022C145.115 8.49534 144.718 8.99177 144.19 9.31022C143.658 9.64816 143.04 9.82526 142.41 9.82022C141.79 9.82744 141.178 9.67963 140.63 9.39022C140.098 9.12153 139.651 8.70935 139.34 8.20022C139.023 7.66823 138.857 7.05966 138.86 6.44022C138.852 5.84043 139.015 5.25079 139.33 4.74022C139.636 4.21883 140.075 3.78833 140.602 3.49304C141.129 3.19775 141.726 3.04835 142.33 3.06022C142.76 3.04017 143.19 3.11033 143.592 3.2662C143.993 3.42206 144.358 3.66019 144.662 3.96529C144.966 4.27039 145.203 4.63572 145.358 5.03783C145.513 5.43994 145.581 5.86994 145.56 6.30022C145.546 6.51166 145.52 6.72205 145.48 6.93022ZM140.83 5.67022H143.62C143.582 5.34012 143.417 5.03798 143.159 4.8286C142.901 4.61922 142.571 4.51928 142.24 4.55022C142.057 4.5377 141.873 4.5642 141.7 4.62798C141.528 4.69176 141.371 4.79136 141.24 4.92022C141.027 5.12053 140.884 5.38313 140.83 5.67022Z" fill="black"/>
<path d="M153.07 6.93022H148.39C148.438 7.29783 148.628 7.63194 148.92 7.86022C149.224 8.09358 149.597 8.21698 149.98 8.21022C150.268 8.21713 150.551 8.14445 150.8 8.00022C151.053 7.87029 151.246 7.64839 151.34 7.38022L152.9 7.91022C152.709 8.49419 152.315 8.99065 151.79 9.31022C151.255 9.64845 150.633 9.82549 150 9.82022C149.38 9.82618 148.769 9.67844 148.22 9.39022C147.688 9.12153 147.241 8.70935 146.93 8.20022C146.613 7.66823 146.447 7.05966 146.45 6.44022C146.447 5.84106 146.61 5.25273 146.92 4.74022C147.229 4.22752 147.662 3.80104 148.18 3.50022C148.695 3.18452 149.286 3.01193 149.89 3.00022C150.32 2.97847 150.75 3.04755 151.152 3.20296C151.554 3.35836 151.919 3.59661 152.223 3.90222C152.526 4.20783 152.762 4.57394 152.915 4.97675C153.068 5.37956 153.134 5.81005 153.11 6.24022C153.117 6.47095 153.104 6.70189 153.07 6.93022ZM148.43 5.67022H151.21C151.184 5.39708 151.068 5.14034 150.88 4.94022C150.749 4.81077 150.592 4.70944 150.42 4.64239C150.248 4.57534 150.064 4.54398 149.88 4.55022C149.697 4.5377 149.513 4.5642 149.34 4.62798C149.168 4.69176 149.011 4.79136 148.88 4.92022C148.651 5.11335 148.493 5.37721 148.43 5.67022Z" fill="black"/>
<path d="M160.51 9.64022H158.63V6.05022C158.648 5.71854 158.545 5.39159 158.34 5.13022C158.236 5.01322 158.105 4.92239 157.959 4.86507C157.813 4.80774 157.656 4.78553 157.5 4.80022C157.34 4.79021 157.179 4.81648 157.03 4.87708C156.881 4.93767 156.748 5.03103 156.64 5.15022C156.438 5.40616 156.332 5.72445 156.34 6.05022V9.64022H154.45V3.17022H156.33V4.00022C156.543 3.60652 156.902 3.31211 157.33 3.18022C157.595 3.09226 157.871 3.03849 158.15 3.02022C158.48 2.99772 158.811 3.05398 159.115 3.18437C159.42 3.31476 159.689 3.51556 159.9 3.77022C160.307 4.29104 160.516 4.93958 160.49 5.60022L160.51 9.64022Z" fill="black"/>
<path d="M173.23 9.64022H170.93L170.27 8.88022C169.622 9.41523 168.819 9.72731 167.98 9.77022C167.197 9.7971 166.428 9.56512 165.79 9.11022C165.487 8.87766 165.246 8.5728 165.091 8.22345C164.935 7.8741 164.87 7.49138 164.9 7.11022C164.943 6.58474 165.122 6.07937 165.418 5.64311C165.714 5.20685 166.118 4.8545 166.59 4.62022L166.24 4.20022C165.798 3.74644 165.541 3.14365 165.52 2.51022C165.521 2.1803 165.591 1.85423 165.725 1.55288C165.86 1.25154 166.055 0.981557 166.3 0.760218C166.836 0.279532 167.53 0.0136719 168.25 0.0136719C168.97 0.0136719 169.664 0.279532 170.2 0.760218C170.456 0.969171 170.661 1.23347 170.799 1.53315C170.938 1.83284 171.006 2.1601 171 2.49022C171.002 2.93208 170.88 3.36567 170.649 3.74205C170.417 4.11843 170.085 4.4226 169.69 4.62022L169.12 4.96022L170.43 6.45022C170.766 6.01203 171.03 5.5224 171.21 5.00022H173C172.901 5.46144 172.736 5.90599 172.51 6.32022C172.244 6.82217 171.925 7.29476 171.56 7.73022L173.23 9.64022ZM168.1 8.08022C168.506 8.06187 168.899 7.92643 169.23 7.69022L167.63 5.85022C167.07 6.21022 166.8 6.58022 166.8 6.96022C166.784 7.13452 166.817 7.3099 166.897 7.46578C166.977 7.62166 167.099 7.75156 167.25 7.84022C167.506 7.99692 167.8 8.07997 168.1 8.08022ZM168.31 1.71022C168.184 1.70291 168.058 1.7213 167.939 1.76428C167.821 1.80726 167.712 1.87392 167.62 1.96022C167.534 2.03292 167.465 2.12317 167.416 2.22493C167.368 2.32669 167.342 2.4376 167.34 2.55022C167.365 2.83359 167.489 3.09913 167.69 3.30022L168.1 3.76022L168.79 3.34022C168.933 3.2656 169.051 3.15144 169.131 3.01136C169.211 2.87128 169.249 2.7112 169.24 2.55022C169.234 2.34269 169.148 2.14547 169 2.00022C168.816 1.81788 168.569 1.71392 168.31 1.71022Z" fill="black"/>
<path d="M179.67 9.78022C179.043 9.81151 178.422 9.63967 177.9 9.29022C177.703 9.14979 177.528 8.98134 177.38 8.79022C177.127 8.51438 176.973 8.16288 176.94 7.79022L178.61 7.44022C178.63 7.67614 178.741 7.89496 178.92 8.05022C179.017 8.14353 179.131 8.21641 179.257 8.26452C179.382 8.31263 179.516 8.33497 179.65 8.33022C179.847 8.33842 180.042 8.27838 180.2 8.16022C180.259 8.11324 180.308 8.05413 180.342 7.98686C180.377 7.91959 180.396 7.84573 180.4 7.77022C180.4 7.49022 180.19 7.30022 179.78 7.21022L179 7.00022C177.76 6.73022 177.14 6.10022 177.14 5.12022C177.137 4.8337 177.198 4.5501 177.319 4.29045C177.44 4.03079 177.618 3.80172 177.84 3.62022C178.323 3.21224 178.938 2.99213 179.57 3.00022C179.969 2.97176 180.369 3.03645 180.739 3.18917C181.108 3.34189 181.438 3.57847 181.7 3.88022C181.944 4.16397 182.103 4.51042 182.16 4.88022L180.52 5.23022C180.483 5.01104 180.374 4.81048 180.21 4.66022C180.029 4.52407 179.807 4.45355 179.58 4.46022C179.396 4.45004 179.215 4.50689 179.07 4.62022C179.006 4.66279 178.954 4.72097 178.919 4.78922C178.884 4.85748 178.867 4.93355 178.87 5.01022C178.87 5.25022 179.04 5.41022 179.37 5.48022L180.27 5.67022C180.816 5.75115 181.325 5.99514 181.73 6.37022C181.896 6.53679 182.027 6.73509 182.114 6.9533C182.202 7.1715 182.245 7.40512 182.24 7.64022C182.242 7.9154 182.187 8.18799 182.078 8.44093C181.97 8.69387 181.811 8.92172 181.61 9.11022C181.347 9.34388 181.04 9.52333 180.707 9.63829C180.374 9.75325 180.022 9.80148 179.67 9.78022Z" fill="black"/>
<path d="M189.84 6.93022H185.16C185.183 7.11349 185.243 7.29023 185.336 7.44998C185.428 7.60973 185.552 7.74924 185.7 7.86022C185.999 8.09503 186.37 8.21875 186.75 8.21022C187.041 8.2051 187.325 8.11849 187.57 7.96022C187.823 7.83029 188.016 7.60839 188.11 7.34022L189.68 7.87022C189.481 8.45325 189.085 8.94849 188.56 9.27022C188.025 9.60949 187.403 9.78663 186.77 9.78022C186.154 9.78453 185.546 9.63684 185 9.35022C184.469 9.08359 184.025 8.67073 183.72 8.16022C183.395 7.63092 183.226 7.02116 183.23 6.40022C183.227 5.80106 183.39 5.21273 183.7 4.70022C184.02 4.18254 184.468 3.75562 185 3.46022C185.505 3.16818 186.077 3.00985 186.66 3.00022C187.09 2.97847 187.52 3.04755 187.922 3.20296C188.324 3.35836 188.689 3.59661 188.993 3.90222C189.296 4.20783 189.532 4.57394 189.685 4.97675C189.838 5.37956 189.904 5.81005 189.88 6.24022C189.887 6.47095 189.874 6.70189 189.84 6.93022ZM185.2 5.67022H188C187.974 5.39708 187.858 5.14034 187.67 4.94022C187.539 4.8098 187.383 4.70783 187.211 4.64072C187.039 4.5736 186.855 4.54279 186.67 4.55022C186.487 4.53896 186.303 4.56605 186.131 4.62976C185.959 4.69346 185.802 4.79239 185.67 4.92022C185.434 5.1103 185.268 5.37451 185.2 5.67022Z" fill="black"/>
<path d="M194.51 9.64022L193.28 7.74022L192 9.64022H189.91L192.23 6.39022L190 3.17022H192.13L193.29 5.00022L194.49 3.17022H196.57L194.29 6.34022L196.63 9.64022H194.51Z" fill="black"/>
<path d="M200.08 12.8302H198.08L199.64 9.00022L196.92 3.22022H199L200.61 6.92022L202.06 3.22022H204L200.08 12.8302Z" fill="black"/>
<path d="M129.28 20.8702C128.817 20.882 128.357 20.7993 127.927 20.6274C127.497 20.4555 127.107 20.1979 126.78 19.8702C126.45 19.5637 126.19 19.1898 126.018 18.774C125.845 18.3582 125.764 17.9101 125.78 17.4602C125.78 16.8591 125.94 16.2688 126.244 15.7503C126.549 15.2317 126.985 14.8037 127.51 14.5102C128.061 14.2161 128.676 14.0648 129.3 14.0702C130.008 14.0515 130.705 14.2466 131.3 14.6302C131.605 14.8049 131.87 15.0423 132.077 15.3267C132.284 15.6111 132.428 15.9361 132.5 16.2802L130.77 16.8002C130.687 16.52 130.515 16.2743 130.28 16.1002C129.971 15.8871 129.598 15.7858 129.224 15.813C128.849 15.8403 128.495 15.9945 128.22 16.2502C127.933 16.5783 127.775 16.9994 127.775 17.4352C127.775 17.8711 127.933 18.2921 128.22 18.6202C128.362 18.7749 128.535 18.897 128.728 18.9781C128.922 19.0593 129.13 19.0975 129.34 19.0902C129.672 19.0955 129.997 18.9977 130.27 18.8102C130.524 18.6331 130.716 18.3815 130.82 18.0902L132.55 18.6102C132.423 19.0724 132.183 19.4953 131.85 19.8402C131.522 20.1686 131.126 20.4212 130.69 20.5802C130.244 20.7683 129.764 20.8668 129.28 20.8702Z" fill="black"/>
<path d="M133.34 17.5102C133.333 16.8962 133.494 16.2919 133.806 15.7629C134.118 15.234 134.569 14.8008 135.11 14.5102C135.658 14.2185 136.269 14.0673 136.89 14.0702C137.508 14.0588 138.119 14.2106 138.66 14.5102C139.191 14.7902 139.635 15.2105 139.944 15.7254C140.252 16.2403 140.413 16.83 140.41 17.4302C140.422 18.0439 140.263 18.6489 139.953 19.1783C139.642 19.7077 139.191 20.1409 138.65 20.4302C138.1 20.716 137.49 20.8651 136.87 20.8651C136.25 20.8651 135.64 20.716 135.09 20.4302C134.569 20.1434 134.132 19.7265 133.82 19.2202C133.507 18.7046 133.341 18.1133 133.34 17.5102ZM135.74 16.3002C135.588 16.4578 135.469 16.6443 135.39 16.8487C135.311 17.053 135.273 17.2712 135.28 17.4902C135.274 17.7077 135.311 17.9243 135.39 18.127C135.469 18.3298 135.588 18.5145 135.74 18.6702C135.967 18.8967 136.256 19.0499 136.571 19.1099C136.886 19.1699 137.211 19.134 137.506 19.0069C137.8 18.8797 138.049 18.6672 138.221 18.3968C138.393 18.1264 138.48 17.8105 138.47 17.4902C138.478 17.2702 138.44 17.051 138.359 16.8462C138.278 16.6414 138.156 16.4556 138 16.3002C137.696 16.0051 137.289 15.8401 136.865 15.8401C136.441 15.8401 136.034 16.0051 135.73 16.3002H135.74Z" fill="black"/>
<path d="M148.87 15.8902C148.713 15.8813 148.556 15.9061 148.409 15.963C148.263 16.0199 148.13 16.1076 148.02 16.2202C147.811 16.4682 147.704 16.7863 147.72 17.1102V20.7302H145.84V17.1402C145.84 16.3002 145.49 15.8902 144.79 15.8902C144.631 15.8805 144.473 15.9049 144.324 15.9618C144.176 16.0187 144.041 16.1069 143.93 16.2202C143.717 16.4779 143.61 16.8066 143.63 17.1402V20.7302H141.75V14.2602H143.61V15.1102C143.793 14.7921 144.068 14.5373 144.4 14.3802C144.74 14.2154 145.112 14.1266 145.49 14.1202C145.868 14.0834 146.249 14.1585 146.585 14.3363C146.921 14.5141 147.198 14.7867 147.38 15.1202C147.656 14.7911 147.996 14.5222 148.38 14.3302C148.751 14.1634 149.154 14.0814 149.56 14.0902C149.879 14.0624 150.199 14.1115 150.495 14.2333C150.791 14.3551 151.053 14.5461 151.26 14.7902C151.659 15.3294 151.857 15.9907 151.82 16.6602V20.6602H149.94V17.1102C149.93 16.3002 149.58 15.8902 148.87 15.8902Z" fill="black"/>
<path d="M153.5 14.2602H155.38V15.0702C155.609 14.7596 155.912 14.5109 156.261 14.3468C156.61 14.1827 156.995 14.1082 157.38 14.1302C157.814 14.1197 158.245 14.211 158.637 14.3968C159.03 14.5826 159.373 14.8578 159.64 15.2002C160.17 15.845 160.457 16.6555 160.45 17.4902C160.462 18.3358 160.159 19.1555 159.6 19.7902C159.329 20.1305 158.983 20.404 158.59 20.5896C158.196 20.7751 157.765 20.8677 157.33 20.8602C156.966 20.8771 156.603 20.8091 156.27 20.6616C155.937 20.5141 155.642 20.2911 155.41 20.0102V23.9102H153.5V14.2602ZM155.81 16.2602C155.656 16.4164 155.535 16.6027 155.456 16.8074C155.377 17.0121 155.341 17.2309 155.35 17.4502C155.341 17.6681 155.377 17.8855 155.456 18.0887C155.535 18.2918 155.656 18.4763 155.81 18.6302C155.956 18.7821 156.132 18.9023 156.326 18.9831C156.52 19.064 156.729 19.1039 156.94 19.1002C157.152 19.104 157.363 19.0643 157.559 18.9835C157.755 18.9026 157.932 18.7824 158.08 18.6302C158.234 18.4763 158.355 18.2918 158.434 18.0887C158.514 17.8855 158.55 17.6681 158.54 17.4502C158.547 17.2312 158.51 17.013 158.431 16.8087C158.352 16.6043 158.232 16.4178 158.08 16.2602C157.931 16.1112 157.753 15.9943 157.557 15.9169C157.361 15.8395 157.151 15.8032 156.94 15.8102C156.728 15.8079 156.518 15.8503 156.323 15.9348C156.128 16.0192 155.953 16.1437 155.81 16.3002V16.2602Z" fill="black"/>
<path d="M163.58 20.8602C163.028 20.8699 162.491 20.6779 162.07 20.3202C161.866 20.1496 161.703 19.935 161.594 19.6925C161.485 19.4501 161.432 19.186 161.44 18.9202V18.8702C161.426 18.4779 161.548 18.0927 161.785 17.7795C162.022 17.4663 162.359 17.2441 162.74 17.1502C163.237 16.9717 163.762 16.8836 164.29 16.8902H164.91C165.25 16.8902 165.42 16.7402 165.42 16.4502C165.423 16.3382 165.399 16.227 165.351 16.1261C165.302 16.0252 165.23 15.9374 165.14 15.8702C164.928 15.7087 164.666 15.6273 164.4 15.6402C164.135 15.6366 163.876 15.7171 163.66 15.8702C163.447 16.0324 163.301 16.2673 163.25 16.5302L161.58 16.1502C161.644 15.7243 161.84 15.3291 162.14 15.0202C162.427 14.7059 162.788 14.4687 163.19 14.3302C163.607 14.1821 164.047 14.1076 164.49 14.1102C165.218 14.0675 165.935 14.3075 166.49 14.7802C166.755 15.0264 166.962 15.3279 167.096 15.6632C167.231 15.9985 167.291 16.3594 167.27 16.7202V19.7202C167.271 20.0542 167.287 20.3879 167.32 20.7202H165.56C165.545 20.4504 165.545 20.18 165.56 19.9102C165.339 20.2252 165.041 20.4781 164.694 20.6445C164.348 20.8109 163.964 20.8852 163.58 20.8602ZM164.13 19.4802C164.305 19.4867 164.479 19.4562 164.641 19.3907C164.803 19.3252 164.949 19.2262 165.07 19.1002C165.185 18.9868 165.275 18.8511 165.335 18.7015C165.395 18.5518 165.424 18.3915 165.42 18.2302V18.0702H164.29C164.061 18.0687 163.837 18.1386 163.65 18.2702C163.554 18.3233 163.474 18.4016 163.42 18.4969C163.365 18.5921 163.337 18.7005 163.34 18.8102C163.334 18.9037 163.35 18.9973 163.389 19.0828C163.427 19.1682 163.486 19.2429 163.56 19.3002C163.722 19.4264 163.925 19.4903 164.13 19.4802Z" fill="black"/>
<path d="M175 20.7302H173.11V17.1402C173.128 16.8085 173.025 16.4816 172.82 16.2202C172.591 16.0014 172.287 15.8793 171.97 15.8793C171.653 15.8793 171.349 16.0014 171.12 16.2202C170.918 16.4762 170.812 16.7944 170.82 17.1202V20.7102H169V14.2602H170.87V15.1102C171.082 14.7158 171.442 14.4211 171.87 14.2902C172.131 14.1976 172.404 14.1437 172.68 14.1302C173.009 14.1073 173.339 14.1624 173.644 14.291C173.948 14.4196 174.217 14.618 174.43 14.8702C174.839 15.3948 175.051 16.0457 175.03 16.7102L175 20.7302Z" fill="black"/>
<path d="M178.63 23.9102H176.63L178.19 20.0002L175.47 14.2202H177.55L179.17 17.9202L180.61 14.2202H182.56L178.63 23.9102Z" fill="black"/>
<path d="M15.54 7.37022L18.9 6.51022C18.3076 5.61876 17.5826 4.82293 16.75 4.15022L15.54 7.37022Z" fill="black"/>
<path d="M12.32 11.1502L15.19 3.46022C15.1954 3.44931 15.1981 3.43735 15.1981 3.42522C15.1981 3.41309 15.1954 3.40112 15.19 3.39022C13.6788 2.596 11.9973 2.18076 10.29 2.18022C9.85854 2.1819 9.42761 2.21197 9.00005 2.27022L12.26 11.1502" fill="black"/>
<path d="M20.88 12.0002C20.9204 10.83 20.7683 9.66116 20.43 8.54022C20.3985 8.39008 20.3171 8.25503 20.1991 8.15699C20.0811 8.05896 19.9334 8.00371 19.78 8.00022H19.64L15.29 9.00022C15.1847 9.01913 15.0861 9.06499 15.0037 9.13333C14.9213 9.20167 14.8581 9.29017 14.82 9.39022L11.82 16.4602C11.7696 16.5806 11.7559 16.7133 11.7808 16.8415C11.8057 16.9696 11.8681 17.0875 11.96 17.1802L15.13 20.4302C15.2305 20.5338 15.3621 20.6017 15.5048 20.6234C15.6475 20.645 15.7934 20.6193 15.92 20.5502C17.3774 19.6333 18.5903 18.3761 19.4543 16.8868C20.3183 15.3974 20.8076 13.7205 20.88 12.0002Z" fill="black"/>
<path d="M11.08 12.9202L6.90005 1.56022C6.89215 1.53998 6.87844 1.52253 6.86065 1.51007C6.84285 1.49762 6.82177 1.49071 6.80005 1.49022C4.34746 2.33727 2.28622 4.04667 1.00005 6.30022C0.986235 6.31908 0.978789 6.34184 0.978789 6.36522C0.978789 6.38859 0.986235 6.41136 1.00005 6.43022L10.15 15.1402C10.1594 15.1526 10.1714 15.1627 10.1853 15.1697C10.1992 15.1766 10.2145 15.1802 10.23 15.1802C10.2456 15.1802 10.2609 15.1766 10.2748 15.1697C10.2887 15.1627 10.3007 15.1526 10.31 15.1402L11.08 13.0002V12.9302" fill="black"/>
<path d="M8.43005 22.2102C10.3985 22.6276 12.4452 22.475 14.33 21.7702L0.490048 8.60022C0.0419683 10.0153 -0.104783 11.5086 0.0592454 12.9838C0.223273 14.459 0.694444 15.8836 1.44242 17.1657C2.19039 18.4478 3.19858 19.559 4.40207 20.4279C5.60556 21.2967 6.97767 21.9038 8.43005 22.2102Z" fill="black"/>
<path d="M35.82 11.4602H31.61V5.89022H35.82C36.1998 5.86745 36.5802 5.9226 36.9379 6.05226C37.2956 6.18193 37.6229 6.38337 37.8999 6.64422C38.1768 6.90506 38.3975 7.2198 38.5484 7.56907C38.6992 7.91834 38.777 8.29477 38.777 8.67522C38.777 9.05567 38.6992 9.4321 38.5484 9.78137C38.3975 10.1306 38.1768 10.4454 37.8999 10.7062C37.6229 10.9671 37.2956 11.1685 36.9379 11.2982C36.5802 11.4278 36.1998 11.483 35.82 11.4602ZM42.1101 20.7302L37.82 13.8302C39.0354 13.6476 40.1383 13.0167 40.9119 12.0618C41.6855 11.1068 42.0736 9.89697 42 8.67022C42 5.44022 39.73 3.18022 36.26 3.18022H28.53V20.7302H31.61V14.1802H34.6101L38.5 20.7302H42.1101Z" fill="black"/>
<path d="M50.48 3.18022H47.4001V20.7302H50.48V3.18022Z" fill="black"/>
<path d="M64.0001 21.0002C65.4106 21.019 66.8011 20.6644 68.0304 19.9725C69.2597 19.2805 70.2843 18.2758 71.0001 17.0602L68.3701 15.7102C67.9282 16.4841 67.2934 17.1303 66.5276 17.5859C65.7617 18.0415 64.891 18.2911 64.0001 18.3102C63.1853 18.3113 62.3789 18.1465 61.63 17.8257C60.8811 17.505 60.2053 17.0351 59.6439 16.4447C59.0825 15.8543 58.6472 15.1558 58.3646 14.3916C58.082 13.6275 57.958 12.8138 58 12.0002C57.9481 11.1809 58.0647 10.3597 58.3429 9.58726C58.6211 8.81486 59.0548 8.10777 59.6172 7.50973C60.1796 6.91169 60.8588 6.43543 61.6127 6.11042C62.3665 5.78541 63.1791 5.61857 64.0001 5.62022C64.8942 5.63346 65.77 5.87575 66.5438 6.32393C67.3177 6.77212 67.9636 7.41123 68.4201 8.18022L71.0501 6.83022C70.339 5.61041 69.3155 4.60228 68.085 3.90972C66.8546 3.21717 65.4618 2.86524 64.0501 2.89022C62.8333 2.83598 61.6183 3.0335 60.4814 3.47041C59.3444 3.90733 58.3099 4.57423 57.4426 5.42937C56.5752 6.28451 55.8937 7.30949 55.4408 8.44014C54.9878 9.57079 54.7731 10.7828 54.8101 12.0002C54.7887 13.2042 55.0133 14.3998 55.4701 15.5139C55.9269 16.628 56.6062 17.6372 57.4665 18.4797C58.3268 19.3222 59.3499 19.9803 60.4734 20.4137C61.5968 20.8471 62.7968 21.0467 64.0001 21.0002Z" fill="black"/>
<path d="M90.43 20.7302V3.18022H87.36V10.3602H78.22V3.18022H75.14V20.7302H78.22V13.0702H87.36V20.7302H90.43Z" fill="black"/>
<path d="M107.55 20.7302V18.0202H98.6V13.1502H107.36V10.4402H98.6V5.89022H107.55V3.18022H95.52V20.7302H107.55Z" fill="black"/>
<path d="M115.4 3.18022H116.06L116.78 4.34022L117.51 3.18022H118.15V5.93022H117.56V4.07022L116.8 5.28022L116 4.07022V5.93022H115.41L115.4 3.18022ZM113.4 3.73022H112.58V3.18022H114.85V3.73022H114V5.93022H113.37L113.4 3.73022Z" fill="black"/>
</g>
<defs>
<clipPath id="clip0_2975_10728">
<rect width="204.01" height="23.91" fill="white"/>
</clipPath>
</defs>
</svg>
