<?xml version="1.0" encoding="utf-8"?>
<!-- Generator: Adobe Illustrator 25.0.1, SVG Export Plug-In . SVG Version: 6.00 Build 0)  -->
<svg version="1.1" id="Layer_1" xmlns="http://www.w3.org/2000/svg" xmlns:xlink="http://www.w3.org/1999/xlink" x="0px" y="0px"
	 viewBox="0 0 96 96" style="enable-background:new 0 0 96 96;" xml:space="preserve">
<text transform="matrix(1 0 0 1 984 3024)" style="font-family:'MyriadPro-Regular'; font-size:12px;">&amp;-user</text>
<g>
	<path d="M50,51.1L32.3,2.6C21.5,6.4,12.5,13.8,6.8,23.4l38.2,37c1,1,2.7,0.6,3.2-0.7l1.7-4.3C50.5,54.1,50.5,52.5,50,51.1z"/>
	<path d="M88.8,31.5l-20.2,4.8c-1.6,0.4-2.9,1.5-3.5,3L54.3,66c-0.6,1.5-0.2,3.2,0.9,4.4l15.7,15.2C83.5,77.9,92,63.9,92,48
		C92,42.2,90.9,36.6,88.8,31.5z"/>
	<path d="M4.1,51.4c1.7,22,19.7,39.5,41.7,40.6c6.1,0.3,12-0.7,17.4-2.7L6.3,34.1C4.5,39.4,3.7,45.3,4.1,51.4z"/>
	<path d="M67.2,12.9C61.5,9.8,55,8,48,8c-1.7,0-3.4,0.1-5.1,0.4l10.6,29c0.6,1.7,3,1.8,3.7,0.1L67.2,12.9z"/>
	<path d="M73.9,17.6l-3.3,8.1c-0.4,0.9,0.4,1.9,1.4,1.6l8.8-2.1C78.9,22.4,76.6,19.8,73.9,17.6z"/>
</g>
</svg>
