<?xml version="1.0" standalone="no"?>
<!DOCTYPE svg PUBLIC "-//W3C//DTD SVG 20010904//EN"
        "http://www.w3.org/TR/2001/REC-SVG-20010904/DTD/svg10.dtd">
<svg version="1.0" xmlns="http://www.w3.org/2000/svg"
     width="700.000000pt" height="700.000000pt" viewBox="0 0 700.000000 700.000000"
     preserveAspectRatio="xMidYMid meet">
    <metadata>
        Created by potrace 1.14, written by Peter Selinger 2001-2017
    </metadata>
    <g transform="translate(0.000000,700.000000) scale(0.100000,-0.100000)"
       fill="#000000" stroke="none">
        <path d="M2170 6966 c-669 -257 -1196 -652 -1614 -1208 -93 -124 -246 -363
-246 -384 0 -18 3077 -2924 3096 -2924 8 0 21 15 28 32 33 78 256 686 256 697
0 22 -1393 3806 -1404 3813 -17 11 -24 10 -116 -26z"/>
        <path d="M3120 6758 c-58 -5 -109 -13 -114 -18 -7 -7 666 -1858 1056 -2907 11
-29 25 -53 32 -53 8 0 39 67 74 163 266 708 893 2395 895 2406 3 19 -47 47
-224 125 -308 136 -611 222 -964 272 -135 19 -605 27 -755 12z"/>
        <path d="M5387 5578 c-113 -293 -204 -534 -203 -535 2 -3 1119 279 1125 283 5
5 -101 150 -199 272 -102 127 -299 333 -416 434 -47 40 -89 74 -93 76 -4 1
-100 -237 -214 -530z"/>
        <path d="M5786 4639 c-789 -173 -788 -173 -833 -254 -12 -22 -243 -571 -514
-1220 -537 -1287 -523 -1250 -482 -1338 25 -51 1112 -1169 1160 -1192 91 -43
150 -31 288 61 293 195 618 504 840 799 314 418 536 907 640 1412 114 549 93
1152 -57 1668 -36 122 -71 174 -143 206 -79 36 -130 28 -899 -142z"/>
        <path d="M131 4506 c-92 -330 -125 -578 -125 -941 -1 -411 47 -727 165 -1091
265 -818 812 -1508 1544 -1948 421 -254 863 -407 1395 -483 158 -22 690 -26
840 -5 153 21 318 51 425 78 140 34 396 116 393 125 -4 11 -4592 4379 -4599
4379 -4 0 -21 -51 -38 -114z"/>
    </g>
</svg>
