<?xml version="1.0" standalone="no"?>
<!DOCTYPE svg PUBLIC "-//W3C//DTD SVG 20010904//EN"
        "http://www.w3.org/TR/2001/REC-SVG-20010904/DTD/svg10.dtd">
<svg version="1.0" xmlns="http://www.w3.org/2000/svg"
     width="700.000000pt" height="700.000000pt" viewBox="0 0 700.000000 700.000000"
     preserveAspectRatio="xMidYMid meet">
    <metadata>
        Created by potrace 1.14, written by Peter Selinger 2001-2017
    </metadata>
    <g transform="translate(0.000000,700.000000) scale(0.100000,-0.100000)"
       fill="#000000" stroke="none">
        <path d="M2285 6784 c-38 -13 -79 -28 -90 -33 -11 -5 -54 -24 -95 -42 -118
-50 -379 -187 -411 -215 -8 -8 -19 -14 -23 -14 -7 0 -200 -128 -236 -157 -8
-6 -51 -40 -95 -74 -218 -169 -450 -405 -622 -634 -64 -84 -200 -286 -209
-309 -3 -8 5 -24 19 -37 35 -35 528 -513 624 -605 44 -44 193 -187 330 -320
136 -133 273 -265 303 -294 30 -29 170 -164 310 -300 140 -136 289 -280 330
-320 41 -39 138 -133 215 -208 518 -504 659 -638 683 -649 15 -7 44 -12 65
-13 74 0 111 35 157 151 18 46 38 98 45 114 71 171 85 223 85 304 0 79 -2 87
-125 421 -54 146 -108 294 -120 330 -13 36 -46 126 -73 200 -28 74 -87 236
-132 360 -143 393 -241 662 -272 745 -16 44 -33 91 -38 105 -4 14 -40 113 -80
220 -39 107 -162 443 -272 745 -110 303 -201 551 -202 551 0 1 -32 -9 -71 -22z"/>
        <path d="M3378 6415 c-2 -1 -39 -5 -83 -8 -88 -6 -165 -17 -165 -24 0 -2 13
-38 29 -81 16 -42 43 -117 61 -167 17 -49 35 -99 40 -110 5 -11 28 -72 50
-135 23 -63 50 -137 60 -165 11 -27 34 -93 53 -145 34 -92 169 -462 229 -625
17 -44 34 -91 38 -105 5 -14 21 -61 38 -105 16 -44 62 -170 102 -280 40 -110
81 -212 91 -226 23 -32 76 -59 119 -59 38 0 89 25 110 54 19 27 37 71 379 916
62 151 116 284 121 295 5 11 30 72 55 135 26 63 53 131 61 150 23 53 74 179
115 282 l19 48 -63 32 c-34 18 -91 45 -127 61 -36 16 -83 37 -105 47 -63 28
-271 97 -375 124 -142 37 -302 65 -470 81 -65 7 -377 15 -382 10z"/>
        <path d="M5262 5407 c-67 -166 -122 -311 -122 -322 0 -50 67 -92 118 -74 13 5
37 11 53 14 17 3 96 22 177 41 81 20 154 37 162 39 8 2 66 15 128 30 l113 27
-17 26 c-48 75 -190 246 -283 341 -102 103 -188 181 -200 181 -3 0 -61 -136
-129 -303z"/>
        <path d="M6330 4669 c-63 -16 -124 -30 -135 -33 -11 -2 -77 -18 -147 -35 -69
-17 -138 -32 -153 -35 -15 -3 -41 -9 -58 -15 -18 -5 -86 -21 -152 -36 -66 -15
-138 -32 -160 -38 -22 -6 -49 -12 -60 -14 -11 -2 -63 -14 -116 -28 -53 -13
-107 -26 -120 -29 -13 -2 -64 -14 -114 -26 -258 -61 -306 -100 -405 -335 -12
-29 -88 -218 -122 -305 -17 -41 -36 -88 -43 -105 -12 -27 -125 -307 -362 -895
-40 -102 -78 -194 -83 -205 -5 -11 -21 -49 -35 -85 -14 -36 -30 -74 -35 -85
-63 -143 -85 -213 -85 -285 0 -61 5 -85 26 -130 15 -30 38 -66 52 -80 23 -24
430 -418 573 -556 39 -38 183 -177 319 -309 136 -132 250 -241 254 -243 11 -4
234 151 339 235 149 119 331 298 451 442 20 24 41 49 46 55 24 26 166 227 212
301 176 283 311 597 389 905 26 106 29 117 40 180 4 19 8 44 10 55 38 201 49
336 49 575 0 303 -26 511 -99 796 -22 87 -70 235 -116 362 -14 38 -12 38 -160
1z"/>
        <path d="M457 4504 c-7 -12 -65 -211 -70 -244 -3 -14 -12 -52 -20 -85 -9 -33
-23 -109 -32 -170 -10 -60 -19 -118 -21 -128 -25 -133 -25 -655 0 -783 2 -12
7 -45 11 -75 16 -130 76 -376 145 -589 45 -141 185 -435 285 -600 337 -558
868 -1021 1463 -1276 115 -50 304 -119 361 -134 20 -5 61 -16 91 -24 97 -28
308 -69 418 -82 26 -2 58 -7 72 -10 44 -10 552 -13 620 -4 36 4 94 11 130 15
36 4 68 9 71 10 3 2 28 7 55 10 77 10 253 52 376 90 177 54 188 58 188 65 0 4
-109 112 -241 241 -133 129 -281 272 -329 319 -49 47 -199 193 -335 325 -136
132 -288 280 -339 328 -98 95 -505 491 -666 647 -54 52 -207 201 -340 330
-134 129 -276 267 -315 305 -40 39 -198 192 -350 340 -153 149 -309 299 -345
335 -37 36 -173 167 -301 292 -129 124 -279 270 -334 323 -55 53 -132 128
-171 167 -39 38 -74 66 -77 62z"/>
    </g>
</svg>
