<?xml version="1.0" standalone="no"?>
<!DOCTYPE svg PUBLIC "-//W3C//DTD SVG 1.1//EN" "http://www.w3.org/Graphics/SVG/1.1/DTD/svg11.dtd" >
<svg xmlns="http://www.w3.org/2000/svg">
<metadata>
<json>
<![CDATA[
{
	"fontFamily": "hicons",
	"fontURL": "https://hicons.cosm.ws",
	"designer": "Cosimo Scarpa",
	"designerURL": "https://cosm.ws",
	"description": "Web Friendly Icons Set\nFont generated by IcoMoon.",
	"majorVersion": 0,
	"version": "Version 1.0",
	"fontId": "hicons",
	"psName": "hicons",
	"subFamily": "Regular",
	"fullName": "hicons"
}
]]>
</json>
</metadata>
<defs>
<font id="hicons" horiz-adv-x="1024">
<font-face units-per-em="1024" ascent="960" descent="-64" />
<missing-glyph horiz-adv-x="1024" />
<glyph unicode="&#x20;" horiz-adv-x="512" d="" />
<glyph unicode="&#xe900;" glyph-name="apple" data-tags="apple" d="M644.949 614.187l-0.682-0.19c9.326 3.008 19.274 4.633 29.601 4.633 9.051 0 17.811-1.248 25.438-3.419 18.987-5.205 41.472-17.536 66.347-43.52 55.765-58.155 56.704-151.211 19.627-249.301l-1.205-3.513c-17.97-46.113-42.383-89.003-71.243-126.365-28.928-37.461-58.325-63.573-82.091-75.947-20.608-10.752-40.405-10.453-54.443-6.4-4.864 1.408-8.448 3.115-10.752 4.48l-0.093 0.298c-5.917 16.461-21.665 28.232-40.163 28.232-17.205 0-32.031-10.183-38.89-25.117-4.395-2.517-11.733-5.589-21.419-7.979-22.528-5.504-48.384-4.821-68.437 5.419-24.363 12.459-54.315 38.613-83.755 76.032l0.836-1.103c-30.164 38.381-54.963 81.179-74.478 130.725-37.675 97.792-36.693 190.336 19.925 248.32 47.872 49.067 95.403 53.589 135.893 43.221 43.861-11.221 80.981-40.789 97.621-60.672l0.053-0.065c7.827-9.311 19.56-15.23 32.676-15.23 13.252 0 25.093 6.042 32.977 15.593 18.176 22.187 50.133 50.987 86.656 61.867zM562.261 117.12l0.005-0.008c0.166-0.221 0.363-0.418 0.592-0.59l-0.597 0.597zM522.795 40.747c9.088-5.248 19.2-9.472 29.739-12.544 12.903-3.775 27.725-5.946 43.054-5.946 27.312 0 53.014 6.893 75.461 19.034l-0.841-0.416c38.827 20.267 77.184 56.747 110.208 99.541 33.749 43.665 62.277 93.801 83.248 147.712l1.402 4.096c41.131 108.715 52.523 244.267-37.76 338.475-33.536 34.987-68.907 56.747-105.216 66.773-14.432 4.123-31.007 6.495-48.136 6.495-19.061 0-37.436-2.936-54.698-8.381l1.287 0.35c-38.912-11.605-71.765-34.048-96.384-56.235-27.733 22.613-65.109 44.672-107.989 55.68-67.584 17.28-147.2 6.4-218.197-66.304-91.947-94.208-80.341-229.888-38.443-338.645 22.815-57.965 51.839-108.034 87.158-152.918l-0.971 1.28c33.621-42.752 72.619-79.104 111.915-99.243 43.648-22.357 91.904-21.077 127.573-12.373 13.355 3.243 26.24 7.851 37.589 13.611zM513.365 704.64c-7.718 7.721-12.492 18.386-12.492 30.165s4.774 22.445 12.492 30.165l75.861 75.861c7.724 7.729 18.397 12.51 30.187 12.51 23.569 0 42.675-19.106 42.675-42.675 0-11.779-4.772-22.444-12.489-30.166l-75.861-75.861c-7.723-7.731-18.396-12.514-30.187-12.514s-22.464 4.782-30.186 12.513v0z" />
<glyph unicode="&#xe901;" glyph-name="banana" data-tags="banana" d="M459.733 96.171c28.163-9.747 60.621-15.376 94.393-15.376 164.266 0 297.429 133.164 297.429 297.429 0 88.53-38.679 168.026-100.059 222.511l-0.307 0.267c3.84-35.2 7.765-77.824 7.083-120.747-0.939-59.563-10.581-129.195-47.232-192.597-36.608-63.445-92.075-106.624-143.232-137.216-36.821-22.059-75.691-39.936-108.075-54.272zM379.648 57.685l0.725 0.555c-0.216-0.198-0.453-0.381-0.705-0.542l-0.021-0.012zM744.491 689.621s0-0.341-0.128-0.896c0.015 0.325 0.060 0.632 0.135 0.928l-0.007-0.032zM885.717 186.795c-67.397-115.195-190.511-191.345-331.412-191.345-70.45 0-136.453 19.037-193.146 52.248l1.806-0.978c-98.56 56.917-42.112 81.707 47.488 121.003 76.8 33.707 177.92 78.080 226.688 162.56s36.651 194.304 27.435 277.632c-10.752 97.28-17.493 158.549 81.067 101.632 115.195-67.397 191.345-190.511 191.345-331.412 0-70.45-19.037-136.453-52.248-193.146l0.978 1.806zM544.341 909.781c6.771 4.726 15.173 7.551 24.234 7.551 14.502 0 27.313-7.235 35.023-18.292l0.092-0.139 60.971-88.32c4.828-6.82 7.718-15.31 7.718-24.475 0-23.564-19.103-42.667-42.667-42.667-14.605 0-27.496 7.338-35.187 18.528l-0.094 0.144-60.971 88.32c-4.726 6.771-7.551 15.173-7.551 24.234 0 14.502 7.235 27.313 18.292 35.023l0.139 0.092z" />
<glyph unicode="&#xe902;" glyph-name="discount-dollar" data-tags="discount-dollar" d="M262.059 854.101c19.115 35.755 55.467 63.232 100.608 63.232 45.099 0 81.493-27.477 100.608-63.232 8.832-11.947 26.24-22.101 48.725-22.101s39.893 10.155 48.725 22.101c19.115 35.755 55.467 63.232 100.608 63.232 45.099 0 81.493-27.477 100.608-63.232 8.832-11.947 26.24-22.101 48.725-22.101 23.467 0 41.387 11.051 49.835 23.68 7.761 11.52 20.757 18.996 35.499 18.996 23.564 0 42.667-19.103 42.667-42.667 0-0.003 0-0.007 0-0.010v0.001-768c0-0.003 0-0.006 0-0.010 0-23.564-19.103-42.667-42.667-42.667-14.742 0-27.738 7.476-35.402 18.844l-0.096 0.152c-8.448 12.587-26.368 23.68-49.835 23.68-22.485 0-39.893-10.155-48.725-22.101-19.115-35.755-55.467-63.232-100.608-63.232-45.099 0-81.493 27.477-100.608 63.232-8.832 11.947-26.24 22.101-48.725 22.101s-39.893-10.155-48.725-22.101c-19.115-35.755-55.467-63.232-100.608-63.232-45.099 0-81.493 27.477-100.608 63.232-8.832 11.947-26.24 22.101-48.725 22.101-23.467 0-41.387-11.051-49.835-23.68-7.761-11.52-20.757-18.996-35.499-18.996-23.564 0-42.667 19.103-42.667 42.667 0 0.003 0 0.007 0 0.010v-0.001 768c0 0.003 0 0.006 0 0.010 0 23.564 19.103 42.667 42.667 42.667 14.742 0 27.738-7.476 35.402-18.844l0.096-0.152c8.448-12.587 26.368-23.68 49.835-23.68 22.485 0 39.893 10.155 48.725 22.101zM362.667 832c-8.32 0-18.944-5.291-25.856-19.115-0.899-1.791-1.778-3.285-2.742-4.718l0.097 0.153c-25.6-38.4-71.339-61.653-120.832-61.653-14.677 0-29.056 2.048-42.667 5.973v-609.28c13.611 3.925 27.989 5.973 42.667 5.973 49.493 0 95.189-23.296 120.832-61.653 0.981-1.451 1.877-2.987 2.645-4.565 6.912-13.824 17.493-19.115 25.856-19.115 8.32 0 18.944 5.291 25.856 19.115 0.768 1.579 1.707 3.115 2.645 4.565 25.6 38.4 71.339 61.653 120.832 61.653s95.189-23.296 120.832-61.653c0.981-1.451 1.835-2.987 2.645-4.565 6.912-13.824 17.493-19.115 25.856-19.115 8.32 0 18.944 5.291 25.856 19.115 0.768 1.579 1.707 3.115 2.645 4.565 25.6 38.4 71.339 61.653 120.832 61.653 14.677 0 29.056-2.048 42.667-5.973v609.28c-13.611-3.925-27.989-5.973-42.667-5.973-49.493 0-95.189 23.296-120.832 61.653-0.868 1.281-1.747 2.775-2.534 4.324l-0.111 0.241c-6.912 13.824-17.493 19.115-25.856 19.115-8.32 0-18.944-5.291-25.856-19.115-0.898-1.79-1.777-3.285-2.741-4.717l0.096 0.151c-25.6-38.4-71.339-61.653-120.832-61.653s-95.189 23.296-120.832 61.653c-0.867 1.28-1.746 2.774-2.533 4.323l-0.112 0.243c-6.912 13.824-17.493 19.115-25.856 19.115zM512 725.333c23.564 0 42.667-19.103 42.667-42.667v0-12.8h85.333c23.564 0 42.667-19.103 42.667-42.667s-19.103-42.667-42.667-42.667v0h-85.333v-93.867c71.424-1.792 128-60.757 128-132.267s-56.576-130.475-128-132.267c0-23.564-19.103-42.667-42.667-42.667s-42.667 19.103-42.667 42.667v0h-85.333c-23.564 0-42.667 19.103-42.667 42.667s19.103 42.667 42.667 42.667v0h85.333v93.867h-2.389c-72.405 0-125.611 62.379-125.611 132.267s53.205 132.267 125.611 132.267h2.389v12.8c0 23.564 19.103 42.667 42.667 42.667v0zM469.333 584.533h-2.389c-19.2 0-40.277-17.835-40.277-46.933s21.077-46.933 40.277-46.933h2.389v93.867zM554.667 405.205v-93.611c23.467 1.707 42.667 21.589 42.667 46.805 0 25.173-19.2 45.099-42.667 46.805z" />
<glyph unicode="&#xe903;" glyph-name="discount-empty" data-tags="discount-empty" d="M262.059 854.101c19.115 35.755 55.467 63.232 100.608 63.232 45.099 0 81.493-27.477 100.608-63.232 8.832-11.947 26.24-22.101 48.725-22.101s39.893 10.155 48.725 22.101c19.115 35.755 55.467 63.232 100.608 63.232 45.099 0 81.493-27.477 100.608-63.232 8.832-11.947 26.24-22.101 48.725-22.101 23.467 0 41.387 11.051 49.835 23.68 7.761 11.52 20.757 18.996 35.499 18.996 23.564 0 42.667-19.103 42.667-42.667 0-0.003 0-0.007 0-0.010v0.001-768c0-0.003 0-0.006 0-0.010 0-23.564-19.103-42.667-42.667-42.667-14.742 0-27.738 7.476-35.402 18.844l-0.096 0.152c-8.448 12.587-26.368 23.68-49.835 23.68-22.485 0-39.893-10.155-48.725-22.101-19.115-35.755-55.467-63.232-100.608-63.232-45.099 0-81.493 27.477-100.608 63.232-8.832 11.947-26.24 22.101-48.725 22.101s-39.893-10.155-48.725-22.101c-19.115-35.755-55.467-63.232-100.608-63.232-45.099 0-81.493 27.477-100.608 63.232-8.832 11.947-26.24 22.101-48.725 22.101-23.467 0-41.387-11.051-49.835-23.68-7.761-11.52-20.757-18.996-35.499-18.996-23.564 0-42.667 19.103-42.667 42.667 0 0.003 0 0.007 0 0.010v-0.001 768c0 0.003 0 0.006 0 0.010 0 23.564 19.103 42.667 42.667 42.667 14.742 0 27.738-7.476 35.402-18.844l0.096-0.152c8.448-12.587 26.368-23.68 49.835-23.68 22.485 0 39.893 10.155 48.725 22.101zM362.667 832c-8.32 0-18.944-5.291-25.856-19.115-0.899-1.791-1.778-3.285-2.742-4.718l0.097 0.153c-25.6-38.4-71.339-61.653-120.832-61.653-14.677 0-29.056 2.048-42.667 5.973v-609.28c13.611 3.925 27.989 5.973 42.667 5.973 49.493 0 95.189-23.296 120.832-61.653 0.981-1.451 1.877-2.987 2.645-4.565 6.912-13.824 17.493-19.115 25.856-19.115 8.32 0 18.944 5.291 25.856 19.115 0.768 1.579 1.707 3.115 2.645 4.565 25.6 38.4 71.339 61.653 120.832 61.653s95.189-23.296 120.832-61.653c0.981-1.451 1.835-2.987 2.645-4.565 6.912-13.824 17.493-19.115 25.856-19.115 8.32 0 18.944 5.291 25.856 19.115 0.768 1.579 1.707 3.115 2.645 4.565 25.6 38.4 71.339 61.653 120.832 61.653 14.677 0 29.056-2.048 42.667-5.973v609.28c-13.611-3.925-27.989-5.973-42.667-5.973-49.493 0-95.189 23.296-120.832 61.653-0.868 1.281-1.747 2.775-2.534 4.324l-0.111 0.241c-6.912 13.824-17.493 19.115-25.856 19.115-8.32 0-18.944-5.291-25.856-19.115-0.898-1.79-1.777-3.285-2.741-4.717l0.096 0.151c-25.6-38.4-71.339-61.653-120.832-61.653s-95.189 23.296-120.832 61.653c-0.867 1.28-1.746 2.774-2.533 4.323l-0.112 0.243c-6.912 13.824-17.493 19.115-25.856 19.115z" />
<glyph unicode="&#xe904;" glyph-name="discount-euro" data-tags="discount-euro" d="M262.059 854.101c19.115 35.755 55.467 63.232 100.608 63.232 45.099 0 81.493-27.477 100.608-63.232 8.832-11.947 26.24-22.101 48.725-22.101s39.893 10.155 48.725 22.101c19.115 35.755 55.467 63.232 100.608 63.232 45.099 0 81.493-27.477 100.608-63.232 8.832-11.947 26.24-22.101 48.725-22.101 23.467 0 41.387 11.051 49.835 23.68 7.761 11.52 20.757 18.996 35.499 18.996 23.564 0 42.667-19.103 42.667-42.667 0-0.003 0-0.007 0-0.010v0.001-768c0-0.003 0-0.006 0-0.010 0-23.564-19.103-42.667-42.667-42.667-14.742 0-27.738 7.476-35.402 18.844l-0.096 0.152c-8.448 12.587-26.368 23.68-49.835 23.68-22.485 0-39.893-10.155-48.725-22.101-19.115-35.755-55.467-63.232-100.608-63.232-45.099 0-81.493 27.477-100.608 63.232-8.832 11.947-26.24 22.101-48.725 22.101s-39.893-10.155-48.725-22.101c-19.115-35.755-55.467-63.232-100.608-63.232-45.099 0-81.493 27.477-100.608 63.232-8.832 11.947-26.24 22.101-48.725 22.101-23.467 0-41.387-11.051-49.835-23.68-7.761-11.52-20.757-18.996-35.499-18.996-23.564 0-42.667 19.103-42.667 42.667 0 0.003 0 0.007 0 0.010v-0.001 768c0 0.003 0 0.006 0 0.010 0 23.564 19.103 42.667 42.667 42.667 14.742 0 27.738-7.476 35.402-18.844l0.096-0.152c8.448-12.587 26.368-23.68 49.835-23.68 22.485 0 39.893 10.155 48.725 22.101zM362.667 832c-8.32 0-18.944-5.291-25.856-19.115-0.899-1.791-1.778-3.285-2.742-4.718l0.097 0.153c-25.6-38.4-71.339-61.653-120.832-61.653-14.677 0-29.056 2.048-42.667 5.973v-609.28c13.611 3.925 27.989 5.973 42.667 5.973 49.493 0 95.189-23.296 120.832-61.653 0.981-1.451 1.877-2.987 2.645-4.565 6.912-13.824 17.493-19.115 25.856-19.115 8.32 0 18.944 5.291 25.856 19.115 0.768 1.579 1.707 3.115 2.645 4.565 25.6 38.4 71.339 61.653 120.832 61.653s95.189-23.296 120.832-61.653c0.981-1.451 1.835-2.987 2.645-4.565 6.912-13.824 17.493-19.115 25.856-19.115 8.32 0 18.944 5.291 25.856 19.115 0.768 1.579 1.707 3.115 2.645 4.565 25.6 38.4 71.339 61.653 120.832 61.653 14.677 0 29.056-2.048 42.667-5.973v609.28c-13.611-3.925-27.989-5.973-42.667-5.973-49.493 0-95.189 23.296-120.832 61.653-0.868 1.281-1.747 2.775-2.534 4.324l-0.111 0.241c-6.912 13.824-17.493 19.115-25.856 19.115-8.32 0-18.944-5.291-25.856-19.115-0.898-1.79-1.777-3.285-2.741-4.717l0.096 0.151c-25.6-38.4-71.339-61.653-120.832-61.653s-95.189 23.296-120.832 61.653c-0.867 1.28-1.746 2.774-2.533 4.323l-0.112 0.243c-6.912 13.824-17.493 19.115-25.856 19.115zM367.403 528h-7.424c-23.505-0.078-42.53-19.15-42.53-42.666 0-21.666 16.149-39.56 37.067-42.302l0.216-0.023c0.128-7.381 0.597-14.677 1.323-21.845-21.867-2.019-38.856-20.274-38.856-42.496 0-23.564 19.103-42.667 42.667-42.667 0.040 0 0.081 0 0.121 0h20.431c42.493-85.976 129.578-144.065 230.231-144.065 22.743 0 44.792 2.966 65.784 8.531l-1.786-0.403c18.563 4.899 32.027 21.538 32.027 41.323 0 23.567-19.105 42.672-42.672 42.672-3.783 0-7.451-0.492-10.943-1.416l0.298 0.067c-12.777-3.422-27.447-5.387-42.575-5.387-51.344 0-97.4 22.639-128.731 58.478l-0.171 0.2h86.101c23.564 0 42.667 19.103 42.667 42.667s-19.103 42.667-42.667 42.667v0h-125.909c-1.036 6.22-1.756 13.579-1.998 21.058l-0.007 0.275h127.915c23.564 0 42.667 19.103 42.667 42.667s-19.103 42.667-42.667 42.667v0h-108.117c29.266 54.38 85.781 90.721 150.784 90.721 15.178 0 29.893-1.981 43.9-5.699l-1.191 0.269c3.195-0.857 6.863-1.349 10.645-1.349 23.567 0 42.672 19.105 42.672 42.672 0 19.784-13.464 36.424-31.729 41.256l-0.298 0.067c-19.123 5.109-41.079 8.043-63.719 8.043-112.85 0-208.673-72.897-242.95-174.172l-0.531-1.807z" />
<glyph unicode="&#xe905;" glyph-name="discount-percentage" data-tags="discount-percentage" d="M262.059 854.101c19.115 35.755 55.467 63.232 100.608 63.232 45.099 0 81.493-27.477 100.608-63.232 8.832-11.947 26.24-22.101 48.725-22.101s39.893 10.155 48.725 22.101c19.115 35.755 55.467 63.232 100.608 63.232 45.099 0 81.493-27.477 100.608-63.232 8.832-11.947 26.24-22.101 48.725-22.101 23.467 0 41.387 11.051 49.835 23.68 7.761 11.52 20.757 18.996 35.499 18.996 23.564 0 42.667-19.103 42.667-42.667 0-0.003 0-0.007 0-0.010v0.001-768c0-0.003 0-0.006 0-0.010 0-23.564-19.103-42.667-42.667-42.667-14.742 0-27.738 7.476-35.402 18.844l-0.096 0.152c-8.448 12.587-26.368 23.68-49.835 23.68-22.485 0-39.893-10.155-48.725-22.101-19.115-35.755-55.467-63.232-100.608-63.232-45.099 0-81.493 27.477-100.608 63.232-8.832 11.947-26.24 22.101-48.725 22.101s-39.893-10.155-48.725-22.101c-19.115-35.755-55.467-63.232-100.608-63.232-45.099 0-81.493 27.477-100.608 63.232-8.832 11.947-26.24 22.101-48.725 22.101-23.467 0-41.387-11.051-49.835-23.68-7.761-11.52-20.757-18.996-35.499-18.996-23.564 0-42.667 19.103-42.667 42.667 0 0.003 0 0.007 0 0.010v-0.001 768c0 0.003 0 0.006 0 0.010 0 23.564 19.103 42.667 42.667 42.667 14.742 0 27.738-7.476 35.402-18.844l0.096-0.152c8.448-12.587 26.368-23.68 49.835-23.68 22.485 0 39.893 10.155 48.725 22.101zM362.667 832c-8.32 0-18.944-5.291-25.856-19.115-0.899-1.791-1.778-3.285-2.742-4.718l0.097 0.153c-25.6-38.4-71.339-61.653-120.832-61.653-14.677 0-29.056 2.048-42.667 5.973v-609.28c13.611 3.925 27.989 5.973 42.667 5.973 49.493 0 95.189-23.296 120.832-61.653 0.981-1.451 1.877-2.987 2.645-4.565 6.912-13.824 17.493-19.115 25.856-19.115 8.32 0 18.944 5.291 25.856 19.115 0.768 1.579 1.707 3.115 2.645 4.565 25.6 38.4 71.339 61.653 120.832 61.653s95.189-23.296 120.832-61.653c0.981-1.451 1.835-2.987 2.645-4.565 6.912-13.824 17.493-19.115 25.856-19.115 8.32 0 18.944 5.291 25.856 19.115 0.768 1.579 1.707 3.115 2.645 4.565 25.6 38.4 71.339 61.653 120.832 61.653 14.677 0 29.056-2.048 42.667-5.973v609.28c-13.611-3.925-27.989-5.973-42.667-5.973-49.493 0-95.189 23.296-120.832 61.653-0.868 1.281-1.747 2.775-2.534 4.324l-0.111 0.241c-6.912 13.824-17.493 19.115-25.856 19.115-8.32 0-18.944-5.291-25.856-19.115-0.898-1.79-1.777-3.285-2.741-4.717l0.096 0.151c-25.6-38.4-71.339-61.653-120.832-61.653s-95.189 23.296-120.832 61.653c-0.867 1.28-1.746 2.774-2.533 4.323l-0.112 0.243c-6.912 13.824-17.493 19.115-25.856 19.115zM757.205 646.997c6.68-7.497 10.762-17.436 10.762-28.329 0-12.655-5.51-24.024-14.261-31.837l-0.042-0.037-384-341.333c-7.635-7.264-17.989-11.733-29.386-11.733-23.564 0-42.667 19.103-42.667 42.667 0 13.16 5.958 24.928 15.324 32.755l0.068 0.055 384 341.333c7.497 6.68 17.436 10.762 28.329 10.762 12.655 0 24.024-5.51 31.837-14.261l0.037-0.042zM362.667 576c-11.782 0-21.333-9.551-21.333-21.333s9.551-21.333 21.333-21.333v0c11.782 0 21.333 9.551 21.333 21.333s-9.551 21.333-21.333 21.333v0zM256 554.667c0 58.91 47.756 106.667 106.667 106.667s106.667-47.756 106.667-106.667v0c0-58.91-47.756-106.667-106.667-106.667s-106.667 47.756-106.667 106.667v0zM661.333 320c-11.782 0-21.333-9.551-21.333-21.333s9.551-21.333 21.333-21.333v0c11.782 0 21.333 9.551 21.333 21.333s-9.551 21.333-21.333 21.333v0zM554.667 298.667c0 58.91 47.756 106.667 106.667 106.667s106.667-47.756 106.667-106.667v0c0-58.91-47.756-106.667-106.667-106.667s-106.667 47.756-106.667 106.667v0z" />
<glyph unicode="&#xe906;" glyph-name="discount-pound" data-tags="discount-pound" d="M262.059 854.101c19.115 35.755 55.467 63.232 100.608 63.232 45.099 0 81.493-27.477 100.608-63.232 8.832-11.947 26.24-22.101 48.725-22.101s39.893 10.155 48.725 22.101c19.115 35.755 55.467 63.232 100.608 63.232 45.099 0 81.493-27.477 100.608-63.232 8.832-11.947 26.24-22.101 48.725-22.101 23.467 0 41.387 11.051 49.835 23.68 7.761 11.52 20.757 18.996 35.499 18.996 23.564 0 42.667-19.103 42.667-42.667 0-0.003 0-0.007 0-0.010v0.001-768c0-0.003 0-0.006 0-0.010 0-23.564-19.103-42.667-42.667-42.667-14.742 0-27.738 7.476-35.402 18.844l-0.096 0.152c-8.448 12.587-26.368 23.68-49.835 23.68-22.485 0-39.893-10.155-48.725-22.101-19.115-35.755-55.467-63.232-100.608-63.232-45.099 0-81.493 27.477-100.608 63.232-8.832 11.947-26.24 22.101-48.725 22.101s-39.893-10.155-48.725-22.101c-19.115-35.755-55.467-63.232-100.608-63.232-45.099 0-81.493 27.477-100.608 63.232-8.832 11.947-26.24 22.101-48.725 22.101-23.467 0-41.387-11.051-49.835-23.68-7.761-11.52-20.757-18.996-35.499-18.996-23.564 0-42.667 19.103-42.667 42.667 0 0.003 0 0.007 0 0.010v-0.001 768c0 0.003 0 0.006 0 0.010 0 23.564 19.103 42.667 42.667 42.667 14.742 0 27.738-7.476 35.402-18.844l0.096-0.152c8.448-12.587 26.368-23.68 49.835-23.68 22.485 0 39.893 10.155 48.725 22.101zM362.667 832c-8.32 0-18.944-5.291-25.856-19.115-0.899-1.791-1.778-3.285-2.742-4.718l0.097 0.153c-25.6-38.4-71.339-61.653-120.832-61.653-14.677 0-29.056 2.048-42.667 5.973v-609.28c13.611 3.925 27.989 5.973 42.667 5.973 49.493 0 95.189-23.296 120.832-61.653 0.981-1.451 1.877-2.987 2.645-4.565 6.912-13.824 17.493-19.115 25.856-19.115 8.32 0 18.944 5.291 25.856 19.115 0.768 1.579 1.707 3.115 2.645 4.565 25.6 38.4 71.339 61.653 120.832 61.653s95.189-23.296 120.832-61.653c0.981-1.451 1.835-2.987 2.645-4.565 6.912-13.824 17.493-19.115 25.856-19.115 8.32 0 18.944 5.291 25.856 19.115 0.768 1.579 1.707 3.115 2.645 4.565 25.6 38.4 71.339 61.653 120.832 61.653 14.677 0 29.056-2.048 42.667-5.973v609.28c-13.611-3.925-27.989-5.973-42.667-5.973-49.493 0-95.189 23.296-120.832 61.653-0.868 1.281-1.747 2.775-2.534 4.324l-0.111 0.241c-6.912 13.824-17.493 19.115-25.856 19.115-8.32 0-18.944-5.291-25.856-19.115-0.898-1.79-1.777-3.285-2.741-4.717l0.096 0.151c-25.6-38.4-71.339-61.653-120.832-61.653s-95.189 23.296-120.832 61.653c-0.867 1.28-1.746 2.774-2.533 4.323l-0.112 0.243c-6.912 13.824-17.493 19.115-25.856 19.115zM507.136 622.507c-39.040 0-68.821-30.507-68.821-65.92 0-11.819 3.243-22.912 8.96-32.512 0.469-0.772 1.009-1.764 1.51-2.779l0.111-0.25c1.92-3.925 4.608-9.045 7.595-14.805 4.352-8.277 9.387-17.92 13.867-27.221h72.704c23.564 0 42.667-19.103 42.667-42.667s-19.103-42.667-42.667-42.667v0h-50.432v-1.835c0-33.835-10.325-64.683-25.899-91.221h130.603c23.564 0 42.667-19.103 42.667-42.667s-19.103-42.667-42.667-42.667v0h-228.821c-23.56 0.006-42.656 19.106-42.656 42.667 0 14.823 7.559 27.881 19.033 35.529l0.156 0.098c34.005 22.4 62.251 60.885 62.251 98.261v1.835h-23.296c-0.043 0-0.095 0-0.146 0-23.564 0-42.667 19.103-42.667 42.667 0 20.412 14.334 37.476 33.485 41.676l0.282 0.052c0.811-1.893 0.142-0.564-0.523 0.769l-1.483 3.285c-12.553 21.339-19.968 47.006-19.968 74.405 0 0.017 0 0.034 0 0.051v-0.003c0 84.608 70.059 151.296 154.155 151.296 67.371 0 125.355-42.539 146.091-102.869 1.468-4.134 2.316-8.901 2.316-13.867 0-23.571-19.108-42.678-42.678-42.678-18.605 0-34.429 11.905-40.271 28.513l-0.092 0.299c-9.872 26.611-35.043 45.231-64.562 45.231-0.282 0-0.564-0.002-0.846-0.005h0.043z" />
<glyph unicode="&#xe907;" glyph-name="discount-yuan" data-tags="discount-yuan" d="M262.059 854.101c19.115 35.755 55.467 63.232 100.608 63.232 45.099 0 81.493-27.477 100.608-63.232 8.832-11.947 26.24-22.101 48.725-22.101s39.893 10.155 48.725 22.101c19.115 35.755 55.467 63.232 100.608 63.232 45.099 0 81.493-27.477 100.608-63.232 8.832-11.947 26.24-22.101 48.725-22.101 23.467 0 41.387 11.051 49.835 23.68 7.761 11.52 20.757 18.996 35.499 18.996 23.564 0 42.667-19.103 42.667-42.667 0-0.003 0-0.007 0-0.010v0.001-768c0-0.003 0-0.006 0-0.010 0-23.564-19.103-42.667-42.667-42.667-14.742 0-27.738 7.476-35.402 18.844l-0.096 0.152c-8.448 12.587-26.368 23.68-49.835 23.68-22.485 0-39.893-10.155-48.725-22.101-19.115-35.755-55.467-63.232-100.608-63.232-45.099 0-81.493 27.477-100.608 63.232-8.832 11.947-26.24 22.101-48.725 22.101s-39.893-10.155-48.725-22.101c-19.115-35.755-55.467-63.232-100.608-63.232-45.099 0-81.493 27.477-100.608 63.232-8.832 11.947-26.24 22.101-48.725 22.101-23.467 0-41.387-11.051-49.835-23.68-7.761-11.52-20.757-18.996-35.499-18.996-23.564 0-42.667 19.103-42.667 42.667 0 0.003 0 0.007 0 0.010v-0.001 768c0 0.003 0 0.006 0 0.010 0 23.564 19.103 42.667 42.667 42.667 14.742 0 27.738-7.476 35.402-18.844l0.096-0.152c8.448-12.587 26.368-23.68 49.835-23.68 22.485 0 39.893 10.155 48.725 22.101zM362.667 832c-8.32 0-18.944-5.291-25.856-19.115-0.899-1.791-1.778-3.285-2.742-4.718l0.097 0.153c-25.6-38.4-71.339-61.653-120.832-61.653-14.677 0-29.056 2.048-42.667 5.973v-609.28c13.611 3.925 27.989 5.973 42.667 5.973 49.493 0 95.189-23.296 120.832-61.653 0.981-1.451 1.877-2.987 2.645-4.565 6.912-13.824 17.493-19.115 25.856-19.115 8.32 0 18.944 5.291 25.856 19.115 0.768 1.579 1.707 3.115 2.645 4.565 25.6 38.4 71.339 61.653 120.832 61.653s95.189-23.296 120.832-61.653c0.981-1.451 1.835-2.987 2.645-4.565 6.912-13.824 17.493-19.115 25.856-19.115 8.32 0 18.944 5.291 25.856 19.115 0.768 1.579 1.707 3.115 2.645 4.565 25.6 38.4 71.339 61.653 120.832 61.653 14.677 0 29.056-2.048 42.667-5.973v609.28c-13.611-3.925-27.989-5.973-42.667-5.973-49.493 0-95.189 23.296-120.832 61.653-0.868 1.281-1.747 2.775-2.534 4.324l-0.111 0.241c-6.912 13.824-17.493 19.115-25.856 19.115-8.32 0-18.944-5.291-25.856-19.115-0.898-1.79-1.777-3.285-2.741-4.717l0.096 0.151c-25.6-38.4-71.339-61.653-120.832-61.653s-95.189 23.296-120.832 61.653c-0.867 1.28-1.746 2.774-2.533 4.323l-0.112 0.243c-6.912 13.824-17.493 19.115-25.856 19.115zM670.891 693.632c10.819-6.846 17.898-18.748 17.898-32.304 0-7.476-2.153-14.449-5.873-20.333l0.092 0.157-120.747-193.152h50.347c21.043 0 38.101-17.059 38.101-38.101s-17.059-38.101-38.101-38.101h-57.173v-3.797h57.173c21.043 0 38.101-17.059 38.101-38.101s-17.059-38.101-38.101-38.101h-57.173v-57.131c0-21.043-17.059-38.101-38.101-38.101s-38.101 17.059-38.101 38.101v0 57.173h-57.131c-20.487 0.707-36.826 17.486-36.826 38.080s16.339 37.373 36.762 38.078l0.065 0.002h57.173v3.84h-57.173c-20.487 0.707-36.826 17.486-36.826 38.080s16.339 37.373 36.762 38.078l0.065 0.002h50.347l-120.747 193.152c-3.629 5.729-5.783 12.703-5.783 20.181 0 21.044 17.059 38.103 38.103 38.103 13.566 0 25.476-7.089 32.228-17.766l0.092-0.157 100.992-161.621 101.035 161.621c6.846 10.819 18.748 17.898 32.304 17.898 7.476 0 14.449-2.153 20.333-5.873l-0.157 0.092z" />
<glyph unicode="&#xe908;" glyph-name="leaf" data-tags="leaf" d="M637.141 698.069c41.941 9.429 80.896 13.184 111.787 11.392 33.024-1.92 48.299-9.685 52.907-14.293 4.224-4.267 12.331-20.309 14.293-56.149 1.877-33.237-1.92-75.051-11.435-119.851-19.243-90.88-59.435-183.040-109.483-232.96-53.077-52.949-110.293-80.768-164.053-84.608-43.989-3.157-89.301 9.387-132.437 43.093l77.611 75.307h139.904c23.564 0 42.667 19.103 42.667 42.667s-19.103 42.667-42.667 42.667h-51.925l21.973 21.333h93.952c23.564 0 42.667 19.103 42.667 42.667s-19.103 42.667-42.667 42.667h-5.973l78.389 76.042c7.989 7.756 12.952 18.611 12.952 30.625 0 23.572-19.109 42.68-42.68 42.68-11.558 0-22.043-4.594-29.717-12.046l-98.304-95.36v0.725c0 23.564-19.103 42.667-42.667 42.667s-42.667-19.103-42.667-42.667v-83.541l-42.667-41.387v60.928c0 23.564-19.103 42.667-42.667 42.667s-42.667-19.103-42.667-42.667v-143.701l-40.448-39.253 0.399-0.675c-16.078 25.411-25.385 55.531-25.385 87.825 0 10.52 0.988 20.81 2.714 29.757 9.131 53.632 42.112 110.763 95.275 163.84 50.645 50.517 138.112 90.496 223.019 109.611zM337.067 184.875c60.587-50.773 129.707-73.472 200.192-68.395 79.019 5.675 154.496 45.739 218.197 109.312 66.731 66.56 111.829 177.109 132.693 275.712 10.667 50.048 15.573 99.669 13.227 142.251-2.261 39.979-11.435 84.011-39.211 111.787-27.392 27.392-69.547 36.821-108.245 39.125-40.875 2.389-88.021-2.688-135.509-13.355-93.867-21.077-198.4-66.432-264.533-132.437-61.312-61.184-106.155-133.547-119.168-209.92-11.221-65.92 1.877-132.096 44.117-191.659l-95.189-92.416c-7.862-7.744-12.733-18.505-12.733-30.405 0-23.564 19.103-42.667 42.667-42.667 11.432 0 21.815 4.496 29.475 11.817l-0.016-0.015 94.037 91.264z" />
<glyph unicode="&#xe909;" glyph-name="link-2" data-tags="link-2" d="M554.795 781.995c30.883 30.874 73.542 49.969 120.661 49.969s89.779-19.095 120.662-49.969l19.498-19.498c30.886-30.885 49.99-73.553 49.99-120.683s-19.104-89.798-49.99-120.683l-124.16-124.16c-7.722-7.716-18.386-12.489-30.165-12.489-23.569 0-42.675 19.106-42.675 42.675 0 11.79 4.781 22.463 12.51 30.186l124.16 124.16c15.437 15.441 24.984 36.771 24.984 60.331s-9.548 44.889-24.985 60.331l-19.498 19.498c-15.441 15.437-36.771 24.984-60.331 24.984s-44.889-9.548-60.331-24.985l-115.626-115.626c-7.724-7.729-18.397-12.51-30.187-12.51-23.569 0-42.675 19.106-42.675 42.675 0 11.779 4.772 22.444 12.489 30.166l115.626 115.626zM648.832 602.496c7.718-7.721 12.492-18.386 12.492-30.165s-4.774-22.445-12.492-30.165l-192-192c-7.724-7.729-18.397-12.51-30.187-12.51-23.569 0-42.675 19.106-42.675 42.675 0 11.779 4.772 22.444 12.489 30.166l192 192c7.723 7.731 18.396 12.514 30.187 12.514s22.464-4.782 30.186-12.513v0zM392.832 552.021c7.718-7.721 12.492-18.386 12.492-30.165s-4.774-22.445-12.492-30.165l-124.16-124.16c-15.45-15.444-25.006-36.782-25.006-60.352s9.556-44.908 25.005-60.352l19.499-19.499c15.441-15.437 36.771-24.984 60.331-24.984s44.889 9.548 60.331 24.985l115.626 115.626c7.724 7.729 18.397 12.51 30.187 12.51 23.569 0 42.675-19.106 42.675-42.675 0-11.779-4.772-22.444-12.489-30.166l-115.626-115.626c-30.885-30.886-73.553-49.99-120.683-49.99s-89.798 19.104-120.683 49.99l-19.499 19.499c-30.886 30.885-49.99 73.553-49.99 120.683s19.104 89.798 49.99 120.683l124.16 124.16c7.721 7.718 18.386 12.492 30.165 12.492s22.445-4.774 30.165-12.492v0z" />
<glyph unicode="&#xe90a;" glyph-name="link" data-tags="link" d="M532.139 751.659c30.885 30.886 73.553 49.99 120.683 49.99s89.798-19.104 120.683-49.99l19.499-19.499c30.886-30.885 49.99-73.553 49.99-120.683s-19.104-89.798-49.99-120.683l-141.397-141.397c-30.885-30.886-73.553-49.99-120.683-49.99s-89.798 19.104-120.683 49.99v0l-9.728 9.771c-8.036 7.769-13.026 18.647-13.026 30.69 0 23.564 19.103 42.667 42.667 42.667 12.043 0 22.92-4.989 30.678-13.014l9.783-9.783c15.441-15.437 36.771-24.984 60.331-24.984s44.889 9.548 60.331 24.985l141.397 141.397c15.45 15.444 25.006 36.782 25.006 60.352s-9.556 44.908-25.005 60.352l-19.499 19.499c-15.441 15.437-36.771 24.984-60.331 24.984s-44.889-9.548-60.331-24.985l-31.402-31.402c-7.769-8.036-18.647-13.026-30.69-13.026-23.564 0-42.667 19.103-42.667 42.667 0 12.043 4.989 22.92 13.014 30.678l0.012 0.012 31.36 31.403zM530.773 508.928c-15.441 15.437-36.771 24.984-60.331 24.984s-44.889-9.548-60.331-24.985l-141.397-141.397c-15.45-15.444-25.006-36.782-25.006-60.352s9.556-44.908 25.005-60.352l19.499-19.499c15.441-15.437 36.771-24.984 60.331-24.984s44.889 9.548 60.331 24.985l31.402 31.402c7.769 8.036 18.647 13.026 30.69 13.026 23.564 0 42.667-19.103 42.667-42.667 0-12.043-4.989-22.92-13.014-30.678l-31.415-31.415c-30.883-30.874-73.542-49.969-120.661-49.969s-89.779 19.095-120.662 49.969l0.001-0.001-19.541 19.499c-30.886 30.885-49.99 73.553-49.99 120.683s19.104 89.798 49.99 120.683l141.44 141.397c30.883 30.874 73.542 49.969 120.661 49.969s89.779-19.095 120.662-49.969l-0.001 0.001 9.771-9.728c7.729-7.724 12.51-18.397 12.51-30.187 0-23.569-19.106-42.675-42.675-42.675-11.779 0-22.444 4.772-30.166 12.489v0l-9.771 9.813z" />
<glyph unicode="&#xe90b;" glyph-name="login" data-tags="login" d="M581.973 608.768c9.405-7.881 15.343-19.632 15.343-32.77 0-10.418-3.734-19.963-9.936-27.372l0.054 0.067-48.341-58.027h186.24c23.564 0 42.667-19.103 42.667-42.667s-19.103-42.667-42.667-42.667v0h-186.24l48.341-58.027c6.555-7.463 10.554-17.311 10.554-28.093 0-23.564-19.103-42.667-42.667-42.667-13.502 0-25.539 6.272-33.358 16.061l-0.066 0.086-106.667 128c-6.149 7.342-9.883 16.888-9.883 27.307s3.734 19.965 9.937 27.373l-0.054-0.067 106.667 128c7.881 9.405 19.632 15.343 32.77 15.343 10.418 0 19.963-3.734 27.372-9.936l-0.067 0.054zM213.333 618.667c0 117.821 95.513 213.333 213.333 213.333v0h128c51.029 0 103.253-8.96 144.043-35.627 43.52-28.501 69.291-74.24 69.291-135.040 0-23.564-19.103-42.667-42.667-42.667s-42.667 19.103-42.667 42.667v0c0 33.493-12.459 51.712-30.72 63.659-20.949 13.739-54.016 21.675-97.28 21.675h-128c-70.692 0-128-57.308-128-128v0-341.333c0-70.692 57.308-128 128-128v0h128c43.221 0 76.288 7.936 97.28 21.675 18.261 11.947 30.72 30.165 30.72 63.659 0 23.564 19.103 42.667 42.667 42.667s42.667-19.103 42.667-42.667v0c0-60.757-25.771-106.539-69.291-135.040-40.747-26.709-93.013-35.627-144.043-35.627h-128c-117.821 0-213.333 95.513-213.333 213.333v0 341.333z" />
<glyph unicode="&#xe90c;" glyph-name="logout" data-tags="logout" d="M591.36 608.768c7.342 6.148 16.887 9.881 27.305 9.881 13.138 0 24.889-5.938 32.715-15.276l0.054-0.066 106.667-128c6.149-7.342 9.883-16.888 9.883-27.307s-3.734-19.965-9.937-27.373l0.054 0.067-106.667-128c-7.884-9.875-19.921-16.147-33.424-16.147-23.564 0-42.667 19.103-42.667 42.667 0 10.782 3.999 20.63 10.596 28.141l-0.041-0.048 48.341 58.027h-186.24c-23.564 0-42.667 19.103-42.667 42.667s19.103 42.667 42.667 42.667v0h186.24l-48.341 58.027c-6.148 7.342-9.881 16.887-9.881 27.305 0 13.138 5.938 24.889 15.276 32.715l0.066 0.054zM213.333 618.667c0 117.821 95.513 213.333 213.333 213.333v0h128c51.029 0 103.253-8.96 144.043-35.627 43.52-28.501 69.291-74.24 69.291-135.040 0-23.564-19.103-42.667-42.667-42.667s-42.667 19.103-42.667 42.667v0c0 33.493-12.459 51.712-30.72 63.659-20.949 13.739-54.016 21.675-97.28 21.675h-128c-70.692 0-128-57.308-128-128v0-341.333c0-70.692 57.308-128 128-128v0h128c43.221 0 76.288 7.936 97.28 21.675 18.261 11.947 30.72 30.165 30.72 63.659 0 23.564 19.103 42.667 42.667 42.667s42.667-19.103 42.667-42.667v0c0-60.757-25.771-106.539-69.291-135.040-40.747-26.709-93.013-35.627-144.043-35.627h-128c-117.821 0-213.333 95.513-213.333 213.333v0 341.333z" />
<glyph unicode="&#xe90d;" glyph-name="orange" data-tags="orange" d="M512 149.333v0c-117.821 0-213.333 95.513-213.333 213.333s95.513 213.333 213.333 213.333v0c117.821 0 213.333-95.513 213.333-213.333s-95.513-213.333-213.333-213.333zM512 64c164.949 0 298.667 133.718 298.667 298.667s-133.718 298.667-298.667 298.667v0c-164.949 0-298.667-133.718-298.667-298.667s133.718-298.667 298.667-298.667v0zM524.501 714.795v0c7.721-7.719 18.386-12.492 30.165-12.492s22.445 4.774 30.165 12.492l75.904 75.861c7.725 7.725 12.504 18.398 12.504 30.187 0 23.577-19.113 42.69-42.69 42.69-11.789 0-22.461-4.778-30.187-12.504l-75.861-75.904c-7.719-7.721-12.492-18.386-12.492-30.165s4.774-22.445 12.492-30.165z" />
<glyph unicode="&#xe90e;" glyph-name="paper-bag" data-tags="paper-bag" d="M192 833.195c0.666 23.045 19.506 41.472 42.65 41.472 0.006 0 0.012 0 0.018 0h144.596c0.001 0 0.003 0 0.005 0 21.775 0 39.74-16.311 42.343-37.382l0.021-0.207 28.672-239.744h123.392l28.672 239.744c2.624 21.278 20.589 37.589 42.363 37.589 0.002 0 0.003 0 0.005 0h144.597c0.005 0 0.011 0 0.017 0 23.144 0 41.984-18.427 42.649-41.411l0.001-0.061 21.333-768c0.011-0.356 0.017-0.775 0.017-1.195 0-23.564-19.103-42.667-42.667-42.667-0.006 0-0.012 0-0.018 0h-597.332c-0.005 0-0.011 0-0.017 0-23.564 0-42.667 19.103-42.667 42.667 0 0.42 0.006 0.839 0.018 1.256l-0.001-0.061 21.333 768zM276.181 789.333l-18.987-682.667h509.611l-18.987 682.667h-65.152l-28.715-239.744c-2.624-21.278-20.589-37.589-42.363-37.589-0.002 0-0.003 0-0.005 0h-199.125c-0.001 0-0.003 0-0.005 0-21.775 0-39.74 16.311-42.343 37.382l-0.021 0.207-28.757 239.744h-65.152z" />
<glyph unicode="&#xe90f;" glyph-name="piano" data-tags="piano" d="M85.333 661.333c0 117.821 95.513 213.333 213.333 213.333v0h426.667c117.821 0 213.333-95.513 213.333-213.333v0-426.667c0-117.821-95.513-213.333-213.333-213.333v0h-426.667c-117.821 0-213.333 95.513-213.333 213.333v0 426.667zM405.333 106.667h213.333v128h-21.333c-23.564 0-42.667 19.103-42.667 42.667v0 341.333h-85.333v-341.333c0-23.564-19.103-42.667-42.667-42.667v0h-21.333v-128zM320 234.667v-128h-21.333c-70.692 0-128 57.308-128 128v0 384h85.333v-341.333c0-23.564 19.103-42.667 42.667-42.667v0h21.333zM341.333 320v298.667h42.667v-298.667h-42.667zM426.752 704h-248.789c18.116 50.14 65.3 85.331 120.704 85.333h426.667c55.723 0 103.168-35.627 120.747-85.333h-419.328zM640 618.667v-298.667h42.667v298.667h-42.667zM768 618.667v-341.333c0-23.564-19.103-42.667-42.667-42.667v0h-21.333v-128h21.333c70.692 0 128 57.308 128 128v0 384h-85.333z" />
<glyph unicode="&#xe910;" glyph-name="user-add" data-tags="user-add" d="M384 746.667c-47.128 0-85.333-38.205-85.333-85.333s38.205-85.333 85.333-85.333v0c47.128 0 85.333 38.205 85.333 85.333s-38.205 85.333-85.333 85.333v0zM213.333 661.333c0 94.257 76.41 170.667 170.667 170.667s170.667-76.41 170.667-170.667v0c0-94.257-76.41-170.667-170.667-170.667s-170.667 76.41-170.667 170.667v0zM630.4 565.333c0 23.564 19.103 42.667 42.667 42.667v0h211.2c23.564 0 42.667-19.103 42.667-42.667s-19.103-42.667-42.667-42.667v0h-211.2c-23.564 0-42.667 19.103-42.667 42.667v0zM85.333 234.667c0 117.821 95.513 213.333 213.333 213.333v0h170.667c117.821 0 213.333-95.513 213.333-213.333v0c0-94.257-76.41-170.667-170.667-170.667v0h-256c-94.257 0-170.667 76.41-170.667 170.667v0zM298.667 362.667c-70.692 0-128-57.308-128-128v0c0-47.128 38.205-85.333 85.333-85.333v0h256c47.128 0 85.333 38.205 85.333 85.333v0c0 70.692-57.308 128-128 128v0h-170.667zM778.667 670.933v-211.2z" />
<glyph unicode="&#xe911;" glyph-name="user-checked" data-tags="user-checked" d="M384 746.667c-47.128 0-85.333-38.205-85.333-85.333s38.205-85.333 85.333-85.333v0c47.128 0 85.333 38.205 85.333 85.333s-38.205 85.333-85.333 85.333v0zM213.333 661.333c0 94.257 76.41 170.667 170.667 170.667s170.667-76.41 170.667-170.667v0c0-94.257-76.41-170.667-170.667-170.667s-170.667 76.41-170.667 170.667v0zM926.165 648.832c7.718-7.721 12.492-18.386 12.492-30.165s-4.774-22.445-12.492-30.165l-128-128c-7.721-7.718-18.386-12.492-30.165-12.492s-22.445 4.774-30.165 12.492l-64 64c-7.41 7.665-11.977 18.12-11.977 29.641 0 23.564 19.103 42.667 42.667 42.667 11.521 0 21.976-4.567 29.653-11.989l33.823-33.823 97.835 97.835c7.721 7.718 18.386 12.492 30.165 12.492s22.445-4.774 30.165-12.492v0zM85.333 234.667c0 117.821 95.513 213.333 213.333 213.333v0h170.667c117.821 0 213.333-95.513 213.333-213.333v0c0-94.257-76.41-170.667-170.667-170.667v0h-256c-94.257 0-170.667 76.41-170.667 170.667v0zM298.667 362.667c-70.692 0-128-57.308-128-128v0c0-47.128 38.205-85.333 85.333-85.333v0h256c47.128 0 85.333 38.205 85.333 85.333v0c0 70.692-57.308 128-128 128v0h-170.667z" />
<glyph unicode="&#xe912;" glyph-name="user-in" data-tags="user-in" d="M384 746.667c-47.128 0-85.333-38.205-85.333-85.333s38.205-85.333 85.333-85.333v0c47.128 0 85.333 38.205 85.333 85.333s-38.205 85.333-85.333 85.333v0zM213.333 661.333c0 94.257 76.41 170.667 170.667 170.667s170.667-76.41 170.667-170.667v0c0-94.257-76.41-170.667-170.667-170.667s-170.667 76.41-170.667 170.667v0zM85.333 234.667c0 117.821 95.513 213.333 213.333 213.333v0h170.667c117.821 0 213.333-95.513 213.333-213.333v0c0-94.257-76.41-170.667-170.667-170.667v0h-256c-94.257 0-170.667 76.41-170.667 170.667v0zM298.667 362.667c-70.692 0-128-57.308-128-128v0c0-47.128 38.205-85.333 85.333-85.333v0h256c47.128 0 85.333 38.205 85.333 85.333v0c0 70.692-57.308 128-128 128v0h-170.667zM776.619 670.379c7.847-7.741 12.707-18.492 12.707-30.379 0-11.674-4.688-22.253-12.285-29.957l0.005 0.005-2.005-2.048h109.227c23.564 0 42.667-19.103 42.667-42.667s-19.103-42.667-42.667-42.667v0h-108.203l0.768-0.768c7.41-7.665 11.977-18.12 11.977-29.641 0-23.564-19.103-42.667-42.667-42.667-11.521 0-21.976 4.567-29.653 11.989l-73.588 73.588c-7.719 7.721-12.493 18.386-12.493 30.166 0 11.674 4.688 22.252 12.285 29.956l-0.005-0.005 73.6 74.667c7.741 7.847 18.492 12.707 30.379 12.707 11.674 0 22.253-4.688 29.957-12.285l-0.005 0.005z" />
<glyph unicode="&#xe913;" glyph-name="user-out" data-tags="user-out" d="M384 746.667c-47.128 0-85.333-38.205-85.333-85.333s38.205-85.333 85.333-85.333v0c47.128 0 85.333 38.205 85.333 85.333s-38.205 85.333-85.333 85.333v0zM213.333 661.333c0 94.257 76.41 170.667 170.667 170.667s170.667-76.41 170.667-170.667v0c0-94.257-76.41-170.667-170.667-170.667s-170.667 76.41-170.667 170.667v0zM780.715 670.379c7.699 7.592 18.278 12.28 29.952 12.28 11.886 0 22.637-4.86 30.374-12.702l0.005-0.005 73.6-74.667c7.604-7.701 12.301-18.288 12.301-29.973 0-11.791-4.783-22.464-12.514-30.187l-73.6-73.558c-7.665-7.41-18.12-11.977-29.641-11.977-23.564 0-42.667 19.103-42.667 42.667 0 11.521 4.567 21.976 11.989 29.653l0.756 0.756h-108.203c-23.564 0-42.667 19.103-42.667 42.667s19.103 42.667 42.667 42.667v0h109.227l-2.005 2.048c-7.592 7.699-12.28 18.278-12.28 29.952 0 11.886 4.86 22.637 12.702 30.374l0.005 0.005zM85.333 234.667c0 117.821 95.513 213.333 213.333 213.333v0h170.667c117.821 0 213.333-95.513 213.333-213.333v0c0-94.257-76.41-170.667-170.667-170.667v0h-256c-94.257 0-170.667 76.41-170.667 170.667v0zM298.667 362.667c-70.692 0-128-57.308-128-128v0c0-47.128 38.205-85.333 85.333-85.333v0h256c47.128 0 85.333 38.205 85.333 85.333v0c0 70.692-57.308 128-128 128v0h-170.667z" />
<glyph unicode="&#xe914;" glyph-name="user-remove" data-tags="user-remove" d="M384 746.667c-47.128 0-85.333-38.205-85.333-85.333s38.205-85.333 85.333-85.333v0c47.128 0 85.333 38.205 85.333 85.333s-38.205 85.333-85.333 85.333v0zM213.333 661.333c0 94.257 76.41 170.667 170.667 170.667s170.667-76.41 170.667-170.667v0c0-94.257-76.41-170.667-170.667-170.667s-170.667 76.41-170.667 170.667v0zM630.4 565.333c0 23.564 19.103 42.667 42.667 42.667v0h211.2c23.564 0 42.667-19.103 42.667-42.667s-19.103-42.667-42.667-42.667v0h-211.2c-23.564 0-42.667 19.103-42.667 42.667v0zM85.333 234.667c0 117.821 95.513 213.333 213.333 213.333v0h170.667c117.821 0 213.333-95.513 213.333-213.333v0c0-94.257-76.41-170.667-170.667-170.667v0h-256c-94.257 0-170.667 76.41-170.667 170.667v0zM298.667 362.667c-70.692 0-128-57.308-128-128v0c0-47.128 38.205-85.333 85.333-85.333v0h256c47.128 0 85.333 38.205 85.333 85.333v0c0 70.692-57.308 128-128 128v0h-170.667z" />
<glyph unicode="&#xe915;" glyph-name="user-x" data-tags="user-x" d="M384 746.667c-47.128 0-85.333-38.205-85.333-85.333s38.205-85.333 85.333-85.333v0c47.128 0 85.333 38.205 85.333 85.333s-38.205 85.333-85.333 85.333v0zM213.333 661.333c0 94.257 76.41 170.667 170.667 170.667s170.667-76.41 170.667-170.667v0c0-94.257-76.41-170.667-170.667-170.667s-170.667 76.41-170.667 170.667v0zM673.835 670.165c7.721 7.718 18.386 12.492 30.165 12.492s22.445-4.774 30.165-12.492l44.501-44.501 44.501 44.501c7.769 8.036 18.647 13.026 30.69 13.026 23.564 0 42.667-19.103 42.667-42.667 0-12.043-4.989-22.92-13.014-30.678l-44.513-44.513 44.501-44.501c7.41-7.665 11.977-18.12 11.977-29.641 0-23.564-19.103-42.667-42.667-42.667-11.521 0-21.976 4.567-29.653 11.989l-44.489 44.489-44.501-44.501c-7.665-7.41-18.12-11.977-29.641-11.977-23.564 0-42.667 19.103-42.667 42.667 0 11.521 4.567 21.976 11.989 29.653l44.489 44.489-44.501 44.501c-7.718 7.721-12.492 18.386-12.492 30.165s4.774 22.445 12.492 30.165v0zM85.333 234.667c0 117.821 95.513 213.333 213.333 213.333v0h170.667c117.821 0 213.333-95.513 213.333-213.333v0c0-94.257-76.41-170.667-170.667-170.667v0h-256c-94.257 0-170.667 76.41-170.667 170.667v0zM298.667 362.667c-70.692 0-128-57.308-128-128v0c0-47.128 38.205-85.333 85.333-85.333v0h256c47.128 0 85.333 38.205 85.333 85.333v0c0 70.692-57.308 128-128 128v0h-170.667z" />
<glyph unicode="&#xe916;" glyph-name="user" data-tags="user" d="M384 746.667c-47.128 0-85.333-38.205-85.333-85.333s38.205-85.333 85.333-85.333v0c47.128 0 85.333 38.205 85.333 85.333s-38.205 85.333-85.333 85.333v0zM213.333 661.333c0 94.257 76.41 170.667 170.667 170.667s170.667-76.41 170.667-170.667v0c0-94.257-76.41-170.667-170.667-170.667s-170.667 76.41-170.667 170.667v0zM85.333 234.667c0 117.821 95.513 213.333 213.333 213.333v0h170.667c117.821 0 213.333-95.513 213.333-213.333v0c0-94.257-76.41-170.667-170.667-170.667v0h-256c-94.257 0-170.667 76.41-170.667 170.667v0zM298.667 362.667c-70.692 0-128-57.308-128-128v0c0-47.128 38.205-85.333 85.333-85.333v0h256c47.128 0 85.333 38.205 85.333 85.333v0c0 70.692-57.308 128-128 128v0h-170.667z" />
<glyph unicode="&#xe917;" glyph-name="users" data-tags="users" d="M384 746.667c-47.128 0-85.333-38.205-85.333-85.333s38.205-85.333 85.333-85.333v0c47.128 0 85.333 38.205 85.333 85.333s-38.205 85.333-85.333 85.333v0zM213.333 661.333c0 94.257 76.41 170.667 170.667 170.667s170.667-76.41 170.667-170.667v0c0-94.257-76.41-170.667-170.667-170.667s-170.667 76.41-170.667 170.667v0zM554.667 789.333c0 23.564 19.103 42.667 42.667 42.667v0c94.257 0 170.667-76.41 170.667-170.667s-76.41-170.667-170.667-170.667v0c-23.564 0-42.667 19.103-42.667 42.667s19.103 42.667 42.667 42.667v0c47.128 0 85.333 38.205 85.333 85.333s-38.205 85.333-85.333 85.333v0c-23.564 0-42.667 19.103-42.667 42.667v0zM85.333 234.667c0 117.821 95.513 213.333 213.333 213.333v0h170.667c117.821 0 213.333-95.513 213.333-213.333v0c0-94.257-76.41-170.667-170.667-170.667v0h-256c-94.257 0-170.667 76.41-170.667 170.667v0zM298.667 362.667c-70.692 0-128-57.308-128-128v0c0-47.128 38.205-85.333 85.333-85.333v0h256c47.128 0 85.333 38.205 85.333 85.333v0c0 70.692-57.308 128-128 128v0h-170.667zM682.667 405.333c0 23.564 19.103 42.667 42.667 42.667v0c117.821 0 213.333-95.513 213.333-213.333v0c0-94.257-76.41-170.667-170.667-170.667v0c-23.564 0-42.667 19.103-42.667 42.667s19.103 42.667 42.667 42.667v0c47.128 0 85.333 38.205 85.333 85.333v0c0 70.692-57.308 128-128 128v0c-23.564 0-42.667 19.103-42.667 42.667v0z" />
<glyph unicode="&#xe918;" glyph-name="alert-triangle" data-tags="alert-triangle" d="M512 645.803c21.428 0 38.802-17.359 38.827-38.782v-232.706c-0.714-20.882-17.815-37.54-38.805-37.54s-38.091 16.657-38.804 37.475l-0.002 0.065v232.704c0 21.443 17.383 38.827 38.827 38.827v0zM512 257.963c21.443 0 38.827-17.383 38.827-38.827v-0.341c0.014-0.384 0.021-0.834 0.021-1.287 0-21.443-17.383-38.827-38.827-38.827s-38.827 17.383-38.827 38.827c0 0.453 0.008 0.903 0.023 1.352l-0.002-0.065v0.341c0 21.443 17.383 38.827 38.827 38.827v0zM512 828.16c38.955 0 80.427-18.048 103.723-57.045l346.325-578.987c9.681-15.669 15.418-34.665 15.418-55.001 0-21.79-6.587-42.042-17.877-58.873l0.241 0.381c-20.907-32-58.027-53.419-101.547-53.419h-692.608c-43.435 0-80.64 21.419-101.504 53.461-11.050 16.45-17.637 36.702-17.637 58.492 0 20.336 5.737 39.332 15.68 55.458l-0.262-0.457 346.368 578.901c23.296 38.997 64.768 57.003 103.723 57.003zM512 750.507c-16.299 0-30.080-7.339-37.163-19.2l-346.325-578.987c-6.357-10.667-5.547-21.76 0.683-31.317 6.4-9.899 19.029-18.219 36.48-18.219h692.608c17.493 0 30.080 8.32 36.523 18.219 3.164 4.504 5.056 10.101 5.056 16.14 0 5.633-1.646 10.881-4.484 15.289l-346.173 578.875c-7.083 11.861-20.907 19.2-37.163 19.2z" />
<glyph unicode="&#xe919;" glyph-name="face-sad" data-tags="face-sad" d="M85.333 441.937c0 238.991 193.739 432.73 432.73 432.73 238.989 0 432.73-193.739 432.73-432.73 0-238.989-193.741-432.73-432.73-432.73-238.991 0-432.73 193.741-432.73 432.73zM518.063 789.333c-191.862 0-347.396-155.534-347.396-347.396 0-191.859 155.534-347.396 347.396-347.396 191.859 0 347.396 155.537 347.396 347.396 0 191.862-155.537 347.396-347.396 347.396zM362.042 165.235c23.564 0 42.667 19.102 42.667 42.667 0 62.605 50.754 113.357 113.359 113.357s113.357-50.752 113.357-113.357c0-23.565 19.102-42.667 42.667-42.667s42.667 19.102 42.667 42.667c0 109.734-88.956 198.69-198.69 198.69s-198.692-88.956-198.692-198.69c0-23.565 19.103-42.667 42.667-42.667zM298.667 533.333c0 23.564 19.103 42.667 42.667 42.667h0.427c23.564 0 42.667-19.103 42.667-42.667s-19.103-42.667-42.667-42.667h-0.427c-23.564 0-42.667 19.102-42.667 42.667zM640 533.333c0 23.564 19.102 42.667 42.667 42.667h0.427c23.565 0 42.667-19.103 42.667-42.667s-19.102-42.667-42.667-42.667h-0.427c-23.565 0-42.667 19.102-42.667 42.667z" />
<glyph unicode="&#xe91a;" glyph-name="female" data-tags="female" d="M298.667 546.901v0c0 110.327 89.438 199.765 199.765 199.765s199.765-89.438 199.765-199.765v0c0-110.327-89.438-199.765-199.765-199.765s-199.765 89.438-199.765 199.765zM700.885 346.155c51.086 51.508 82.655 122.441 82.655 200.747 0 157.461-127.647 285.108-285.108 285.108-79.155 0-150.775-32.257-202.434-84.342l-0.019-0.019c-51.086-51.508-82.655-122.441-82.655-200.747 0-157.461 127.647-285.108 285.108-285.108 79.155 0 150.775 32.257 202.434 84.342l0.019 0.019zM490.667 341.333c23.564 0 42.667-19.103 42.667-42.667v0-106.667h64c23.564 0 42.667-19.103 42.667-42.667s-19.103-42.667-42.667-42.667v0h-64v-42.667c0-23.564-19.103-42.667-42.667-42.667s-42.667 19.103-42.667 42.667v0 42.667h-64c-23.564 0-42.667 19.103-42.667 42.667s19.103 42.667 42.667 42.667v0h64v106.667c0 23.564 19.103 42.667 42.667 42.667v0z" />
<glyph unicode="&#xe91b;" glyph-name="intersex" data-tags="intersex" d="M448 254.080c22.485 0 40.747-18.261 40.747-40.747v-213.333c0-22.504-18.243-40.747-40.747-40.747s-40.747 18.243-40.747 40.747v0 213.333c0 22.485 18.261 40.747 40.747 40.747zM298.667 85.333v0c0-23.564 19.103-42.667 42.667-42.667h213.333c23.564 0 42.667 19.103 42.667 42.667s-19.103 42.667-42.667 42.667h-213.333c-23.564 0-42.667-19.103-42.667-42.667zM252.117 469.333v0c0 112.472 91.176 203.648 203.648 203.648s203.648-91.176 203.648-203.648l-0.002 0.156c0.015-1.033 0.023-2.067 0.023-3.104 0-112.472-91.176-203.648-203.648-203.648s-203.648 91.176-203.648 203.648c0 1.036 0.008 2.071 0.021 2.948zM658.219 268.587c51.086 51.508 82.655 122.441 82.655 200.747 0 157.461-127.647 285.108-285.108 285.108-79.155 0-150.775-32.257-202.434-84.342l-0.019-0.019c-51.086-51.508-82.655-122.441-82.655-200.747 0-157.461 127.647-285.108 285.108-285.108 79.155 0 150.775 32.257 202.434 84.342l0.019 0.019zM666.667 846.507c0.264 22.302 18.405 40.279 40.744 40.279 0.136 0 0.272-0.001 0.407-0.002h-0.021l142.549-1.451c22.305-0.241 40.297-18.368 40.32-40.702v-141.101c-0.732-21.929-18.685-39.428-40.725-39.428s-39.993 17.499-40.724 39.361l-0.002 0.067v42.709l-122.453-122.453c-7.447-7.881-17.97-12.787-29.64-12.787-22.504 0-40.747 18.243-40.747 40.747 0 11.67 4.906 22.193 12.767 29.622l0.019 0.018 123.435 123.435-45.611 0.469c-22.32 0.24-40.322 18.39-40.322 40.744 0 0.136 0.001 0.271 0.002 0.407v-0.021z" />
<glyph unicode="&#xe91c;" glyph-name="male" data-tags="male" d="M252.117 384v0c0 112.472 91.176 203.648 203.648 203.648s203.648-91.176 203.648-203.648l-0.002 0.156c0.015-1.033 0.023-2.067 0.023-3.104 0-112.472-91.176-203.648-203.648-203.648s-203.648 91.176-203.648 203.648c0 1.036 0.008 2.071 0.021 2.948zM658.219 183.253c51.086 51.508 82.655 122.441 82.655 200.747 0 157.461-127.647 285.108-285.108 285.108-79.155 0-150.775-32.257-202.434-84.342l-0.019-0.019c-51.086-51.508-82.655-122.441-82.655-200.747 0-157.461 127.647-285.108 285.108-285.108 79.155 0 150.775 32.257 202.434 84.342l0.019 0.019zM666.667 761.173c0.264 22.302 18.405 40.279 40.744 40.279 0.136 0 0.272-0.001 0.407-0.002h-0.021l142.549-1.451c22.305-0.241 40.297-18.368 40.32-40.702v-141.101c-0.732-21.929-18.685-39.428-40.725-39.428s-39.993 17.499-40.724 39.361l-0.002 0.067v42.709l-122.453-122.453c-7.447-7.881-17.97-12.787-29.64-12.787-22.504 0-40.747 18.243-40.747 40.747 0 11.67 4.906 22.193 12.767 29.622l0.019 0.018 123.435 123.435-45.611 0.469c-22.32 0.24-40.322 18.39-40.322 40.744 0 0.136 0.001 0.271 0.002 0.407v-0.021z" />
<glyph unicode="&#xe91d;" glyph-name="triangle" data-tags="triangle" d="M512 832c0 0 0 0 0 0 15.184 0 28.516-7.932 36.078-19.878l0.103-0.175 426.667-682.667c4.070-6.418 6.485-14.234 6.485-22.613 0-23.564-19.103-42.667-42.667-42.667 0 0 0 0 0 0h-853.333c0 0 0 0 0 0-23.564 0-42.667 19.103-42.667 42.667 0 8.38 2.416 16.195 6.589 22.788l-0.103-0.175 426.667 682.667c7.665 12.121 20.997 20.053 36.181 20.053 0 0 0 0 0 0v0zM162.304 149.333h699.392l-349.696 559.488-349.696-559.488z" />
<glyph unicode="&#xe91e;" glyph-name="transgender-2" data-tags="transgender-2" d="M209.451 384v0c0 112.472 91.176 203.648 203.648 203.648s203.648-91.176 203.648-203.648l-0.002 0.156c0.015-1.033 0.023-2.067 0.023-3.104 0-112.472-91.176-203.648-203.648-203.648s-203.648 91.176-203.648 203.648c0 1.036 0.008 2.071 0.021 2.948zM615.552 183.253c51.086 51.508 82.655 122.441 82.655 200.747 0 157.461-127.647 285.108-285.108 285.108-79.155 0-150.775-32.257-202.434-84.342l-0.019-0.019c-51.086-51.508-82.655-122.441-82.655-200.747 0-157.461 127.647-285.108 285.108-285.108 79.155 0 150.775 32.257 202.434 84.342l0.019 0.019zM624 761.173c0.24 22.297 18.371 40.28 40.702 40.28 0.151 0 0.301-0.001 0.452-0.002h-0.023l142.549-1.451c22.305-0.241 40.297-18.368 40.32-40.702v-141.101c-0.732-21.929-18.685-39.428-40.725-39.428s-39.993 17.499-40.724 39.361l-0.002 0.067v42.709l-41.472-41.472 43.733-43.776c7.371-7.371 11.929-17.553 11.929-28.8 0-22.494-18.235-40.729-40.729-40.729-11.247 0-21.429 4.559-28.8 11.929v0l-43.733 43.861-23.424-23.424c-7.279-6.878-17.126-11.107-27.96-11.107-22.504 0-40.747 18.243-40.747 40.747 0 10.834 4.228 20.681 11.125 27.98l-0.018-0.019 23.424 23.424-39.765 39.723c-7.371 7.371-11.929 17.553-11.929 28.8 0 22.494 18.235 40.729 40.729 40.729 11.247 0 21.429-4.559 28.8-11.929v0l39.765-39.723 42.453 42.453-45.611 0.469c-22.315 0.216-40.322 18.356-40.322 40.702 0 0.151 0.001 0.301 0.002 0.451v-0.023z" />
<glyph unicode="&#xe91f;" glyph-name="transgender" data-tags="transgender" d="M314.539 469.333l0.002 0.156c1.659 111.040 92.19 200.544 203.625 200.544s201.966-89.504 203.627-200.7l-0.002 0.156c0.015-1.033 0.023-2.067 0.023-3.104 0-112.472-91.176-203.648-203.648-203.648s-203.648 91.176-203.648 203.648c0 1.036 0.008 2.071 0.021 2.948zM720.597 268.587c51.086 51.508 82.655 122.441 82.655 200.747 0 157.461-127.647 285.108-285.108 285.108-79.155 0-150.775-32.257-202.434-84.342l-0.019-0.019c-51.086-51.508-82.655-122.441-82.655-200.747 0-157.461 127.647-285.108 285.108-285.108 79.155 0 150.775 32.257 202.434 84.342l0.019 0.019zM518.187 265.685c22.485 0 40.704-18.219 40.704-40.704v-81.493h61.099c21.687-1.024 38.882-18.856 38.882-40.704s-17.195-39.68-38.791-40.701l-0.092-0.003h-61.099v-40.747c-0.732-21.929-18.685-39.428-40.725-39.428s-39.993 17.499-40.724 39.361l-0.002 0.067v40.747h-61.099c-21.929 0.732-39.428 18.685-39.428 40.725s17.499 39.993 39.361 40.724l0.067 0.002h61.099v81.451c0 22.485 18.261 40.704 40.747 40.704zM699.989 846.507c0.264 22.302 18.404 40.28 40.744 40.28 0.151 0 0.302-0.001 0.452-0.002h-0.023l142.507-1.451c22.305-0.241 40.297-18.368 40.32-40.702v-141.101c-0.732-21.929-18.685-39.428-40.725-39.428s-39.993 17.499-40.724 39.361l-0.002 0.067v42.709l-122.453-122.453c-7.371-7.371-17.553-11.929-28.8-11.929-22.494 0-40.729 18.235-40.729 40.729 0 11.247 4.559 21.429 11.929 28.8l123.435 123.435-45.611 0.469c-22.32 0.24-40.322 18.39-40.322 40.744 0 0.136 0.001 0.271 0.002 0.407v-0.021zM142.933 881.323h141.056c0.393 0.014 0.855 0.021 1.318 0.021 22.504 0 40.747-18.243 40.747-40.747s-18.243-40.747-40.747-40.747c-0.464 0-0.925 0.008-1.385 0.023l0.067-0.002h-42.752l41.472-41.472 43.776 43.733c7.279 6.878 17.126 11.107 27.96 11.107 22.504 0 40.747-18.243 40.747-40.747 0-10.834-4.228-20.681-11.125-27.98l0.018 0.019-43.776-43.733 23.381-23.381c7.881-7.447 12.787-17.97 12.787-29.64 0-22.504-18.243-40.747-40.747-40.747-11.67 0-22.193 4.906-29.622 12.767l-0.018 0.019-23.381 23.381-39.723-39.765c-7.447-7.881-17.97-12.787-29.64-12.787-22.504 0-40.747 18.243-40.747 40.747 0 11.67 4.906 22.193 12.767 29.622l0.019 0.018 39.723 39.765-42.453 42.453-0.469-45.611c-0.241-22.321-18.392-40.322-40.747-40.322-22.505 0-40.749 18.244-40.749 40.749 0 0.15 0.001 0.3 0.002 0.449v-0.023l1.493 142.507c0.241 22.305 18.368 40.297 40.702 40.32h0.002z" />
<glyph unicode="&#xe920;" glyph-name="dribbble" data-tags="dribbble" d="M170.668 449.139l0.119-2.163c108.563-5.397 226.167-31.893 335.875-73.186 9.732 21.926 18.927 44.16 27.575 66.624-116.942 44.087-216.444 126.547-281.933 229.107-50.676-59.352-81.362-136.285-81.637-220.381zM233.172 770.964c0.465 0.418 0.941 0.828 1.427 1.228 74.592 63.886 171.49 102.475 277.401 102.475 60.544 0 118.14-12.61 170.313-35.347 0.149-0.065 0.299-0.131 0.448-0.197 150.639-65.861 255.906-216.199 255.906-391.123 0-120.977-50.351-230.195-131.238-307.84-0.235-0.23-0.469-0.457-0.708-0.683-76.599-73.19-180.407-118.144-294.72-118.144-47.424 0-93.038 7.735-135.654 22.016-4.384 0.798-8.685 2.287-12.733 4.493-162.488 60.279-278.281 216.695-278.281 400.158 0 129.054 57.297 244.725 147.839 322.964zM316.551 727.872c55.326-92.878 142.931-167.583 246.031-206.903 26.62 83.243 45.726 168.256 56.597 251.198-33.707 11.139-69.739 17.167-107.179 17.167-72.695 0-140.085-22.726-195.449-61.461zM699.831 733.051c-11.772-77.807-30.255-157.085-55.023-235.093 26.278-4.783 53.197-7.292 80.525-7.292 43.051 0 83.938 5.431 122.974 16.009-16.358 94.435-71.526 175.568-148.476 226.376zM852.173 419.665c-40.781-9.51-83.042-14.332-126.839-14.332-37.146 0-73.566 3.87-108.877 11.191-9.664-25.472-20.006-50.701-31.010-75.58 69.794-32.055 134.251-69.99 188.382-111.945 43.947 52.489 72.405 118.383 78.345 190.665zM710.268 170.121c-46.81 34.748-101.978 66.526-161.596 93.815-27.554-53.534-58.304-104.836-92.092-152.794 18.039-2.944 36.548-4.476 55.42-4.476 73.937 0 142.379 23.505 198.268 63.454zM370.243 137.404c36.608 49.139 69.778 102.711 99.231 159.177-94.047 34.701-194.304 57.835-287.58 64.265 26.222-99.58 96.308-181.367 188.349-223.441z" />
<glyph unicode="&#xe921;" glyph-name="alert-circle" data-tags="alert-circle" d="M512 832c-212.077 0-384-171.923-384-384 0-212.079 171.923-384 384-384 212.079 0 384 171.921 384 384 0 212.077-171.921 384-384 384zM42.667 448c0 259.206 210.128 469.333 469.333 469.333 259.204 0 469.333-210.128 469.333-469.333 0-259.204-210.129-469.333-469.333-469.333-259.206 0-469.333 210.129-469.333 469.333zM512 704c23.565 0 42.667-19.103 42.667-42.667v-256c0-23.565-19.102-42.667-42.667-42.667s-42.667 19.102-42.667 42.667v256c0 23.564 19.102 42.667 42.667 42.667zM512 277.333c23.565 0 42.667-19.102 42.667-42.667v-0.427c0-23.565-19.102-42.667-42.667-42.667s-42.667 19.102-42.667 42.667v0.427c0 23.565 19.102 42.667 42.667 42.667z" />
<glyph unicode="&#xe922;" glyph-name="at" data-tags="at" d="M512 832c-212.077 0-384-171.923-384-384 0-212.079 171.923-384 384-384 42.449 0 83.209 6.874 121.271 19.533 22.362 7.433 46.515-4.663 53.952-27.025s-4.663-46.515-27.021-53.952c-46.643-15.509-96.486-23.889-148.203-23.889-259.206 0-469.333 210.129-469.333 469.333 0 259.206 210.128 469.333 469.333 469.333 259.204 0 469.333-210.128 469.333-469.333 0-60.211-11.358-117.871-32.090-170.88-24.209-83.401-95.488-134.613-165.269-138.389-35.81-1.941-72.917 8.725-101.103 36.331-25.668 25.139-40.034 60.467-42.492 102.541-35.721-26.953-80.183-42.935-128.38-42.935-117.821 0-213.333 95.514-213.333 213.333s95.513 213.333 213.333 213.333c48.026 0 92.343-15.869 128-42.651v42.651c0 23.564 19.102 42.667 42.667 42.667s42.667-19.103 42.667-42.667v-370.526c0-30.699 9.015-46.72 17.25-54.784 8.35-8.179 20.745-12.954 36.779-12.087 33.276 1.805 74.398 28.297 88.307 78.306 0.405 1.455 0.887 2.889 1.446 4.292 17.335 43.721 26.884 91.426 26.884 141.466 0 212.077-171.921 384-384 384zM640 448c0 70.694-57.306 128-128 128s-128-57.306-128-128c0-70.694 57.306-128 128-128s128 57.306 128 128z" />
<glyph unicode="&#xe923;" glyph-name="circle" data-tags="circle" d="M512 789.333c-188.513 0-341.333-152.82-341.333-341.333s152.82-341.333 341.333-341.333c188.514 0 341.333 152.819 341.333 341.333s-152.819 341.333-341.333 341.333zM85.333 448c0 235.642 191.025 426.667 426.667 426.667 235.639 0 426.667-191.025 426.667-426.667 0-235.639-191.027-426.667-426.667-426.667-235.642 0-426.667 191.027-426.667 426.667z" />
<glyph unicode="&#xe924;" glyph-name="help-circle" data-tags="help-circle" d="M512 832c-212.077 0-384-171.923-384-384 0-212.079 171.923-384 384-384 212.079 0 384 171.921 384 384 0 212.077-171.921 384-384 384zM42.667 448c0 259.206 210.128 469.333 469.333 469.333 259.204 0 469.333-210.128 469.333-469.333 0-259.204-210.129-469.333-469.333-469.333-259.206 0-469.333 210.129-469.333 469.333zM512 618.667c-47.13 0-85.333-38.205-85.333-85.333 0-23.565-19.103-42.667-42.667-42.667s-42.667 19.102-42.667 42.667c0 94.257 76.41 170.667 170.667 170.667 94.255 0 170.667-76.41 170.667-170.667 0-79.522-54.391-146.342-128-165.291v-5.376c0-23.565-19.102-42.667-42.667-42.667s-42.667 19.102-42.667 42.667v42.667c0 23.565 19.102 42.667 42.667 42.667 47.13 0 85.333 38.204 85.333 85.333s-38.204 85.333-85.333 85.333zM512 277.333c23.565 0 42.667-19.102 42.667-42.667v-0.427c0-23.565-19.102-42.667-42.667-42.667s-42.667 19.102-42.667 42.667v0.427c0 23.565 19.102 42.667 42.667 42.667z" />
<glyph unicode="&#xe925;" glyph-name="hicon" data-tags="hicon" d="M512 789.333c35.14 0 69.039-5.31 100.937-15.171-0.128-29.62 15.189-58.476 42.679-74.348 27.678-15.979 60.582-14.692 86.251 0.518 68.489-62.426 111.467-152.361 111.467-252.333 0-188.514-152.819-341.333-341.333-341.333s-341.333 152.819-341.333 341.333c0 188.513 152.82 341.333 341.333 341.333zM658.086 849.002c-45.572 16.606-94.771 25.665-146.086 25.665-235.642 0-426.667-191.025-426.667-426.667 0-235.639 191.025-426.667 426.667-426.667 235.639 0 426.667 191.027 426.667 426.667 0 132.473-60.373 250.845-155.106 329.104-1.148 28.256-16.307 55.328-42.611 70.513-26.475 15.285-57.732 14.771-82.863 1.385zM512 576c-23.565 0-42.667-19.103-42.667-42.667v-170.667c0-23.565 19.102-42.667 42.667-42.667s42.667 19.102 42.667 42.667v170.667c0 23.564-19.102 42.667-42.667 42.667z" />
<glyph unicode="&#xe926;" glyph-name="info" data-tags="info" d="M512 832c-212.077 0-384-171.923-384-384 0-212.079 171.923-384 384-384 212.079 0 384 171.921 384 384 0 212.077-171.921 384-384 384zM42.667 448c0 259.206 210.128 469.333 469.333 469.333 259.204 0 469.333-210.128 469.333-469.333 0-259.204-210.129-469.333-469.333-469.333-259.206 0-469.333 210.129-469.333 469.333zM512 704c23.565 0 42.667-19.103 42.667-42.667v-0.427c0-23.564-19.102-42.667-42.667-42.667s-42.667 19.103-42.667 42.667v0.427c0 23.564 19.102 42.667 42.667 42.667zM512 533.333c23.565 0 42.667-19.102 42.667-42.667v-256c0-23.565-19.102-42.667-42.667-42.667s-42.667 19.102-42.667 42.667v256c0 23.565 19.102 42.667 42.667 42.667z" />
<glyph unicode="&#xe927;" glyph-name="pie-chart" data-tags="pie-chart" d="M469.333 874.667c0 23.564 19.102 42.667 42.667 42.667 61.632 0 122.662-12.14 179.605-35.726s108.681-58.157 152.265-101.739c43.58-43.581 78.153-95.32 101.739-152.262s35.725-117.974 35.725-179.606c0-23.565-19.102-42.667-42.667-42.667h-426.667c-23.565 0-42.667 19.102-42.667 42.667v426.667zM554.667 829.622v-338.956h338.957c-4.002 35.78-13.022 70.891-26.854 104.284-19.298 46.589-47.582 88.921-83.238 124.579-35.661 35.658-77.99 63.943-124.582 83.241-33.391 13.832-68.501 22.852-104.282 26.852zM351.511 851.859c10.968-20.856 2.952-46.654-17.904-57.622-121.957-64.136-205.607-193.83-205.607-343.728 0-214.157 170.466-386.509 379.213-386.509 156.629 0 291.622 96.9 349.385 235.972 9.037 21.764 34.005 32.077 55.77 23.040 21.76-9.041 32.073-34.010 23.036-55.77-70.259-169.165-235.213-288.576-428.19-288.576-257.249 0-464.546 211.942-464.546 471.842 0 182.28 101.83 340.691 251.222 419.254 20.856 10.968 46.654 2.952 57.622-17.904z" />
<glyph unicode="&#xe928;" glyph-name="not-equal-to" data-tags="not-equal-to" d="M635.136 652.373c7.148 5.595 16.267 8.972 26.175 8.972 13.652 0 25.806-6.412 33.616-16.388l0.070-0.093 149.333-192c5.606-7.152 8.99-16.28 8.99-26.197s-3.384-19.045-9.060-26.291l0.070 0.093-149.333-192c-7.862-10.492-20.267-17.209-34.24-17.209-23.564 0-42.667 19.103-42.667 42.667 0 10.25 3.615 19.656 9.639 27.013l-0.060-0.076 128.939 165.803-128.939 165.803c-5.605 7.152-8.988 16.279-8.988 26.196 0 13.64 6.401 25.785 16.362 33.596l0.093 0.070zM388.864 652.373c-7.148 5.595-16.267 8.972-26.175 8.972-13.652 0-25.806-6.412-33.616-16.388l-0.070-0.093-149.333-192c-5.606-7.152-8.99-16.28-8.99-26.197s3.384-19.045 9.060-26.291l-0.070 0.093 149.333-192c7.862-10.492 20.267-17.209 34.24-17.209 23.564 0 42.667 19.103 42.667 42.667 0 10.25-3.615 19.656-9.639 27.013l0.060-0.076-128.939 165.803 128.939 165.803c5.605 7.152 8.988 16.279 8.988 26.196 0 13.64-6.401 25.785-16.362 33.596l-0.093 0.070z" />
<glyph unicode="&#xe929;" glyph-name="refresh-cw" data-tags="refresh-cw" d="M153.042 651.456c108.815 202.319 361.040 278.118 563.357 169.303 75.226-40.458 133.013-100.817 170.278-171.038l22.656 63.156c7.957 22.18 32.388 33.709 54.571 25.751 22.178-7.958 33.707-32.389 25.749-54.569l-55.386-154.374c-6.955-19.388-26.769-31.036-47.091-27.691l-161.83 26.641c-23.253 3.827-38.997 25.778-35.17 49.029s25.779 38.997 49.033 35.169l76.966-12.67c-29.329 59.874-76.954 111.429-140.194 145.442-160.815 86.492-361.294 26.243-447.786-134.57-20.508-38.131-32.739-78.394-37.375-118.799-2.686-23.411-23.841-40.213-47.252-37.525-23.411 2.684-40.211 23.838-37.526 47.249 5.848 50.977 21.281 101.679 46.999 149.495zM901.811 441.289c23.411-2.684 40.213-23.838 37.525-47.249-5.85-50.978-21.282-101.679-46.997-149.495-108.817-202.317-361.041-278.118-563.36-169.301-75.222 40.457-133.011 100.813-170.274 171.034l-22.659-63.155c-7.958-22.178-32.389-33.707-54.569-25.749s-33.709 32.388-25.751 54.566l55.386 154.377c6.956 19.388 26.768 31.036 47.091 27.691l161.832-26.641c23.251-3.827 38.997-25.779 35.17-49.028-3.828-23.253-25.779-38.997-49.030-35.17l-76.968 12.672c29.328-59.878 76.953-111.433 140.193-145.442 160.815-86.494 361.292-26.244 447.786 134.566 20.506 38.131 32.738 78.396 37.372 118.801 2.688 23.411 23.842 40.213 47.253 37.525z" />
<glyph unicode="&#xe92a;" glyph-name="rotate-acw" data-tags="rotate-acw" d="M247.567 916.86c23.303-3.498 39.359-25.224 35.861-48.527l-10.422-69.436c68.189 46.181 150.488 73.172 238.994 73.172 235.639 0 426.667-191.025 426.667-426.667 0-235.639-191.027-426.667-426.667-426.667-235.642 0-426.667 191.027-426.667 426.667 0 23.565 19.103 42.667 42.667 42.667s42.667-19.102 42.667-42.667c0-188.514 152.82-341.333 341.333-341.333s341.333 152.819 341.333 341.333c0 188.513-152.819 341.334-341.333 341.334-75.567 0-145.301-24.509-201.832-66.033l79.457-27.243c22.29-7.643 34.165-31.908 26.522-54.199s-31.908-34.164-54.198-26.522l-159.596 54.72c-19.483 6.68-31.413 26.325-28.356 46.694l25.043 166.848c3.498 23.303 25.224 39.359 48.527 35.861z" />
<glyph unicode="&#xe92b;" glyph-name="rotate-cw" data-tags="rotate-cw" d="M776.431 916.86c23.305 3.498 45.030-12.558 48.529-35.861l25.045-166.848c3.055-20.368-8.875-40.013-28.356-46.694l-159.599-54.72c-22.289-7.642-46.554 4.232-54.199 26.522-7.642 22.29 4.233 46.556 26.526 54.199l79.454 27.243c-56.529 41.524-126.263 66.033-201.83 66.033-188.513 0-341.333-152.82-341.333-341.334s152.82-341.333 341.333-341.333c188.514 0 341.333 152.819 341.333 341.333 0 23.565 19.102 42.667 42.667 42.667s42.667-19.102 42.667-42.667c0-235.639-191.027-426.667-426.667-426.667-235.642 0-426.667 191.027-426.667 426.667 0 235.642 191.025 426.667 426.667 426.667 88.508 0 170.807-26.991 238.993-73.172l-10.419 69.436c-3.499 23.303 12.557 45.030 35.857 48.527z" />
<glyph unicode="&#xe92c;" glyph-name="spotify" data-tags="spotify" d="M512 789.333c-188.513 0-341.333-152.82-341.333-341.333s152.82-341.333 341.333-341.333c188.514 0 341.333 152.819 341.333 341.333s-152.819 341.333-341.333 341.333zM85.333 448c0 235.642 191.025 426.667 426.667 426.667 235.639 0 426.667-191.025 426.667-426.667 0-235.639-191.027-426.667-426.667-426.667-235.642 0-426.667 191.027-426.667 426.667zM518.502 597.099c-76.279 5.468-148.791-11.956-210.954-46.421-20.609-11.426-46.578-3.982-58.004 16.627s-3.982 46.577 16.627 58.004c76.198 42.246 165.146 63.592 258.432 56.905s178.283-40.502 247.676-93.184c18.769-14.249 22.434-41.014 8.183-59.785-14.246-18.765-41.015-22.43-59.78-8.183-56.614 42.981-125.897 70.569-202.18 76.037zM510.268 482.197c-66.854 4.791-130.778-8-187.381-34.406-21.354-9.963-46.742-0.725-56.704 20.629s-0.727 46.741 20.627 56.704c69.432 32.392 147.845 48.044 229.56 42.187 81.711-5.857 157.090-32.534 221.193-74.499 19.716-12.907 25.237-39.351 12.331-59.068-12.907-19.712-39.351-25.233-59.068-12.326-52.258 34.21-113.707 55.987-180.557 60.779zM502.029 367.292c-55.279 3.964-108.536-4.096-157.295-21.914-22.133-8.090-46.631 3.294-54.72 25.429-8.088 22.131 3.297 46.63 25.43 54.72 59.852 21.871 125.158 31.718 192.687 26.88 67.533-4.843 130.765-23.906 186.884-54.089 20.753-11.166 28.527-37.035 17.365-57.788s-37.035-28.527-57.788-17.365c-45.717 24.589-97.28 40.162-152.563 44.126z" />
<glyph unicode="&#xe92d;" glyph-name="square-2" data-tags="square-2" d="M85.333 576c0 164.949 133.718 298.667 298.667 298.667h256c164.949 0 298.667-133.718 298.667-298.667v-256c0-164.949-133.717-298.667-298.667-298.667h-256c-164.949 0-298.667 133.717-298.667 298.667v256zM384 789.333c-117.821 0-213.333-95.513-213.333-213.333v-256c0-117.82 95.513-213.333 213.333-213.333h256c117.82 0 213.333 95.514 213.333 213.333v256c0 117.821-95.514 213.333-213.333 213.333h-256z" />
<glyph unicode="&#xe92e;" glyph-name="square" data-tags="square" d="M85.333 832c0 23.564 19.103 42.667 42.667 42.667h768c23.565 0 42.667-19.103 42.667-42.667v-768c0-23.565-19.102-42.667-42.667-42.667h-768c-23.564 0-42.667 19.102-42.667 42.667v768zM170.667 789.333v-682.667h682.667v682.667h-682.667z" />
<glyph unicode="&#xe92f;" glyph-name="target" data-tags="target" d="M85.333 448c0 235.642 191.025 426.667 426.667 426.667 235.639 0 426.667-191.025 426.667-426.667 0-235.639-191.027-426.667-426.667-426.667-235.642 0-426.667 191.027-426.667 426.667zM512 789.333c-188.513 0-341.333-152.82-341.333-341.333s152.82-341.333 341.333-341.333c188.514 0 341.333 152.819 341.333 341.333s-152.819 341.333-341.333 341.333zM256 448c0 141.385 114.615 256 256 256s256-114.615 256-256c0-141.385-114.615-256-256-256s-256 114.615-256 256zM512 618.667c-94.257 0-170.667-76.41-170.667-170.667 0-94.255 76.41-170.667 170.667-170.667 94.255 0 170.667 76.412 170.667 170.667 0 94.257-76.412 170.667-170.667 170.667zM426.667 448c0 47.13 38.204 85.333 85.333 85.333s85.333-38.204 85.333-85.333c0-47.13-38.204-85.333-85.333-85.333s-85.333 38.204-85.333 85.333z" />
<glyph unicode="&#xe930;" glyph-name="virus" data-tags="virus" d="M426.667 874.667c0-23.564 19.102-42.667 42.667-42.667v-45.307c-62.268-7.765-119.327-32.301-166.513-68.947l-28.769 28.66 6.647 6.647c16.662 16.663 16.662 43.677 0 60.34s-43.677 16.662-60.34 0l-36.87-36.87c-0.020-0.021-0.041-0.041-0.061-0.062l-36.817-36.817c-16.662-16.662-16.662-43.677 0-60.34s43.677-16.662 60.34 0l6.762 6.762 28.741-28.631c-36.755-47.236-61.366-104.388-69.144-166.768h-45.307c0 23.565-19.103 42.667-42.667 42.667s-42.667-19.102-42.667-42.667v-42.675c0-0.004 0 0 0 0v-42.658c0-23.565 19.103-42.667 42.667-42.667s42.667 19.102 42.667 42.667h45.307c7.574-60.736 31.104-116.514 66.263-163.012l-29.433-28.809-3.187 3.187c-16.662 16.661-43.677 16.661-60.34 0-16.662-16.666-16.662-43.678 0-60.339l73.748-73.749c16.663-16.661 43.677-16.661 60.34 0s16.662 43.678 0 60.339l-10.219 10.219 28.62 28.015c47.895-38.268 106.32-63.906 170.233-71.876v-45.308c-23.565 0-42.667-19.102-42.667-42.667s19.102-42.667 42.667-42.667h85.333c23.565 0 42.667 19.102 42.667 42.667s-19.102 42.667-42.667 42.667v45.308c63.040 7.859 120.738 32.913 168.26 70.315l27.823-29.227-7.445-7.445c-16.666-16.661-16.666-43.678 0-60.339 16.661-16.661 43.674-16.661 60.339 0l32.465 32.465c1.374 1.024 2.705 2.142 3.977 3.354 1.801 1.711 3.418 3.546 4.851 5.474l32.457 32.457c16.661 16.661 16.661 43.674 0 60.339-16.666 16.661-43.678 16.661-60.343 0l-5.943-5.948-28.177 29.602c35.989 46.886 60.083 103.386 67.763 164.979h45.308c0-23.565 19.102-42.667 42.667-42.667s42.667 19.102 42.667 42.667v85.333c0 23.565-19.102 42.667-42.667 42.667s-42.667-19.102-42.667-42.667h-45.308c-7.859 63.039-32.913 120.739-70.315 168.262l29.227 27.818 7.441-7.443c16.661-16.662 43.678-16.662 60.339 0s16.661 43.677 0 60.34l-32.452 32.455c-1.028 1.379-2.146 2.71-3.362 3.986-1.715 1.803-3.554 3.423-5.483 4.859l-32.452 32.449c-16.661 16.662-43.678 16.662-60.339 0s-16.661-43.677 0-60.34l5.948-5.948-29.598-28.175c-46.886 35.99-103.386 60.082-164.979 67.763v45.307c23.565 0 42.667 19.103 42.667 42.667s-19.102 42.667-42.667 42.667h-85.333c-23.565 0-42.667-19.103-42.667-42.667zM694.972 268.954c-0.085-0.085-0.171-0.175-0.256-0.26-46.455-47.334-111.155-76.693-182.716-76.693-141.385 0-256 114.615-256 256s114.615 256 256 256c69.696 0 132.885-27.85 179.046-73.029 0.085-0.086 0.175-0.172 0.26-0.256 47.334-46.454 76.693-111.154 76.693-182.714 0-69.696-27.849-132.885-73.028-179.046z" />
<glyph unicode="&#xe931;" glyph-name="circle1" data-tags="circle" d="M512 789.333c-188.513 0-341.333-152.82-341.333-341.333s152.82-341.333 341.333-341.333c188.514 0 341.333 152.819 341.333 341.333s-152.819 341.333-341.333 341.333zM85.333 448c0 235.642 191.025 426.667 426.667 426.667 235.639 0 426.667-191.025 426.667-426.667 0-235.639-191.027-426.667-426.667-426.667-235.642 0-426.667 191.027-426.667 426.667z" />
<glyph unicode="&#xe932;" glyph-name="help-circle1" data-tags="help-circle" d="M512 832c-212.077 0-384-171.923-384-384 0-212.079 171.923-384 384-384 212.079 0 384 171.921 384 384 0 212.077-171.921 384-384 384zM42.667 448c0 259.206 210.128 469.333 469.333 469.333 259.204 0 469.333-210.128 469.333-469.333 0-259.204-210.129-469.333-469.333-469.333-259.206 0-469.333 210.129-469.333 469.333zM512 618.667c-47.13 0-85.333-38.205-85.333-85.333 0-23.565-19.103-42.667-42.667-42.667s-42.667 19.102-42.667 42.667c0 94.257 76.41 170.667 170.667 170.667 94.255 0 170.667-76.41 170.667-170.667 0-79.522-54.391-146.342-128-165.291v-5.376c0-23.565-19.102-42.667-42.667-42.667s-42.667 19.102-42.667 42.667v42.667c0 23.565 19.102 42.667 42.667 42.667 47.13 0 85.333 38.204 85.333 85.333s-38.204 85.333-85.333 85.333zM512 277.333c23.565 0 42.667-19.102 42.667-42.667v-0.427c0-23.565-19.102-42.667-42.667-42.667s-42.667 19.102-42.667 42.667v0.427c0 23.565 19.102 42.667 42.667 42.667z" />
<glyph unicode="&#xe933;" glyph-name="arrow-down-right-square" data-tags="arrow-down-right-square" d="M938.667 832c0 23.564-19.102 42.667-42.667 42.667h-768c-23.564 0-42.667-19.103-42.667-42.667v-768c0-23.565 19.103-42.667 42.667-42.667h768c23.565 0 42.667 19.102 42.667 42.667v768zM853.333 789.333v-682.667h-682.667v682.667h682.667zM348.653 600.997c-16.663-16.662-16.663-43.677 0-60.34l176.945-176.945-75.213-6.839c-23.467-2.133-40.762-22.886-38.629-46.353s22.885-40.759 46.356-38.626l165.935 15.083c20.51 1.865 36.762 18.116 38.626 38.63l15.087 165.935c2.133 23.467-15.164 44.219-38.63 46.352s-44.22-15.163-46.353-38.63l-6.839-75.213-176.944 176.945c-16.663 16.663-43.677 16.663-60.34 0z" />
<glyph unicode="&#xe934;" glyph-name="airplay" data-tags="airplay" d="M85.333 673.524c0 69.894 63.715 115.81 128 115.81h597.333c64.286 0 128-45.916 128-115.81v-365.713c0-69.892-63.714-115.81-128-115.81-23.565 0-42.667 19.102-42.667 42.667s19.102 42.667 42.667 42.667c29.973 0 42.667 19.58 42.667 30.477v365.713c0 10.898-12.693 30.476-42.667 30.476h-597.333c-29.972 0-42.667-19.578-42.667-30.476v-365.713c0-10.897 12.695-30.477 42.667-30.477 23.564 0 42.667-19.102 42.667-42.667s-19.103-42.667-42.667-42.667c-64.285 0-128 45.918-128 115.81v365.713zM512 362.667c12.378 0 24.149-5.376 32.252-14.733l221.705-256c10.931-12.629 13.495-30.473 6.554-45.662-6.938-15.194-22.106-24.939-38.805-24.939h-443.407c-16.702 0-31.868 9.745-38.809 24.939-6.94 15.189-4.378 33.033 6.556 45.662l221.704 256c8.102 9.357 19.874 14.733 32.252 14.733zM383.691 106.667h256.621l-128.311 148.16-128.309-148.16z" />
<glyph unicode="&#xe935;" glyph-name="alert-square" data-tags="alert-square" d="M512 704c23.565 0 42.667-19.103 42.667-42.667v-256c0-23.565-19.102-42.667-42.667-42.667s-42.667 19.102-42.667 42.667v256c0 23.564 19.102 42.667 42.667 42.667zM512 277.333c23.565 0 42.667-19.102 42.667-42.667v-0.427c0-23.565-19.102-42.667-42.667-42.667s-42.667 19.102-42.667 42.667v0.427c0 23.565 19.102 42.667 42.667 42.667zM85.333 832c0 23.564 19.103 42.667 42.667 42.667h768c23.565 0 42.667-19.103 42.667-42.667v-768c0-23.565-19.102-42.667-42.667-42.667h-768c-23.564 0-42.667 19.102-42.667 42.667v768zM170.667 789.333v-682.667h682.667v682.667h-682.667z" />
<glyph unicode="&#xe936;" glyph-name="align-center" data-tags="align-center" d="M938.667 704c0-23.564-19.102-42.667-42.667-42.667h-768c-23.564 0-42.667 19.103-42.667 42.667s19.103 42.667 42.667 42.667h768c23.565 0 42.667-19.103 42.667-42.667zM853.333 533.333c0-23.565-19.102-42.667-42.667-42.667h-597.333c-23.564 0-42.667 19.102-42.667 42.667s19.102 42.667 42.667 42.667h597.333c23.565 0 42.667-19.103 42.667-42.667zM938.667 362.667c0-23.565-19.102-42.667-42.667-42.667h-768c-23.564 0-42.667 19.102-42.667 42.667s19.103 42.667 42.667 42.667h768c23.565 0 42.667-19.102 42.667-42.667zM853.333 192c0-23.565-19.102-42.667-42.667-42.667h-597.333c-23.564 0-42.667 19.102-42.667 42.667s19.102 42.667 42.667 42.667h597.333c23.565 0 42.667-19.102 42.667-42.667z" />
<glyph unicode="&#xe937;" glyph-name="align-justify" data-tags="align-justify" d="M938.667 704c0-23.564-19.102-42.667-42.667-42.667h-768c-23.564 0-42.667 19.103-42.667 42.667s19.103 42.667 42.667 42.667h768c23.565 0 42.667-19.103 42.667-42.667zM938.667 533.333c0-23.565-19.102-42.667-42.667-42.667h-768c-23.564 0-42.667 19.102-42.667 42.667s19.103 42.667 42.667 42.667h768c23.565 0 42.667-19.103 42.667-42.667zM938.667 362.667c0-23.565-19.102-42.667-42.667-42.667h-768c-23.564 0-42.667 19.102-42.667 42.667s19.103 42.667 42.667 42.667h768c23.565 0 42.667-19.102 42.667-42.667zM938.667 192c0-23.565-19.102-42.667-42.667-42.667h-768c-23.564 0-42.667 19.102-42.667 42.667s19.103 42.667 42.667 42.667h768c23.565 0 42.667-19.102 42.667-42.667z" />
<glyph unicode="&#xe938;" glyph-name="align-left" data-tags="align-left" d="M938.667 704c0-23.564-19.102-42.667-42.667-42.667h-768c-23.564 0-42.667 19.103-42.667 42.667s19.103 42.667 42.667 42.667h768c23.565 0 42.667-19.103 42.667-42.667zM768 533.333c0-23.565-19.102-42.667-42.667-42.667h-597.333c-23.564 0-42.667 19.102-42.667 42.667s19.102 42.667 42.667 42.667h597.333c23.565 0 42.667-19.103 42.667-42.667zM938.667 362.667c0-23.565-19.102-42.667-42.667-42.667h-768c-23.564 0-42.667 19.102-42.667 42.667s19.103 42.667 42.667 42.667h768c23.565 0 42.667-19.102 42.667-42.667zM768 192c0-23.565-19.102-42.667-42.667-42.667h-597.333c-23.564 0-42.667 19.102-42.667 42.667s19.102 42.667 42.667 42.667h597.333c23.565 0 42.667-19.102 42.667-42.667z" />
<glyph unicode="&#xe939;" glyph-name="align-right" data-tags="align-right" d="M938.667 704c0-23.564-19.102-42.667-42.667-42.667h-768c-23.564 0-42.667 19.103-42.667 42.667s19.103 42.667 42.667 42.667h768c23.565 0 42.667-19.103 42.667-42.667zM938.667 533.333c0-23.565-19.102-42.667-42.667-42.667h-597.333c-23.564 0-42.667 19.102-42.667 42.667s19.102 42.667 42.667 42.667h597.333c23.565 0 42.667-19.103 42.667-42.667zM938.667 362.667c0-23.565-19.102-42.667-42.667-42.667h-768c-23.564 0-42.667 19.102-42.667 42.667s19.103 42.667 42.667 42.667h768c23.565 0 42.667-19.102 42.667-42.667zM938.667 192c0-23.565-19.102-42.667-42.667-42.667h-597.333c-23.564 0-42.667 19.102-42.667 42.667s19.102 42.667 42.667 42.667h597.333c23.565 0 42.667-19.102 42.667-42.667z" />
<glyph unicode="&#xe93a;" glyph-name="anchor" data-tags="anchor" d="M512 789.333c-23.565 0-42.667-19.103-42.667-42.667s19.102-42.667 42.667-42.667c23.565 0 42.667 19.103 42.667 42.667s-19.102 42.667-42.667 42.667zM384 746.667c0 70.692 57.306 128 128 128s128-57.308 128-128c0-55.732-35.618-103.145-85.333-120.716v-516.643c154.398 19.251 276.774 141.628 296.026 296.026h-82.692c-23.565 0-42.667 19.102-42.667 42.667s19.102 42.667 42.667 42.667h128c23.565 0 42.667-19.102 42.667-42.667 0-235.639-191.027-426.667-426.667-426.667-235.642 0-426.667 191.027-426.667 426.667 0 23.565 19.103 42.667 42.667 42.667h128c23.564 0 42.667-19.102 42.667-42.667s-19.103-42.667-42.667-42.667h-82.693c19.253-154.398 141.627-276.774 296.026-296.026v516.643c-49.715 17.571-85.333 64.984-85.333 120.716z" />
<glyph unicode="&#xe93b;" glyph-name="archive" data-tags="archive" d="M42.667 704c0 47.128 38.205 85.333 85.333 85.333h768c47.13 0 85.333-38.205 85.333-85.333v-170.667c0-23.565-19.102-42.667-42.667-42.667h-42.667v-426.667c0-23.565-19.102-42.667-42.667-42.667h-682.667c-23.564 0-42.667 19.102-42.667 42.667v426.667h-42.667c-23.564 0-42.667 19.102-42.667 42.667v170.667zM213.333 490.667v-384h597.333v384h-597.333zM896 576v128h-768v-128h768zM426.667 405.333c0 23.565 19.102 42.667 42.667 42.667h85.333c23.565 0 42.667-19.102 42.667-42.667s-19.102-42.667-42.667-42.667h-85.333c-23.565 0-42.667 19.102-42.667 42.667z" />
<glyph unicode="&#xe93c;" glyph-name="arrow-down-1" data-tags="arrow-down-1" d="M800 458.667c0-23.561-19.102-42.667-42.667-42.667h-378.238l48.348-58.018c15.087-18.099 12.642-45.005-5.462-60.092-18.102-15.083-45.007-12.638-60.092 5.466l-106.667 128c-13.186 15.821-13.186 38.805 0 54.626l106.667 128.001c15.085 18.103 41.99 20.548 60.092 5.463 18.104-15.085 20.549-41.99 5.462-60.092l-48.348-58.021h378.238c23.565 0 42.667-19.102 42.667-42.667z" />
<glyph unicode="&#xe93d;" glyph-name="arrow-down-cricle" data-tags="arrow-down-cricle" d="M85.333 448c0 235.642 191.025 426.667 426.667 426.667 235.639 0 426.667-191.025 426.667-426.667 0-235.639-191.027-426.667-426.667-426.667-235.642 0-426.667 191.027-426.667 426.667zM512 789.333c-188.513 0-341.333-152.82-341.333-341.333s152.82-341.333 341.333-341.333c188.514 0 341.333 152.819 341.333 341.333s-152.819 341.333-341.333 341.333zM512 661.333c23.565 0 42.667-19.103 42.667-42.667v-250.24l58.018 48.35c18.103 15.087 45.009 12.642 60.092-5.461 15.087-18.103 12.642-45.009-5.461-60.092l-128-106.667c-15.825-13.188-38.805-13.188-54.63 0l-128 106.667c-18.103 15.083-20.548 41.988-5.463 60.092s41.99 20.548 60.092 5.461l58.019-48.35v250.24c0 23.564 19.102 42.667 42.667 42.667z" />
<glyph unicode="&#xe93e;" glyph-name="arrow-down-left-circle" data-tags="arrow-down-left-circle" d="M85.333 448c0 235.642 191.025 426.667 426.667 426.667 235.639 0 426.667-191.025 426.667-426.667 0-235.639-191.027-426.667-426.667-426.667-235.642 0-426.667 191.027-426.667 426.667zM512 789.333c-188.513 0-341.333-152.82-341.333-341.333s152.82-341.333 341.333-341.333c188.514 0 341.333 152.819 341.333 341.333s-152.819 341.333-341.333 341.333zM675.345 600.997c16.661-16.662 16.661-43.677 0-60.34l-176.943-176.945 75.213-6.839c23.467-2.133 40.759-22.886 38.626-46.353s-22.886-40.759-46.353-38.626l-165.934 15.083c-20.512 1.865-36.764 18.116-38.629 38.63l-15.085 165.935c-2.133 23.467 15.161 44.219 38.628 46.352s44.221-15.163 46.355-38.63l6.835-75.213 176.947 176.945c16.661 16.663 43.678 16.663 60.339 0z" />
<glyph unicode="&#xe93f;" glyph-name="arrow-down-left-square" data-tags="arrow-down-left-square" d="M85.333 832c0 23.564 19.103 42.667 42.667 42.667h768c23.565 0 42.667-19.103 42.667-42.667v-768c0-23.565-19.102-42.667-42.667-42.667h-768c-23.564 0-42.667 19.102-42.667 42.667v768zM170.667 789.333v-682.667h682.667v682.667h-682.667zM675.345 600.997c16.666-16.662 16.666-43.677 0-60.34l-176.943-176.945 75.213-6.839c23.467-2.133 40.764-22.886 38.63-46.353s-22.886-40.759-46.357-38.626l-165.933 15.083c-20.512 1.865-36.764 18.116-38.629 38.63l-15.085 165.935c-2.133 23.467 15.161 44.219 38.628 46.352s44.22-15.163 46.353-38.63l6.839-75.213 176.943 176.945c16.666 16.663 43.678 16.663 60.339 0z" />
<glyph unicode="&#xe940;" glyph-name="arrow-down-left" data-tags="arrow-down-left" d="M707.661 654.013c16.661-16.662 16.661-43.677 0-60.34l-267.456-267.453 75.213-6.839c23.467-2.133 40.764-22.886 38.63-46.353s-22.886-40.764-46.353-38.63l-165.936 15.087c-20.512 1.865-36.764 18.116-38.629 38.626l-15.085 165.935c-2.133 23.467 15.161 44.22 38.629 46.353s44.221-15.159 46.354-38.626l6.838-75.213 267.456 267.453c16.661 16.663 43.678 16.663 60.339 0z" />
<glyph unicode="&#xe941;" glyph-name="arrow-down-right-circle" data-tags="arrow-down-right-circle" d="M348.655 600.997c-16.663-16.662-16.663-43.677 0-60.34l176.943-176.945-75.213-6.839c-23.467-2.133-40.761-22.886-38.627-46.353s22.888-40.759 46.354-38.626l165.935 15.083c20.51 1.865 36.762 18.116 38.626 38.63l15.087 165.935c2.133 23.467-15.159 44.219-38.63 46.352-23.467 2.133-44.22-15.163-46.353-38.63l-6.835-75.213-176.947 176.945c-16.662 16.663-43.677 16.663-60.34 0zM85.333 448c0 235.642 191.025 426.667 426.667 426.667 235.639 0 426.667-191.025 426.667-426.667 0-235.639-191.027-426.667-426.667-426.667-235.642 0-426.667 191.027-426.667 426.667zM512 789.333c-188.513 0-341.333-152.82-341.333-341.333s152.82-341.333 341.333-341.333c188.514 0 341.333 152.819 341.333 341.333s-152.819 341.333-341.333 341.333z" />
<glyph unicode="&#xe942;" glyph-name="arrow-down-right" data-tags="arrow-down-right" d="M316.359 654.034c16.674 16.651 43.689 16.633 60.34-0.041l267.222-267.578 7.061 75.469c2.193 23.462 22.993 40.704 46.455 38.507s40.7-22.993 38.507-46.455l-15.531-165.935c-1.911-20.463-18.146-36.655-38.618-38.515l-165.935-15.087c-23.467-2.133-44.22 15.164-46.353 38.63s15.159 44.22 38.63 46.353l75.29 6.844-267.109 267.469c-16.652 16.674-16.633 43.689 0.040 60.34z" />
<glyph unicode="&#xe943;" glyph-name="arrow-down-square" data-tags="arrow-down-square" d="M512 661.333c23.565 0 42.667-19.103 42.667-42.667v-250.24l58.018 48.35c18.103 15.087 45.009 12.642 60.092-5.461 15.087-18.103 12.642-45.009-5.461-60.092l-128-106.667c-15.825-13.188-38.805-13.188-54.63 0l-128 106.667c-18.103 15.083-20.548 41.988-5.463 60.092s41.99 20.548 60.092 5.461l58.019-48.35v250.24c0 23.564 19.102 42.667 42.667 42.667zM85.333 832c0 23.564 19.103 42.667 42.667 42.667h768c23.565 0 42.667-19.103 42.667-42.667v-768c0-23.565-19.102-42.667-42.667-42.667h-768c-23.564 0-42.667 19.102-42.667 42.667v768zM170.667 789.333v-682.667h682.667v682.667h-682.667z" />
<glyph unicode="&#xe944;" glyph-name="arrow-down" data-tags="arrow-down" d="M501.333 746.668c23.565 0 42.667-19.102 42.667-42.666v-378.238l58.018 48.35c18.103 15.083 45.009 12.638 60.092-5.466 15.087-18.099 12.642-45.005-5.461-60.092l-128-106.667c-15.825-13.184-38.805-13.184-54.63 0l-128 106.667c-18.102 15.087-20.548 41.993-5.463 60.092 15.085 18.103 41.989 20.548 60.092 5.466l58.019-48.35v378.238c0 23.564 19.102 42.667 42.667 42.666z" />
<glyph unicode="&#xe945;" glyph-name="arrow-left-cricle" data-tags="arrow-left-cricle" d="M85.333 448c0 235.642 191.025 426.667 426.667 426.667 235.639 0 426.667-191.025 426.667-426.667 0-235.639-191.027-426.667-426.667-426.667-235.642 0-426.667 191.027-426.667 426.667zM512 789.333c-188.513 0-341.333-152.82-341.333-341.333s152.82-341.333 341.333-341.333c188.514 0 341.333 152.819 341.333 341.333s-152.819 341.333-341.333 341.333zM725.333 448c0 23.565-19.102 42.667-42.667 42.667h-250.24l48.35 58.020c15.087 18.103 12.642 45.007-5.461 60.092s-45.009 12.64-60.093-5.463l-106.667-128c-13.186-15.821-13.186-38.805 0-54.63l106.667-128c15.084-18.099 41.989-20.548 60.093-5.461s20.548 41.988 5.461 60.092l-48.35 58.018h250.24c23.565 0 42.667 19.102 42.667 42.667z" />
<glyph unicode="&#xe946;" glyph-name="arrow-left-square" data-tags="arrow-left-square" d="M725.333 448c0 23.565-19.102 42.667-42.667 42.667h-250.24l48.35 58.020c15.087 18.103 12.642 45.007-5.461 60.092s-45.009 12.64-60.093-5.463l-106.667-128c-13.186-15.821-13.186-38.805 0-54.63l106.667-128c15.084-18.099 41.989-20.548 60.093-5.461s20.548 41.988 5.461 60.092l-48.35 58.018h250.24c23.565 0 42.667 19.102 42.667 42.667zM85.333 832c0 23.564 19.103 42.667 42.667 42.667h768c23.565 0 42.667-19.103 42.667-42.667v-768c0-23.565-19.102-42.667-42.667-42.667h-768c-23.564 0-42.667 19.102-42.667 42.667v768zM170.667 789.333v-682.667h682.667v682.667h-682.667z" />
<glyph unicode="&#xe947;" glyph-name="arrow-right-cricle" data-tags="arrow-right-cricle" d="M85.333 448c0 235.642 191.025 426.667 426.667 426.667 235.639 0 426.667-191.025 426.667-426.667 0-235.639-191.027-426.667-426.667-426.667-235.642 0-426.667 191.027-426.667 426.667zM512 789.333c-188.513 0-341.333-152.82-341.333-341.333s152.82-341.333 341.333-341.333c188.514 0 341.333 152.819 341.333 341.333s-152.819 341.333-341.333 341.333zM298.667 448c0-23.565 19.103-42.667 42.667-42.667h250.24l-48.35-58.018c-15.087-18.103-12.642-45.009 5.461-60.092 18.103-15.087 45.009-12.642 60.092 5.461l106.667 128c13.188 15.821 13.188 38.805 0 54.63l-106.667 127.998c-15.083 18.103-41.988 20.548-60.092 5.463s-20.548-41.99-5.461-60.092l48.35-58.018h-250.24c-23.564 0-42.667-19.102-42.667-42.667z" />
<glyph unicode="&#xe948;" glyph-name="arrow-right-square" data-tags="arrow-right-square" d="M298.667 448c0-23.565 19.103-42.667 42.667-42.667h250.24l-48.35-58.018c-15.087-18.103-12.642-45.009 5.461-60.092 18.103-15.087 45.009-12.642 60.092 5.461l106.667 128c13.188 15.821 13.188 38.805 0 54.63l-106.667 127.998c-15.083 18.103-41.988 20.548-60.092 5.463s-20.548-41.99-5.461-60.092l48.35-58.018h-250.24c-23.564 0-42.667-19.102-42.667-42.667zM85.333 832c0 23.564 19.103 42.667 42.667 42.667h768c23.565 0 42.667-19.103 42.667-42.667v-768c0-23.565-19.102-42.667-42.667-42.667h-768c-23.564 0-42.667 19.102-42.667 42.667v768zM170.667 789.333v-682.667h682.667v682.667h-682.667z" />
<glyph unicode="&#xe949;" glyph-name="arrow-right" data-tags="arrow-right" d="M224 480c0 23.561 19.103 42.667 42.667 42.667h378.24l-48.35 58.017c-15.087 18.102-12.642 45.007 5.461 60.092s45.009 12.64 60.092-5.463l106.667-128.002c13.188-15.821 13.188-38.805 0-54.626l-106.667-128c-15.083-18.103-41.988-20.548-60.092-5.466-18.103 15.087-20.548 41.993-5.461 60.092l48.35 58.022h-378.24c-23.564 0-42.667 19.102-42.667 42.667z" />
<glyph unicode="&#xe94a;" glyph-name="arrow-up-circle" data-tags="arrow-up-circle" d="M85.333 448c0 235.642 191.025 426.667 426.667 426.667 235.639 0 426.667-191.025 426.667-426.667 0-235.639-191.027-426.667-426.667-426.667-235.642 0-426.667 191.027-426.667 426.667zM512 789.333c-188.513 0-341.333-152.82-341.333-341.333s152.82-341.333 341.333-341.333c188.514 0 341.333 152.819 341.333 341.333s-152.819 341.333-341.333 341.333zM512 234.667c23.565 0 42.667 19.102 42.667 42.667v250.24l58.018-48.35c18.103-15.087 45.009-12.642 60.092 5.461 15.087 18.103 12.642 45.009-5.461 60.093l-128 106.667c-15.825 13.186-38.805 13.186-54.63 0l-128-106.667c-18.103-15.084-20.548-41.989-5.463-60.093s41.99-20.548 60.092-5.461l58.019 48.35v-250.24c0-23.565 19.102-42.667 42.667-42.667z" />
<glyph unicode="&#xe94b;" glyph-name="arrow-up-left-cricle" data-tags="arrow-up-left-cricle" d="M85.333 448c0 235.642 191.025 426.667 426.667 426.667 235.639 0 426.667-191.025 426.667-426.667 0-235.639-191.027-426.667-426.667-426.667-235.642 0-426.667 191.027-426.667 426.667zM512 789.333c-188.513 0-341.333-152.82-341.333-341.333s152.82-341.333 341.333-341.333c188.514 0 341.333 152.819 341.333 341.333s-152.819 341.333-341.333 341.333zM660.706 284.655c-16.661-16.666-43.678-16.666-60.339 0l-176.947 176.943-6.838-75.213c-2.133-23.467-22.887-40.764-46.354-38.63s-40.762 22.886-38.629 46.357l15.085 165.933c1.865 20.512 18.117 36.764 38.629 38.629l165.936 15.085c23.467 2.133 44.22-15.161 46.353-38.628s-15.159-44.22-38.63-46.353l-75.213-6.839 176.947-176.943c16.661-16.666 16.661-43.678 0-60.339z" />
<glyph unicode="&#xe94c;" glyph-name="arrow-up-left-square" data-tags="arrow-up-left-square" d="M660.706 284.655c-16.661-16.666-43.678-16.666-60.339 0l-176.947 176.943-6.838-75.213c-2.133-23.467-22.887-40.764-46.354-38.63s-40.762 22.886-38.629 46.357l15.085 165.933c1.865 20.512 18.117 36.764 38.629 38.629l165.936 15.085c23.467 2.133 44.22-15.161 46.353-38.628s-15.159-44.22-38.63-46.353l-75.213-6.839 176.947-176.943c16.661-16.666 16.661-43.678 0-60.339zM85.333 832c0 23.564 19.103 42.667 42.667 42.667h768c23.565 0 42.667-19.103 42.667-42.667v-768c0-23.565-19.102-42.667-42.667-42.667h-768c-23.564 0-42.667 19.102-42.667 42.667v768zM170.667 789.333v-682.667h682.667v682.667h-682.667z" />
<glyph unicode="&#xe94d;" glyph-name="arrow-up-left" data-tags="arrow-up-left" d="M712.836 241.54c-16.661-16.661-43.678-16.661-60.339 0l-267.455 267.456-6.837-75.213c-2.134-23.471-22.887-40.764-46.354-38.63s-40.762 22.886-38.629 46.353l15.085 165.936c1.865 20.512 18.117 36.764 38.629 38.629l165.935 15.085c23.467 2.133 44.22-15.161 46.353-38.629s-15.159-44.221-38.63-46.354l-75.213-6.837 267.456-267.456c16.661-16.661 16.661-43.678 0-60.339z" />
<glyph unicode="&#xe94e;" glyph-name="arrow-up-right-circle" data-tags="arrow-up-right-circle" d="M85.333 448c0 235.642 191.025 426.667 426.667 426.667 235.639 0 426.667-191.025 426.667-426.667 0-235.639-191.027-426.667-426.667-426.667-235.642 0-426.667 191.027-426.667 426.667zM512 789.333c-188.513 0-341.333-152.82-341.333-341.333s152.82-341.333 341.333-341.333c188.514 0 341.333 152.819 341.333 341.333s-152.819 341.333-341.333 341.333zM359.006 284.655c16.663-16.666 43.677-16.666 60.34 0l176.946 176.943 6.835-75.213c2.133-23.467 22.886-40.764 46.357-38.63 23.467 2.133 40.759 22.886 38.626 46.357l-15.083 165.933c-1.865 20.512-18.116 36.764-38.63 38.629l-165.935 15.085c-23.467 2.133-44.22-15.161-46.353-38.628s15.16-44.22 38.631-46.353l75.213-6.839-176.947-176.943c-16.662-16.666-16.662-43.678 0-60.339z" />
<glyph unicode="&#xe94f;" glyph-name="arrow-up-right-square" data-tags="arrow-up-right-square" d="M359.006 284.655c16.662-16.666 43.677-16.666 60.34 0l176.946 176.943 6.835-75.213c2.133-23.467 22.886-40.764 46.357-38.63 23.467 2.133 40.759 22.886 38.626 46.357l-15.083 165.933c-1.865 20.512-18.116 36.764-38.63 38.629l-165.935 15.085c-23.467 2.133-44.22-15.161-46.353-38.628s15.16-44.22 38.627-46.353l75.217-6.839-176.947-176.943c-16.662-16.666-16.662-43.678 0-60.339zM85.333 832c0 23.564 19.103 42.667 42.667 42.667h768c23.565 0 42.667-19.103 42.667-42.667v-768c0-23.565-19.102-42.667-42.667-42.667h-768c-23.564 0-42.667 19.102-42.667 42.667v768zM170.667 789.333v-682.667h682.667v682.667h-682.667z" />
<glyph unicode="&#xe950;" glyph-name="arrow-up-right" data-tags="arrow-up-right" d="M305.543 247.164c-16.662 16.661-16.662 43.678 0 60.339l267.453 267.455-75.213 6.837c-23.467 2.134-40.759 22.887-38.626 46.354s22.886 40.762 46.353 38.629l165.935-15.085c20.51-1.865 36.762-18.117 38.626-38.629l15.087-165.935c2.133-23.467-15.164-44.22-38.63-46.353s-44.22 15.159-46.353 38.63l-6.839 75.213-267.453-267.456c-16.663-16.661-43.677-16.661-60.34 0z" />
<glyph unicode="&#xe951;" glyph-name="arrow-up-square" data-tags="arrow-up-square" d="M512 234.667c23.565 0 42.667 19.102 42.667 42.667v250.24l58.018-48.35c18.103-15.087 45.009-12.642 60.092 5.461 15.087 18.103 12.642 45.009-5.461 60.093l-128 106.667c-15.825 13.186-38.805 13.186-54.63 0l-128-106.667c-18.103-15.084-20.548-41.989-5.463-60.093s41.99-20.548 60.092-5.461l58.019 48.35v-250.24c0-23.565 19.102-42.667 42.667-42.667zM85.333 832c0 23.564 19.103 42.667 42.667 42.667h768c23.565 0 42.667-19.103 42.667-42.667v-768c0-23.565-19.102-42.667-42.667-42.667h-768c-23.564 0-42.667 19.102-42.667 42.667v768zM170.667 789.333v-682.667h682.667v682.667h-682.667z" />
<glyph unicode="&#xe952;" glyph-name="arrow-up" data-tags="arrow-up" d="M480 170.667c-23.565 0-42.667 19.102-42.667 42.667v378.236l-58.019-48.349c-18.103-15.084-45.007-12.639-60.092 5.463s-12.64 45.007 5.463 60.092l128 106.667c15.821 13.185 38.805 13.185 54.63 0l128-106.667c18.099-15.086 20.548-41.99 5.461-60.092s-41.988-20.547-60.092-5.463l-58.018 48.349v-378.236c0-23.565-19.102-42.667-42.667-42.667z" />
<glyph unicode="&#xe953;" glyph-name="award" data-tags="award" d="M512 832c117.82 0 213.333-95.513 213.333-213.333 0-71.141-34.82-134.148-88.35-172.907-0.367-0.256-0.725-0.516-1.084-0.781-34.927-24.96-77.696-39.646-123.9-39.646s-88.974 14.686-123.901 39.646c-0.356 0.265-0.716 0.525-1.081 0.781-53.529 38.758-88.351 101.766-88.351 172.907 0 117.821 95.513 213.333 213.333 213.333zM707.503 392.875c63.194 54.763 103.164 135.607 103.164 225.792 0 164.949-133.717 298.667-298.667 298.667s-298.667-133.718-298.667-298.667c0-90.185 39.971-171.029 103.162-225.792l-59.931-364.621c-2.696-16.401 4.379-32.875 18.129-42.214s31.672-9.843 45.925-1.293l191.381 114.829 191.381-114.829c14.255-8.55 32.175-8.047 45.926 1.293 13.747 9.34 20.821 25.813 18.129 42.214l-59.934 364.621zM629.086 343.825l39.206-238.507-134.34 80.602c-13.513 8.107-30.391 8.107-43.904 0l-134.338-80.602 39.202 238.507c35.953-15.339 75.531-23.825 117.088-23.825s81.135 8.486 117.086 23.825z" />
<glyph unicode="&#xe954;" glyph-name="bag-2" data-tags="bag-2" d="M170.667 746.667c0 23.564 19.103 42.667 42.667 42.667h597.333c23.565 0 42.667-19.103 42.667-42.667v-512c0-70.694-57.306-128-128-128h-426.667c-70.692 0-128 57.306-128 128v512zM256 704v-469.333c0-23.565 19.103-42.667 42.667-42.667h426.667c23.565 0 42.667 19.102 42.667 42.667v469.333h-512zM645.483 517.487c-6.481-16.196-22.17-26.82-39.616-26.82h-187.734c-17.446 0-33.135 10.624-39.615 26.82l-34.133 85.334c-8.752 21.879 1.89 46.709 23.769 55.461s46.71-1.891 55.461-23.769l23.404-58.513h129.963l23.403 58.513c8.751 21.879 33.583 32.521 55.462 23.769s32.521-33.583 23.77-55.461l-34.133-85.334z" />
<glyph unicode="&#xe955;" glyph-name="bag-3" data-tags="bag-3" d="M239.171 808.414c7.227 14.455 22.001 23.586 38.162 23.586h469.333c16.162 0 30.933-9.131 38.161-23.586l64-128c2.965-5.924 4.506-12.457 4.506-19.081v-512c0-70.694-57.306-128-128-128h-426.667c-70.692 0-128 57.306-128 128v512c0 6.624 1.542 13.157 4.504 19.081l64 128zM303.703 746.667l-21.333-42.667h459.263l-21.333 42.667h-416.596zM768 618.667h-512v-469.333c0-23.565 19.102-42.667 42.667-42.667h426.667c23.565 0 42.667 19.102 42.667 42.667v469.333zM645.483 389.487c-6.481-16.196-22.17-26.82-39.616-26.82h-187.734c-17.446 0-33.135 10.624-39.615 26.82l-34.133 85.333c-8.752 21.879 1.89 46.711 23.769 55.462s46.71-1.89 55.461-23.77l23.404-58.513h129.963l23.403 58.513c8.751 21.879 33.583 32.52 55.462 23.77s32.521-33.583 23.77-55.462l-34.133-85.333z" />
<glyph unicode="&#xe956;" glyph-name="bag" data-tags="bag" d="M345.618 842.993c4.981 18.678 21.896 31.673 41.226 31.673h250.31c19.332 0 36.245-12.995 41.229-31.673l37.065-138.993h95.219c23.565 0 42.667-19.103 42.667-42.667v-512c0-70.694-57.306-128-128-128h-426.667c-70.692 0-128 57.306-128 128v512c0 23.564 19.103 42.667 42.667 42.667h95.22l37.065 138.993zM768 618.667h-512v-469.333c0-23.565 19.103-42.667 42.667-42.667h426.667c23.565 0 42.667 19.102 42.667 42.667v469.333zM627.132 704l-22.754 85.333h-184.753l-22.756-85.333h230.263z" />
<glyph unicode="&#xe957;" glyph-name="bar-chart-1" data-tags="bar-chart-1" d="M512 832c-23.565 0-42.667-19.103-42.667-42.667v-682.667c0-23.565 19.102-42.667 42.667-42.667s42.667 19.102 42.667 42.667v682.667c0 23.564-19.102 42.667-42.667 42.667zM725.333 618.667c-23.565 0-42.667-19.103-42.667-42.667v-469.333c0-23.565 19.102-42.667 42.667-42.667s42.667 19.102 42.667 42.667v469.333c0 23.564-19.102 42.667-42.667 42.667zM298.667 618.667c23.564 0 42.667-19.103 42.667-42.667v-469.333c0-23.565-19.102-42.667-42.667-42.667s-42.667 19.102-42.667 42.667v469.333c0 23.564 19.103 42.667 42.667 42.667z" />
<glyph unicode="&#xe958;" glyph-name="bar-chart-2" data-tags="bar-chart-2" d="M512 618.667c23.565 0 42.667-19.103 42.667-42.667v-469.333c0-23.565-19.102-42.667-42.667-42.667s-42.667 19.102-42.667 42.667v469.333c0 23.564 19.102 42.667 42.667 42.667zM768 106.667v682.667c0 23.564-19.102 42.667-42.667 42.667s-42.667-19.103-42.667-42.667v-682.667c0-23.565 19.102-42.667 42.667-42.667s42.667 19.102 42.667 42.667zM298.667 832c23.564 0 42.667-19.103 42.667-42.667v-682.667c0-23.565-19.102-42.667-42.667-42.667s-42.667 19.102-42.667 42.667v682.667c0 23.564 19.103 42.667 42.667 42.667z" />
<glyph unicode="&#xe959;" glyph-name="bar-chart-down" data-tags="bar-chart-down" d="M554.667 618.667c-23.565 0-42.667-19.103-42.667-42.667v-469.333c0-23.565 19.102-42.667 42.667-42.667s42.667 19.102 42.667 42.667v469.333c0 23.564-19.102 42.667-42.667 42.667zM768 362.667c-23.565 0-42.667-19.102-42.667-42.667v-213.333c0-23.565 19.102-42.667 42.667-42.667s42.667 19.102 42.667 42.667v213.333c0 23.565-19.102 42.667-42.667 42.667zM341.333 832c-23.564 0-42.667-19.103-42.667-42.667v-682.667c0-23.565 19.102-42.667 42.667-42.667s42.667 19.102 42.667 42.667v682.667c0 23.564-19.103 42.667-42.667 42.667z" />
<glyph unicode="&#xe95a;" glyph-name="bar-chart-up" data-tags="bar-chart-up" d="M512 618.667c23.565 0 42.667-19.103 42.667-42.667v-469.333c0-23.565-19.102-42.667-42.667-42.667s-42.667 19.102-42.667 42.667v469.333c0 23.564 19.102 42.667 42.667 42.667zM298.667 362.667c23.564 0 42.667-19.102 42.667-42.667v-213.333c0-23.565-19.102-42.667-42.667-42.667s-42.667 19.102-42.667 42.667v213.333c0 23.565 19.103 42.667 42.667 42.667zM725.333 832c23.565 0 42.667-19.103 42.667-42.667v-682.667c0-23.565-19.102-42.667-42.667-42.667s-42.667 19.102-42.667 42.667v682.667c0 23.564 19.102 42.667 42.667 42.667z" />
<glyph unicode="&#xe95b;" glyph-name="battery-charging" data-tags="battery-charging" d="M213.333 533.333c0 47.128 38.205 85.333 85.333 85.333h512c47.13 0 85.333-38.205 85.333-85.333v-256c0-47.13-38.204-85.333-85.333-85.333h-512c-47.128 0-85.333 38.204-85.333 85.333v48.375c-6.276-3.631-13.562-5.709-21.333-5.709-35.346 0-64 28.655-64 64v42.667c0 35.345 28.654 64 64 64 7.771 0 15.057-2.078 21.333-5.709v48.375zM810.667 533.333h-512v-256h512v256zM421.229 466.859c34.033 47.646 104.843 47.646 138.878 0l71.949-100.727c13.696-19.174 9.254-45.82-9.92-59.516-19.179-13.696-45.824-9.259-59.52 9.92l-71.949 100.723-71.947-100.723c-13.696-19.179-40.344-23.616-59.519-9.92s-23.616 40.341-9.92 59.516l71.948 100.727zM570.018 308.557c18.103-15.087 45.009-12.642 60.092 5.461l106.667 128c15.087 18.103 12.642 45.009-5.461 60.092-18.103 15.087-45.005 12.642-60.092-5.461l-106.667-128c-15.087-18.103-12.638-45.009 5.461-60.092z" />
<glyph unicode="&#xe95c;" glyph-name="battery-ending" data-tags="battery-ending" d="M213.333 533.333c0 47.128 38.205 85.333 85.333 85.333h512c47.13 0 85.333-38.205 85.333-85.333v-256c0-47.13-38.204-85.333-85.333-85.333h-512c-47.128 0-85.333 38.204-85.333 85.333v48.375c-6.276-3.631-13.562-5.709-21.333-5.709-35.346 0-64 28.655-64 64v42.667c0 35.345 28.654 64 64 64 7.771 0 15.057-2.078 21.333-5.709v48.375zM640 533.333h-341.333v-256h341.333v256zM725.333 533.333v-256h85.333v256h-85.333z" />
<glyph unicode="&#xe95d;" glyph-name="battery-half" data-tags="battery-half" d="M213.333 533.333c0 47.128 38.205 85.333 85.333 85.333h512c47.13 0 85.333-38.205 85.333-85.333v-256c0-47.13-38.204-85.333-85.333-85.333h-512c-47.128 0-85.333 38.204-85.333 85.333v48.375c-6.276-3.631-13.562-5.709-21.333-5.709-35.346 0-64 28.655-64 64v42.667c0 35.345 28.654 64 64 64 7.771 0 15.057-2.078 21.333-5.709v48.375zM512 533.333h-213.333v-256h213.333v256zM597.333 533.333v-256h213.333v256h-213.333z" />
<glyph unicode="&#xe95e;" glyph-name="battery-off" data-tags="battery-off" d="M512 576c0 23.564 19.102 42.667 42.667 42.667h256c47.13 0 85.333-38.205 85.333-85.333v-256c0-23.565-19.102-42.667-42.667-42.667s-42.667 19.102-42.667 42.667v256h-256c-23.565 0-42.667 19.103-42.667 42.667zM256 576c23.564 0 42.667-19.103 42.667-42.667v-256h256c23.565 0 42.667-19.102 42.667-42.667s-19.102-42.667-42.667-42.667h-256c-47.128 0-85.333 38.204-85.333 85.333v42.667h-21.333c-35.346 0-64 28.655-64 64v42.667c0 35.345 28.654 64 64 64h21.333v42.667c0 23.564 19.103 42.667 42.667 42.667zM76.497 883.503c16.663 16.662 43.677 16.662 60.34 0l810.666-810.667c16.661-16.661 16.661-43.678 0-60.339s-43.678-16.661-60.339 0l-810.667 810.666c-16.662 16.663-16.662 43.677 0 60.34z" />
</font>
</defs>
</svg>
